{
.appVersion = "3133";
.formatVersion = 3;
DisplayStrings = (
"00112233445566778899AABBCCDDEEFFGGHHIIJJKKLLMMNNOOPPQQRRSSTTUUVVWWXXYYZZ
aabbccddeeffgghhiijjkkllmmnnooppqqrrssttuuvvwwxxyyzz"
);
customParameters = (
{
name = vendorID;
value = "    ";
},
{
name = panose;
value = (
2,
0,
5,
3,
9,
0,
0,
2,
0,
3
);
},
{
name = unicodeRanges;
value = (
0,
1
);
},
{
name = codePageRanges;
value = (
"1252",
"1250",
"bit 29"
);
},
{
name = "Family Alignment Zones";
value = (
{
pos = 704;
size = 16;
},
{
pos = 444;
size = 0;
},
{
pos = 420;
size = 12;
},
{
pos = 278;
size = "-6";
},
{
pos = 0;
size = "-16";
},
{
pos = "-270";
size = "-10";
}
);
},
{
name = glyphOrder;
value = (
.notdef,
space,
exclam,
quotedbl,
numbersign,
dollar,
percent,
ampersand,
quotesingle,
parenleft,
parenright,
asterisk,
plus,
comma,
hyphen,
period,
slash,
zero,
one,
two,
three,
four,
five,
six,
seven,
eight,
nine,
colon,
semicolon,
less,
equal,
greater,
question,
at,
A,
B,
C,
D,
E,
F,
G,
H,
I,
J,
K,
L,
M,
N,
O,
P,
Q,
R,
S,
T,
U,
V,
W,
X,
Y,
Z,
bracketleft,
backslash,
bracketright,
asciicircum,
underscore,
grave,
a,
b,
c,
d,
e,
f,
g,
h,
i,
j,
k,
l,
m,
n,
o,
p,
q,
r,
s,
t,
u,
v,
w,
x,
y,
z,
braceleft,
bar,
braceright,
asciitilde,
uni007F,
uni00A0,
exclamdown,
cent,
sterling,
currency,
yen,
brokenbar,
section,
dieresis,
copyright,
ordfeminine,
guillemotleft,
logicalnot,
uni00AD,
registered,
macron,
degree,
plusminus,
twosuperior,
threesuperior,
acute,
mu,
paragraph,
periodcentered,
cedilla,
onesuperior,
ordmasculine,
guillemotright,
onequarter,
onehalf,
threequarters,
questiondown,
Agrave,
Aacute,
Acircumflex,
Atilde,
Adieresis,
Aring,
AE,
Ccedilla,
Egrave,
Eacute,
Ecircumflex,
Edieresis,
Igrave,
Iacute,
Icircumflex,
Idieresis,
Eth,
Ntilde,
Ograve,
Oacute,
Ocircumflex,
Otilde,
Odieresis,
multiply,
Oslash,
Ugrave,
Uacute,
Ucircumflex,
Udieresis,
Yacute,
Thorn,
germandbls,
agrave,
aacute,
acircumflex,
atilde,
adieresis,
aring,
ae,
ccedilla,
egrave,
eacute,
ecircumflex,
edieresis,
igrave,
iacute,

glyphs = (
{
glyphname = .notdef;
layers = (
{
hints = (
{
horizontal = 1;
place = (0, 50);
place = (0, 50);
type = Stem;
},
{
horizontal = 1;
place = (654, 50);
place = (654, 50);
type = Stem;
},
{
place = (-1, 50);
place = (-1, 50);
type = Stem;
},
{
place = (457, 50);
place = (457, 50);
type = Stem;
}
);
layerId = m01;
shapes = (
{
closed = 1;
nodes = (
(-1,704,l),
(-1,0,l),
(507,0,l),
(507,704,l)
);
},
{
closed = 1;
nodes = (
(223,352,l),
(49,85,l),
(49,620,l)
);
},
{
closed = 1;
nodes = (
(86,654,l),
(420,654,l),
(253,398,l)
);
},
{
closed = 1;
nodes = (
(253,307,l),
(420,50,l),
(86,50,l)
);
},
{
closed = 1;
nodes = (
(283,352,l),
(457,620,l),
(457,85,l)
);
}
);
width = 507;
}
);
note = ".notdef";
},
{
glyphname = exclam;
layers = (
{
hints = (
{
horizontal = 1;
place = (-9, 152);
place = (-9, 152);
type = Stem;
},
{
horizontal = 1;
place = (224, -20);
target = down;
type = TopGhost;
},
{
horizontal = 1;
place = (745, -20);
target = down;
type = TopGhost;
},
{
place = (91, 151);
place = (91, 151);
type = Stem;
}
);
layerId = m01;
shapes = (
{
closed = 1;
nodes = (
(199,224,l),
(234,745,l),
(102,745,l),
(134,224,l)
);
},
{
closed = 1;
nodes = (
(242,25,o),
(208,-9,o),
(166,-9,cs),
(125,-9,o),
(91,25,o),
(91,67,cs),
(91,109,o),
(125,143,o),
(166,143,cs),
(208,143,o),
(242,109,o),
(242,67,cs)
);
}
);
width = 334;
}
);
note = exclam;
unicode = 33;
},
{
glyphname = quotedbl;
layers = (
{
hints = (
{
horizontal = 1;
place = (377, 21);
target = up;
type = BottomGhost;
},
{
horizontal = 1;
place = (704, -20);
target = down;
type = TopGhost;
}
);
layerId = m01;
shapes = (
{
closed = 1;
nodes = (
(136,377,l),
(199,377,l),
(232,704,l),
(101,704,l)
);
},
{
closed = 1;
nodes = (
(343,377,l),
(406,377,l),
(440,704,l),
(308,704,l)
);
}
);
width = 532;
}
);
note = quotedbl;
unicode = 34;
},
{
glyphname = numbersign;
layers = (
{
hints = (
{
horizontal = 1;
place = (0, 21);
target = up;
type = BottomGhost;
},
{
horizontal = 1;
place = (225, 89);
place = (225, 89);
type = Stem;
},
{
horizontal = 1;
place = (463, 88);
place = (463, 88);
type = Stem;
},
{
horizontal = 1;
place = (746, -20);
target = down;
type = TopGhost;
}
);
layerId = m01;
shapes = (
{
closed = 1;
nodes = (
(667,463,l),
(667,551,l),
(555,551,l),
(601,746,l),
(510,746,l),
(464,551,l),
(329,551,l),
(374,746,l),
(283,746,l),
(237,551,l),
(108,551,l),
(108,463,l),
(217,463,l),
(183,314,l),
(44,314,l),
(44,225,l),
(162,225,l),
(110,0,l),
(201,0,l),
(253,225,l),
(389,225,l),
(337,0,l),
(428,0,l),
(480,225,l),
(604,225,l),
(604,314,l),
(500,314,l),
(535,463,l)
);
},
{
closed = 1;
nodes = (
(444,463,l),
(409,314,l),
(274,314,l),
(308,463,l)
);
}
);
width = 714;
}
);
note = numbersign;
unicode = 35;
},
{
glyphname = dollar;
layers = (
{
hints = (
{
horizontal = 1;
place = (-131, 21);
target = up;
type = BottomGhost;
},
{
horizontal = 1;
place = (-9, 21);
target = up;
type = BottomGhost;
},
{
horizontal = 1;
place = (245, -20);
target = down;
type = TopGhost;
},
{
horizontal = 1;
place = (713, -20);
target = down;
type = TopGhost;
},
{
horizontal = 1;
place = (835, -20);
target = down;
type = TopGhost;
},
{
place = (46, 250);
place = (46, 250);
type = Stem;
}
);
layerId = m01;
shapes = (
{
closed = 1;
nodes = (
(296,268,l),
(338,242,l),
(441,167,o),
(454,8,o),
(296,8,c)
);
},
{
closed = 1;
nodes = (
(279,467,l),
(262,479,ls),
(132,564,o),
(171,696,o),
(279,696,c)
);
},
{
closed = 1;
nodes = (
(296,456,l),
(296,696,l),
(444,686,o),
(509,548,o),
(528,497,c),
(536,497,l),
(536,665,l),
(536,665,o),
(455,710,o),
(296,713,c),
(296,835,l),
(279,835,l),
(279,713,l),
(121,713,o),
(72,637,o),
(72,637,c),
(-11,528,o),
(42,428,o),
(184,339,cs),
(279,279,l),
(279,9,l),
(132,35,o),
(74,189,o),
(54,245,c),
(46,245,l),
(46,53,l),
(46,53,o),
(115,-1,o),
(279,-9,c),
(279,-131,l),
(296,-131,l),
(296,-9,l),
(437,-9,o),
(487,23,o),
(528,73,c),
(603,182,o),
(548,290,o),
(416,377,cs)
);
}
);
width = 594;
}
);
note = dollar;
unicode = 36;
},
{
glyphname = percent;
layers = (
{
hints = (
{
horizontal = 1;
place = (0, 21);
target = up;
type = BottomGhost;
},
{
horizontal = 1;
place = (321, -20);
target = down;
type = TopGhost;
},
{
horizontal = 1;
place = (383, -20);
target = down;
type = TopGhost;
},
{
horizontal = 1;
place = (704, -20);
target = down;
type = TopGhost;
},
{
place = (141, 88);
place = (141, 88);
type = Stem;
},
{
place = (330, 88);
place = (330, 88);
type = Stem;
},
{
place = (602, 88);
place = (602, 88);
type = Stem;
},
{
place = (791, 88);
place = (791, 88);
type = Stem;
},
{
horizontal = 1;
place = (338, -20);
target = down;
type = TopGhost;
},
{
horizontal = 1;
place = (366, -20);
target = down;
type = TopGhost;
}
);
layerId = m01;
shapes = (
{
closed = 1;
nodes = (
(250,0,l),
(315,0,l),
(771,704,l),
(706,704,l)
);
},
{
closed = 1;
nodes = (
(170,679,o),
(141,595,o),
(141,497,cs),
(141,398,o),
(170,321,o),
(280,321,cs),
(389,321,o),
(418,398,o),
(418,497,cs),
(418,595,o),
(389,679,o),
(280,679,cs)
);
},
{
closed = 1;
nodes = (
(236,338,o),
(229,361,o),
(229,497,cs),
(229,633,o),
(235,662,o),
(280,662,cs),
(323,662,o),
(330,633,o),
(330,497,cs),
(330,361,o),
(325,338,o),
(280,338,cs)
);
},
{
closed = 1;
nodes = (
(631,383,o),
(602,299,o),
(602,201,cs),
(602,102,o),
(631,25,o),
(741,25,cs),
(850,25,o),
(879,102,o),
(879,201,cs),
(879,299,o),
(850,383,o),
(741,383,cs)
);
},
{
closed = 1;
nodes = (
(697,42,o),
(690,65,o),
(690,201,cs),
(690,337,o),
(696,366,o),
(741,366,cs),
(784,366,o),
(791,337,o),
(791,201,cs),
(791,65,o),
(786,42,o),
(741,42,cs)
);
}
);
width = 1011;
}
);
note = percent;
unicode = 37;
},
{
glyphname = ampersand;
layers = (
{
hints = (
{
horizontal = 1;
place = (131, -20);
target = down;
type = TopGhost;
}
);
layerId = m01;
shapes = (
{
closed = 1;
nodes = (
(419,734,o),
(373,752,o),
(304,740,cs),
(192,720,o),
(120,593,o),
(208,467,cs),
(265,382,l),
(220,355,ls),
(143,309,o),
(6,210,o),
(101,68,cs),
(197,-75,o),
(405,4,o),
(447,119,c),
(500,41,ls),
(541,-19,o),
(653,-8,o),
(653,-8,c),
(718,-1,o),
(782,42,o),
(782,131,c),
(764,131,l),
(753,93,o),
(716,83,o),
(676,83,c),
(676,83,o),
(620,82,o),
(590,127,cs),
(512,242,l),
(534,290,o),
(580,307,o),
(580,286,cs),
(581,269,o),
(589,254,o),
(602,243,cs),
(630,219,o),
(671,223,o),
(694,250,cs),
(718,278,o),
(715,319,o),
(687,342,cs),
(667,358,o),
(637,359,o),
(614,354,cs),
(588,348,o),
(541,328,o),
(503,255,c),
(386,431,l),
(535,542,o),
(485,656,o),
(450,698,cs)
);
},
{
closed = 1;
nodes = (
(154,207,o),
(177,297,o),
(231,338,c),
(275,367,l),
(434,136,l),
(387,43,o),
(272,56,o),
(226,115,cs)
);
},
{
closed = 1;
nodes = (
(303,555,ls),
(255,626,o),
(293,700,o),
(336,715,cs),
(368,726,o),
(406,714,o),
(434,685,c),
(474,637,o),
(505,535,o),
(375,447,c)
);
}
);
width = 834;
}
);
note = ampersand;
unicode = 38;
},
{
glyphname = quotesingle;
layers = (
{
hints = (
{
horizontal = 1;
place = (376, 21);
target = up;
type = BottomGhost;
},
{
horizontal = 1;
place = (704, -20);
target = down;
type = TopGhost;
}
);
layerId = m01;
shapes = (
{
closed = 1;
nodes = (
(109,376,l),
(172,376,l),
(206,704,l),
(75,704,l)
);
}
);
width = 278;
}
);
note = quotesingle;
unicode = 39;
},
{
glyphname = parenleft;
layers = (
{
hints = (
{
horizontal = 1;
place = (-206, 21);
target = up;
type = BottomGhost;
},
{
horizontal = 1;
place = (745, -20);
target = down;
type = TopGhost;
},
{
place = (79, 123);
place = (79, 123);
type = Stem;
}
);
layerId = m01;
shapes = (
{
closed = 1;
nodes = (
(79,579,o),
(79,360,o),
(79,254,cs),
(79,147,o),
(79,-72,o),
(316,-206,c),
(330,-193,l),
(202,-77,o),
(202,144,o),
(202,251,cs),
(202,357,o),
(202,579,o),
(332,732,c),
(318,745,l)
);
}
);
width = 333;
}
);
note = parenleft;
unicode = 40;
},
{
glyphname = parenright;
layers = (
{
hints = (
{
horizontal = 1;
place = (-205, 21);
target = up;
type = BottomGhost;
},
{
horizontal = 1;
place = (746, -20);
target = down;
type = TopGhost;
},
{
place = (128, 123);
place = (128, 123);
type = Stem;
}
);
layerId = m01;
shapes = (
{
closed = 1;
nodes = (
(251,361,o),
(251,580,o),
(12,746,c),
(-2,733,l),
(128,580,o),
(128,358,o),
(128,252,cs),
(128,145,o),
(128,-76,o),
(0,-192,c),
(14,-205,l),
(251,-71,o),
(251,148,o),
(251,255,cs)
);
}
);
width = 333;
}
);
note = parenright;
unicode = 41;
},
{
glyphname = asterisk;
layers = (
{
hints = (
{
horizontal = 1;
place = (302, 21);
target = up;
type = BottomGhost;
},
{
horizontal = 1;
place = (704, -20);
target = down;
type = TopGhost;
}
);
layerId = m01;
shapes = (
{
closed = 1;
nodes = (
(487,513,l),
(455,612,l),
(295,525,l),
(328,704,l),
(223,704,l),
(256,525,l),
(97,612,l),
(64,513,l),
(245,489,l),
(113,364,l),
(197,302,l),
(276,467,l),
(354,302,l),
(439,364,l),
(307,489,l)
);
}
);
width = 556;
}
);
note = asterisk;
unicode = 42;
},
{
glyphname = plus;
layers = (
{
hints = (
{
horizontal = 1;
place = (0, 21);
target = up;
type = BottomGhost;
},
{
horizontal = 1;
place = (263, 93);
place = (263, 93);
type = Stem;
},
{
horizontal = 1;
place = (619, -20);
target = down;
type = TopGhost;
},
{
place = (310, 93);
place = (310, 93);
type = Stem;
}
);
layerId = m01;
shapes = (
{
closed = 1;
nodes = (
(657,356,l),
(403,356,l),
(403,619,l),
(310,619,l),
(310,356,l),
(56,356,l),
(56,263,l),
(310,263,l),
(310,0,l),
(403,0,l),
(403,263,l),
(657,263,l)
);
}
);
width = 715;
}
);
note = plus;
unicode = 43;
},
{
glyphname = comma;
kernLeft = comma;
layers = (
{
hints = (
{
horizontal = 1;
place = (-132, 21);
target = up;
type = BottomGhost;
}
);
layerId = m01;
shapes = (
{
closed = 1;
nodes = (
(212,-5,o),
(249,84,o),
(199,134,cs),
(167,166,o),
(114,166,o),
(82,134,cs),
(50,101,o),
(50,48,o),
(83,17,cs),
(99,1,o),
(119,-5,o),
(139,-7,cs),
(155,-9,o),
(142,-74,o),
(85,-118,c),
(96,-132,l),
(142,-107,o),
(166,-75,o),
(180,-53,cs)
);
}
);
width = 272;
}
);
note = comma;
unicode = 44;
},
{
glyphname = hyphen;
kernLeft = hyphen;
layers = (
{
hints = (
{
horizontal = 1;
place = (208, 93);
place = (208, 93);
type = Stem;
}
);
layerId = m01;
shapes = (
{
closed = 1;
nodes = (
(379,208,l),
(379,301,l),
(64,301,l),
(64,208,l)
);
}
);
width = 444;
}
);
note = hyphen;
unicode = 45;
},
{
glyphname = period;
kernLeft = period;
layers = (
{
hints = (
{
horizontal = 1;
place = (-5, 169);
place = (-5, 169);
type = Stem;
},
{
place = (63, 169);
place = (63, 169);
type = Stem;
}
);
layerId = m01;
shapes = (
{
closed = 1;
nodes = (
(232,126,o),
(194,164,o),
(148,164,cs),
(101,164,o),
(63,126,o),
(63,79,cs),
(63,32,o),
(101,-5,o),
(148,-5,cs),
(194,-5,o),
(232,32,o),
(232,79,cs)
);
}
);
width = 296;
}
);
note = period;
unicode = 46;
},
{
glyphname = slash;
layers = (
{
hints = (
{
horizontal = 1;
place = (-21, 21);
target = up;
type = BottomGhost;
},
{
horizontal = 1;
place = (725, -20);
target = down;
type = TopGhost;
}
);
layerId = m01;
shapes = (
{
closed = 1;
nodes = (
(413,725,l),
(322,725,l),
(14,-21,l),
(105,-21,l)
);
}
);
width = 430;
}
);
note = slash;
unicode = 47;
},
{
glyphname = zero;
lastChange = "2022-10-05 13:02:06 +0000";
layers = (
{
hints = (
{
horizontal = 1;
place = (-9, 21);
target = up;
type = BottomGhost;
},
{
horizontal = 1;
place = (713, -20);
target = down;
type = TopGhost;
},
{
place = (34, 158);
place = (34, 158);
type = Stem;
},
{
place = (435, 158);
place = (435, 158);
type = Stem;
}
);
layerId = m01;
shapes = (
{
closed = 1;
nodes = (
(281,713,l),
(80,702,o),
(34,538,o),
(34,346,cs),
(34,148,o),
(93,-9,o),
(314,-9,cs),
(534,-9,o),
(593,148,o),
(593,346,cs),
(593,540,o),
(537,704,o),
(331,713,c)
);
},
{
closed = 1;
nodes = (
(226,8,o),
(192,72,o),
(192,346,cs),
(192,595,o),
(209,680,o),
(281,694,c),
(281,713,l),
(331,713,l),
(331,695,l),
(404,684,o),
(435,601,o),
(435,346,cs),
(435,72,o),
(405,8,o),
(314,8,cs)
);
}
);
width = 630;
}
);
note = zero;
unicode = 48;
},
{
glyphname = one;
layers = (
{
hints = (
{
horizontal = 1;
place = (0, 21);
target = up;
type = BottomGhost;
},
{
horizontal = 1;
place = (713, -20);
target = down;
type = TopGhost;
},
{
place = (160, 124);
place = (160, 124);
type = Stem;
}
);
layerId = m01;
shapes = (
{
closed = 1;
nodes = (
(284,713,l),
(252,713,l),
(57,568,l),
(67,552,l),
(67,552,o),
(160,618,o),
(160,528,cs),
(160,95,ls),
(160,21,o),
(106,17,o),
(65,17,c),
(65,0,l),
(366,0,l),
(366,17,l),
(331,17,o),
(284,18,o),
(284,95,cs)
);
}
);
width = 424;
}
);
note = one;
unicode = 49;
},
{
glyphname = two;
lastChange = "2022-10-05 13:03:15 +0000";
layers = (
{
hints = (
{
horizontal = 1;
place = (0, 128);
place = (0, 128);
type = Stem;
},
{
horizontal = 1;
place = (185, -20);
target = down;
type = TopGhost;
},
{
horizontal = 1;
place = (713, -20);
target = down;
type = TopGhost;
}
);
layerId = m01;
shapes = (
{
closed = 1;
nodes = (
(445,185,l),
(423,145,o),
(388,128,o),
(354,128,cs),
(197,128,l),
(104,0,l),
(54,0,l),
(147,128,l),
(147,128,o),
(235,255,o),
(285,318,cs),
(364,418,o),
(406,480,o),
(406,546,cs),
(406,637,o),
(335,713,o),
(235,713,c),
(235,713,o),
(64,712,o),
(41,525,c),
(57,521,l),
(133,679,o),
(410,577,o),
(267,332,c),
(39,0,l),
(104,0,l),
(411,0,l),
(462,185,l)
);
}
);
width = 493;
}
);
note = two;
unicode = 50;
},
{
glyphname = three;
layers = (
{
hints = (
{
horizontal = 1;
place = (-9, 21);
target = up;
type = BottomGhost;
},
{
horizontal = 1;
place = (713, -20);
target = down;
type = TopGhost;
}
);
layerId = m01;
shapes = (
{
closed = 1;
nodes = (
(473,293,o),
(422,356,o),
(334,400,c),
(503,563,o),
(376,713,o),
(235,713,c),
(235,713,o),
(79,713,o),
(57,551,c),
(73,547,l),
(111,625,o),
(211,630,o),
(256,593,cs),
(313,547,o),
(334,416,o),
(167,364,c),
(167,347,l),
(322,326,o),
(353,217,o),
(357,181,cs),
(365,99,o),
(344,8,o),
(242,8,cs),
(162,8,o),
(146,35,o),
(156,39,c),
(171,48,o),
(183,62,o),
(188,83,cs),
(198,125,o),
(172,166,o),
(130,176,cs),
(89,186,o),
(47,160,o),
(38,118,cs),
(31,89,o),
(42,56,o),
(63,41,cs),
(110,6,o),
(166,-9,o),
(243,-9,cs),
(345,-9,o),
(488,53,o),
(477,232,cs)
);
}
);
width = 528;
}
);
note = three;
unicode = 51;
},
{
glyphname = four;
lastChange = "2022-10-06 06:50:06 +0000";
layers = (
{
hints = (
{
horizontal = 1;
place = (0, 21);
target = up;
type = BottomGhost;
},
{
horizontal = 1;
place = (196, 70);
place = (196, 70);
type = Stem;
},
{
horizontal = 1;
place = (713, -20);
target = down;
type = TopGhost;
},
{
place = (261, 145);
place = (261, 145);
type = Stem;
}
);
layerId = m01;
shapes = (
{
closed = 1;
nodes = (
(510,196,l),
(510,266,l),
(406,266,l),
(406,598,l),
(406,680,l),
(377,708,l),
(359,713,l),
(29,213,l),
(29,196,l),
(261,196,l),
(261,140,ls),
(261,21,o),
(218,17,o),
(176,17,c),
(176,0,l),
(491,0,l),
(491,17,l),
(449,17,o),
(406,19,o),
(406,145,cs),
(406,196,l)
);
},
{
closed = 1;
nodes = (
(406,680,l),
(261,461,l),
(261,266,l),
(134,266,ls),
(114,266,o),
(86,266,o),
(121,319,cs),
(377,708,l)
);
}
);
width = 547;
}
);
note = four;
unicode = 52;
},
{
glyphname = five;
lastChange = "2022-10-05 13:07:10 +0000";
layers = (
{
hints = (
{
horizontal = 1;
place = (-9, 21);
target = up;
type = BottomGhost;
},
{
horizontal = 1;
place = (573, 131);
place = (573, 131);
type = Stem;
}
);
layerId = m01;
shapes = (
{
closed = 1;
nodes = (
(120,573,l),
(428,573,l),
(471,704,l),
(125,704,l),
(51,314,l),
(56,315,o),
(65,316,o),
(70,317,c),
(92,436,l),
(153,443,l),
(129,320,l),
(311,318,o),
(370,215,o),
(381,178,cs),
(402,105,o),
(368,8,o),
(231,8,cs),
(163,8,o),
(156,27,o),
(169,35,cs),
(183,43,o),
(197,59,o),
(201,80,cs),
(211,122,o),
(185,164,o),
(144,173,cs),
(102,183,o),
(60,157,o),
(50,116,cs),
(44,87,o),
(55,55,o),
(75,38,cs),
(96,21,o),
(139,-9,o),
(231,-9,cs),
(369,-9,o),
(484,68,o),
(484,220,cs),
(484,321,o),
(411,462,o),
(153,443,c),
(92,436,l)
);
}
);
width = 535;
}
);
note = five;
unicode = 53;
},
{
glyphname = six;
lastChange = "2022-10-05 13:08:15 +0000";
layers = (
{
hints = (
{
horizontal = 1;
place = (-9, 21);
target = up;
type = BottomGhost;
},
{
horizontal = 1;
place = (396, 42);
place = (396, 42);
type = Stem;
},
{
horizontal = 1;
place = (713, -20);
target = down;
type = TopGhost;
},
{
place = (42, 158);
place = (42, 158);
type = Stem;
},
{
place = (398, 147);
place = (398, 147);
type = Stem;
}
);
layerId = m01;
shapes = (
{
closed = 1;
nodes = (
(331,438,o),
(285,435,o),
(251,418,c),
(200,356,l),
(201,630,o),
(274,696,o),
(346,696,cs),
(392,696,o),
(405,681,o),
(398,680,cs),
(379,677,o),
(365,666,o),
(354,649,cs),
(332,614,o),
(342,567,o),
(377,545,cs),
(413,523,o),
(459,533,o),
(481,569,cs),
(497,593,o),
(496,626,o),
(483,647,cs),
(471,667,o),
(427,713,o),
(346,713,cs),
(188,713,o),
(42,564,o),
(42,318,cs),
(42,119,o),
(128,-9,o),
(297,-9,cs),
(436,-9,o),
(545,63,o),
(545,218,cs),
(545,328,o),
(500,438,o),
(358,438,cs)
);
},
{
closed = 1;
nodes = (
(222,8,o),
(203,100,o),
(200,317,c),
(200,356,l),
(251,418,l),
(251,387,l),
(267,394,o),
(293,396,o),
(305,396,cs),
(360,396,o),
(398,329,o),
(398,198,cs),
(398,43,o),
(372,8,o),
(297,8,cs)
);
}
);
width = 584;
}
);
note = six;
unicode = 54;
},
{
glyphname = seven;
lastChange = "2022-10-05 14:06:54 +0000";
layers = (
{
hints = (
{
horizontal = 1;
place = (0, 21);
target = up;
type = BottomGhost;
},
{
horizontal = 1;
place = (575, 129);
place = (575, 129);
type = Stem;
},
{
place = (181, 142);
place = (181, 142);
type = Stem;
}
);
layerId = m01;
shapes = (
{
closed = 1;
nodes = (
(70,704,l),
(46,517,l),
(63,517,l),
(84,557,o),
(129,575,o),
(163,575,cs),
(352,575,l),
(444,704,l),
(497,704,l),
(289,446,o),
(181,162,o),
(181,0,c),
(323,0,l),
(323,100,o),
(324,365,o),
(446,575,cs),
(521,704,l)
);
}
);
width = 556;
}
);
note = seven;
unicode = 55;
},
{
glyphname = eight;
lastChange = "2022-10-05 15:30:27 +0000";
layers = (
{
hints = (
{
horizontal = 1;
place = (-9, 21);
target = up;
type = BottomGhost;
},
{
horizontal = 1;
place = (713, -20);
target = down;
type = TopGhost;
},
{
place = (61, 121);
place = (61, 121);
type = Stem;
},
{
place = (394, 137);
place = (394, 137);
type = Stem;
},
{
place = (61, 85);
place = (61, 85);
type = Stem;
},
{
place = (394, 91);
place = (394, 91);
type = Stem;
},
{
place = (36, 110);
place = (36, 110);
type = Stem;
}
);
layerId = m01;
shapes = (
{
closed = 1;
nodes = (
(253,370,l),
(137,378,l),
(280,454,l),
(222,490,o),
(182,540,o),
(182,586,cs),
(182,659,o),
(223,696,o),
(276,696,cs),
(331,696,o),
(394,667,o),
(394,554,cs),
(394,489,o),
(304,396,o),
(264,377,c)
);
},
{
closed = 1;
nodes = (
(401,48,o),
(354,8,o),
(290,8,cs),
(195,8,o),
(146,73,o),
(146,158,cs),
(146,258,o),
(190,304,o),
(215,317,c),
(230,308,o),
(236,305,o),
(253,296,cs),
(314,264,o),
(401,213,o),
(401,131,cs)
);
},
{
closed = 1;
nodes = (
(531,285,o),
(456,370,o),
(363,415,c),
(447,434,o),
(485,507,o),
(485,567,cs),
(485,662,o),
(396,713,o),
(276,713,cs),
(158,713,o),
(61,652,o),
(61,523,cs),
(61,479,o),
(96,421,o),
(137,378,c),
(253,370,l),
(186,341,o),
(36,238,o),
(36,152,cs),
(36,32,o),
(142,-9,o),
(290,-9,cs),
(426,-9,o),
(531,47,o),
(531,202,cs)
);
}
);
width = 565;
}
);
note = eight;
unicode = 56;
},
{
glyphname = nine;
lastChange = "2022-10-05 15:31:55 +0000";
layers = (
{
hints = (
{
horizontal = 1;
place = (-9, 21);
target = up;
type = BottomGhost;
},
{
horizontal = 1;
place = (267, 42);
place = (267, 42);
type = Stem;
},
{
horizontal = 1;
place = (713, -20);
target = down;
type = TopGhost;
},
{
place = (37, 147);
place = (37, 147);
type = Stem;
},
{
place = (382, 158);
place = (382, 158);
type = Stem;
}
);
layerId = m01;
shapes = (
{
closed = 1;
nodes = (
(255,267,o),
(296,270,o),
(332,295,c),
(382,351,l),
(381,77,o),
(361,8,o),
(236,8,cs),
(190,8,o),
(168,24,o),
(175,25,cs),
(194,28,o),
(209,39,o),
(220,56,cs),
(242,91,o),
(232,138,o),
(197,160,cs),
(161,182,o),
(115,172,o),
(93,136,cs),
(77,112,o),
(78,79,o),
(91,58,cs),
(103,38,o),
(137,-9,o),
(236,-9,cs),
(437,-9,o),
(540,141,o),
(540,387,cs),
(540,586,o),
(454,713,o),
(285,713,cs),
(146,713,o),
(37,642,o),
(37,487,cs),
(37,377,o),
(82,267,o),
(224,267,cs)
);
},
{
closed = 1;
nodes = (
(360,696,o),
(379,568,o),
(382,351,c),
(332,295,l),
(332,326,l),
(312,314,o),
(292,309,o),
(277,309,cs),
(222,309,o),
(184,376,o),
(184,507,cs),
(184,662,o),
(210,696,o),
(285,696,cs)
);
}
);
width = 577;
}
);
note = nine;
unicode = 57;
},
{
glyphname = colon;
kernLeft = colon;
layers = (
{
hints = (
{
horizontal = 1;
place = (-7, 172);
place = (-7, 172);
type = Stem;
},
{
horizontal = 1;
place = (299, 172);
place = (299, 172);
type = Stem;
},
{
place = (54, 172);
place = (54, 172);
type = Stem;
}
);
layerId = m01;
shapes = (
{
closed = 1;
nodes = (
(226,127,o),
(187,165,o),
(140,165,cs),
(92,165,o),
(54,127,o),
(54,79,cs),
(54,31,o),
(92,-7,o),
(140,-7,cs),
(187,-7,o),
(226,31,o),
(226,79,cs)
);
},
{
closed = 1;
nodes = (
(226,432,o),
(187,471,o),
(140,471,cs),
(92,471,o),
(54,432,o),
(54,385,cs),
(54,338,o),
(92,299,o),
(140,299,cs),
(187,299,o),
(226,338,o),
(226,385,cs)
);
}
);
width = 278;
}
);
note = colon;
unicode = 58;
},
{
glyphname = semicolon;
kernLeft = semicolon;
layers = (
{
hints = (
{
horizontal = 1;
place = (-129, 21);
target = up;
type = BottomGhost;
},
{
horizontal = 1;
place = (299, 172);
place = (299, 172);
type = Stem;
},
{
place = (54, 172);
place = (54, 172);
type = Stem;
}
);
layerId = m01;
shapes = (
{
closed = 1;
nodes = (
(226,432,o),
(188,471,o),
(140,471,cs),
(92,471,o),
(54,432,o),
(54,385,cs),
(54,337,o),
(92,299,o),
(140,299,cs),
(188,299,o),
(226,337,o),
(226,385,cs)
);
},
{
closed = 1;
nodes = (
(170,-75,o),
(140,-104,o),
(94,-129,c),
(83,-115,l),
(145,-78,o),
(155,-9,o),
(139,-7,cs),
(119,-5,o),
(99,1,o),
(83,17,cs),
(50,48,o),
(50,101,o),
(82,134,cs),
(114,166,o),
(167,166,o),
(199,134,cs),
(249,84,o),
(216,-5,o),
(184,-53,cs)
);
}
);
width = 278;
}
);
note = semicolon;
unicode = 59;
},
{
glyphname = less;
layers = (
{
hints = (
{
horizontal = 1;
place = (-16, 21);
target = up;
type = BottomGhost;
},
{
horizontal = 1;
place = (547, -20);
target = down;
type = TopGhost;
}
);
layerId = m01;
shapes = (
{
closed = 1;
nodes = (
(195,266,l),
(553,453,l),
(553,547,l),
(46,287,l),
(46,244,l),
(553,-16,l),
(553,77,l)
);
}
);
width = 600;
}
);
note = less;
unicode = 60;
},
{
glyphname = equal;
layers = (
{
hints = (
{
horizontal = 1;
place = (114, 80);
place = (114, 80);
type = Stem;
},
{
horizontal = 1;
place = (339, 80);
place = (339, 80);
type = Stem;
}
);
layerId = m01;
shapes = (
{
closed = 1;
nodes = (
(567,339,l),
(567,419,l),
(56,419,l),
(56,339,l)
);
},
{
closed = 1;
nodes = (
(567,114,l),
(567,194,l),
(56,194,l),
(56,114,l)
);
}
);
width = 613;
}
);
note = equal;
unicode = 61;
},
{
glyphname = greater;
layers = (
{
hints = (
{
horizontal = 1;
place = (-16, 21);
target = up;
type = BottomGhost;
},
{
horizontal = 1;
place = (547, -20);
target = down;
type = TopGhost;
}
);
layerId = m01;
shapes = (
{
closed = 1;
nodes = (
(47,77,l),
(47,-16,l),
(554,244,l),
(554,287,l),
(47,547,l),
(47,453,l),
(405,266,l)
);
}
);
width = 600;
}
);
note = greater;
unicode = 62;
},
{
glyphname = question;
layers = (
{
hints = (
{
horizontal = 1;
place = (-5, 169);
place = (-5, 169);
type = Stem;
},
{
place = (195, 169);
place = (195, 169);
type = Stem;
},
{
place = (361, 145);
place = (361, 145);
type = Stem;
}
);
layerId = m01;
shapes = (
{
closed = 1;
nodes = (
(232,164,o),
(195,127,o),
(195,80,cs),
(195,33,o),
(232,-5,o),
(279,-5,cs),
(326,-5,o),
(364,33,o),
(364,80,cs),
(364,127,o),
(326,164,o),
(279,164,cs)
);
},
{
closed = 1;
nodes = (
(499,713,o),
(320,778,o),
(163,709,cs),
(114,687,o),
(88,644,o),
(82,618,cs),
(76,596,o),
(74,570,o),
(89,549,cs),
(111,518,o),
(154,509,o),
(184,530,cs),
(213,552,o),
(221,594,o),
(200,625,cs),
(189,640,o),
(176,649,o),
(158,652,cs),
(145,654,o),
(144,681,o),
(175,694,cs),
(258,726,o),
(352,688,o),
(361,573,cs),
(370,480,o),
(354,434,o),
(307,394,cs),
(243,341,o),
(248,274,o),
(254,235,c),
(280,239,l),
(275,299,o),
(308,343,o),
(362,357,cs),
(420,372,o),
(512,431,o),
(506,577,cs)
);
}
);
width = 593;
}
);
note = question;
unicode = 63;
},
{
glyphname = at;
layers = (
{
hints = (
{
horizontal = 1;
place = (-203, 38);
place = (-203, 38);
type = Stem;
},
{
horizontal = 1;
place = (-9, 44);
place = (-9, 44);
type = Stem;
},
{
horizontal = 1;
place = (377, 23);
place = (377, 23);
type = Stem;
},
{
horizontal = 1;
place = (556, 68);
place = (556, 68);
type = Stem;
}
);
layerId = m01;
shapes = (
{
closed = 1;
nodes = (
(291,633,o),
(46,460,o),
(38,184,cs),
(29,-136,o),
(271,-203,o),
(417,-203,cs),
(582,-203,o),
(651,-125,o),
(651,-125,c),
(641,-110,l),
(641,-110,o),
(560,-172,o),
(442,-165,cs),
(96,-136,o),
(160,210,o),
(160,210,c),
(183,376,o),
(305,573,o),
(538,556,cs),
(754,540,o),
(781,362,o),
(781,251,cs),
(781,100,o),
(684,35,o),
(642,35,cs),
(612,35,o),
(611,63,o),
(616,83,cs),
(623,119,o),
(672,382,o),
(672,382,c),
(574,384,l),
(574,384,o),
(572,374,o),
(569,358,c),
(568,359,o),
(548,400,o),
(489,400,cs),
(328,400,o),
(279,242,o),
(268,172,cs),
(258,101,o),
(277,-9,o),
(369,-9,cs),
(452,-9,o),
(499,43,o),
(509,56,c),
(504,27,o),
(525,-9,o),
(572,-9,cs),
(650,-9,o),
(820,15,o),
(839,246,cs),
(859,488,o),
(700,617,o),
(528,624,cs)
);
},
{
closed = 1;
nodes = (
(514,87,o),
(491,49,o),
(448,53,cs),
(407,56,o),
(360,101,o),
(382,211,cs),
(399,294,o),
(447,377,o),
(510,377,cs),
(569,377,o),
(550,264,o),
(547,248,cs),
(534,181,o),
(519,112,o),
(514,87,c)
);
}
);
width = 892;
}
);
note = at;
unicode = 64;
},
{
glyphname = A;
kernLeft = A;
kernRight = A;
lastChange = "2022-10-06 06:52:12 +0000";
layers = (
{
hints = (
{
horizontal = 1;
place = (0, 214);
place = (0, 214);
type = Stem;
},
{
horizontal = 1;
place = (704, -20);
target = down;
type = TopGhost;
},
{
horizontal = 1;
place = (197, -20);
target = down;
type = TopGhost;
}
);
layerId = m01;
shapes = (
{
closed = 1;
nodes = (
(610,90,o),
(578,169,o),
(385,634,c),
(353,704,l),
(339,704,l),
(166,248,l),
(68,11,o),
(43,19,o),
(17,17,c),
(17,0,l),
(263,0,l),
(263,17,l),
(105,9,o),
(167,197,o),
(167,197,c),
(404,197,l),
(434,124,l),
(434,124,o),
(486,17,o),
(408,17,c),
(408,0,l),
(694,0,l),
(694,17,l),
(668,19,o),
(644,10,o),
(610,90,c)
);
},
{
closed = 1;
nodes = (
(170,214,l),
(353,704,l),
(385,634,l),
(302,448,l),
(398,214,l)
);
}
);
width = 708;
}
);
note = A;
unicode = 65;
},
{
glyphname = B;
kernRight = B;
lastChange = "2022-10-05 15:34:02 +0000";
layers = (
{
hints = (
{
horizontal = 1;
place = (0, 21);
target = up;
type = BottomGhost;
},
{
horizontal = 1;
place = (361, -20);
target = down;
type = TopGhost;
},
{
horizontal = 1;
place = (704, -20);
target = down;
type = TopGhost;
},
{
place = (95, 146);
place = (95, 146);
type = Stem;
},
{
place = (410, 139);
place = (410, 139);
type = Stem;
},
{
place = (449, 147);
place = (449, 147);
type = Stem;
},
{
horizontal = 1;
place = (365, -20);
target = down;
type = TopGhost;
},
{
horizontal = 1;
place = (348, -20);
target = down;
type = TopGhost;
},
{
place = (449, 100);
place = (449, 100);
type = Stem;
}
);
layerId = m01;
shapes = (
{
closed = 1;
nodes = (
(390,361,o),
(549,385,o),
(549,534,cs),
(549,710,o),
(430,704,o),
(291,704,c),
(37,704,l),
(37,696,l),
(81,696,o),
(95,628,o),
(95,566,cs),
(95,137,ls),
(95,69,o),
(80,9,o),
(37,9,c),
(37,0,l),
(280,0,ls),
(453,0,o),
(596,4,o),
(596,179,cs),
(596,350,o),
(435,361,o),
(370,361,cs)
);
},
{
closed = 1;
nodes = (
(241,704,l),
(291,704,l),
(291,687,l),
(338,687,o),
(410,685,o),
(410,536,cs),
(410,388,o),
(334,365,o),
(280,365,cs),
(241,365,l),
(241,687,l)
);
},
{
closed = 1;
nodes = (
(241,17,l),
(241,348,l),
(280,348,ls),
(347,348,o),
(449,343,o),
(449,184,cs),
(449,15,o),
(367,17,o),
(280,17,cs)
);
}
);
width = 642;
}
);
note = B;
unicode = 66;
},
{
glyphname = C;
kernLeft = C;
kernRight = C;
lastChange = "2022-10-05 15:36:03 +0000";
layers = (
{
hints = (
{
horizontal = 1;
place = (-9, 21);
target = up;
type = BottomGhost;
},
{
horizontal = 1;
place = (210, -20);
target = down;
type = TopGhost;
},
{
horizontal = 1;
place = (713, -20);
target = down;
type = TopGhost;
},
{
place = (40, 180);
place = (40, 180);
type = Stem;
}
);
layerId = m01;
shapes = (
{
closed = 1;
nodes = (
(615,210,l),
(589,101,o),
(507,8,o),
(387,8,cs),
(279,8,o),
(220,77,o),
(220,352,cs),
(220,597,o),
(277,680,o),
(366,694,c),
(366,713,l),
(416,713,l),
(416,694,l),
(509,682,o),
(565,616,o),
(615,495,c),
(632,495,l),
(646,652,l),
(590,698,o),
(506,714,o),
(416,713,c),
(366,713,l),
(172,696,o),
(40,540,o),
(40,352,cs),
(40,153,o),
(173,-9,o),
(387,-9,cs),
(494,-9,o),
(572,4,o),
(646,53,c),
(632,210,l)
);
}
);
width = 687;
}
);
note = C;
unicode = 67;
},
{
glyphname = D;
kernRight = D;
lastChange = "2022-10-05 15:36:41 +0000";
layers = (
{
hints = (
{
horizontal = 1;
place = (0, 21);
target = up;
type = BottomGhost;
},
{
horizontal = 1;
place = (704, -20);
target = down;
type = TopGhost;
},
{
place = (112, 145);
place = (112, 145);
type = Stem;
},
{
place = (545, 175);
place = (545, 175);
type = Stem;
}
);
layerId = m01;
shapes = (
{
closed = 1;
nodes = (
(37,704,l),
(37,687,l),
(81,687,o),
(112,628,o),
(112,566,cs),
(112,137,ls),
(112,69,o),
(80,17,o),
(37,17,c),
(37,0,l),
(301,0,ls),
(500,0,o),
(720,57,o),
(720,349,cs),
(720,642,o),
(506,704,o),
(307,704,cs)
);
},
{
closed = 1;
nodes = (
(257,17,l),
(257,704,l),
(307,704,l),
(307,687,l),
(405,687,o),
(545,661,o),
(545,349,cs),
(545,38,o),
(399,17,o),
(301,17,cs)
);
}
);
width = 768;
}
);
note = D;
unicode = 68;
},
{
glyphname = E;
lastChange = "2022-10-05 15:37:24 +0000";
layers = (
{
hints = (
{
horizontal = 1;
place = (0, 21);
target = up;
type = BottomGhost;
},
{
horizontal = 1;
place = (218, -20);
target = down;
type = TopGhost;
},
{
horizontal = 1;
place = (243, -20);
target = down;
type = TopGhost;
},
{
horizontal = 1;
place = (347, -20);
target = down;
type = TopGhost;
},
{
horizontal = 1;
place = (468, -20);
target = down;
type = TopGhost;
},
{
horizontal = 1;
place = (704, -20);
target = down;
type = TopGhost;
},
{
place = (85, 145);
place = (85, 145);
type = Stem;
},
{
horizontal = 1;
place = (364, -20);
target = down;
type = TopGhost;
}
);
layerId = m01;
shapes = (
{
closed = 1;
nodes = (
(573,218,l),
(531,17,o),
(266,17,o),
(266,17,c),
(230,17,l),
(230,347,l),
(266,347,l),
(266,347,o),
(418,347,o),
(428,243,c),
(445,243,l),
(445,468,l),
(428,468,l),
(418,364,o),
(266,364,o),
(266,364,c),
(230,364,l),
(230,704,l),
(280,704,l),
(280,687,l),
(280,687,o),
(537,687,o),
(560,514,c),
(577,514,l),
(577,704,l),
(27,704,l),
(27,687,l),
(71,687,o),
(85,628,o),
(85,566,cs),
(85,137,ls),
(85,69,o),
(69,17,o),
(27,17,c),
(27,0,l),
(590,0,l),
(590,218,l)
);
}
);
width = 653;
}
);
note = E;
unicode = 69;
},
{
glyphname = F;
kernRight = F;
lastChange = "2022-10-05 15:37:56 +0000";
layers = (
{
hints = (
{
horizontal = 1;
place = (0, 21);
target = up;
type = BottomGhost;
},
{
horizontal = 1;
place = (243, -20);
target = down;
type = TopGhost;
},
{
horizontal = 1;
place = (346, -20);
target = down;
type = TopGhost;
},
{
horizontal = 1;
place = (468, -20);
target = down;
type = TopGhost;
},
{
horizontal = 1;
place = (704, -20);
target = down;
type = TopGhost;
},
{
place = (83, 145);
place = (83, 145);
type = Stem;
},
{
horizontal = 1;
place = (365, -20);
target = down;
type = TopGhost;
}
);
layerId = m01;
shapes = (
{
closed = 1;
nodes = (
(25,704,l),
(25,687,l),
(69,687,o),
(83,628,o),
(83,566,cs),
(83,137,ls),
(83,69,o),
(68,17,o),
(25,17,c),
(25,0,l),
(314,0,l),
(314,17,l),
(271,17,o),
(228,24,o),
(228,137,cs),
(228,346,l),
(263,346,l),
(263,346,o),
(417,350,o),
(435,243,c),
(452,243,l),
(452,468,l),
(435,468,l),
(417,361,o),
(263,365,o),
(263,365,c),
(228,365,l),
(228,704,l),
(278,704,l),
(278,687,l),
(278,687,o),
(534,696,o),
(569,514,c),
(586,514,l),
(586,704,l)
);
}
);
width = 602;
}
);
note = F;
unicode = 70;
},
{
glyphname = G;
kernLeft = G;
lastChange = "2022-10-05 15:39:15 +0000";
layers = (
{
hints = (
{
horizontal = 1;
place = (-9, 21);
target = up;
type = BottomGhost;
},
{
horizontal = 1;
place = (280, -20);
target = down;
type = TopGhost;
},
{
horizontal = 1;
place = (713, -20);
target = down;
type = TopGhost;
},
{
place = (39, 183);
place = (39, 183);
type = Stem;
},
{
place = (523, 128);
place = (523, 128);
type = Stem;
},
{
horizontal = 1;
place = (263, -20);
target = down;
type = TopGhost;
}
);
layerId = m01;
shapes = (
{
closed = 1;
nodes = (
(438,280,l),
(438,263,l),
(495,263,o),
(523,258,o),
(523,122,cs),
(523,25,o),
(507,8,o),
(390,8,cs),
(278,8,o),
(222,77,o),
(222,352,cs),
(222,601,o),
(269,681,o),
(362,694,c),
(362,713,l),
(412,713,l),
(412,695,l),
(514,688,o),
(577,633,o),
(604,489,c),
(638,489,l),
(645,660,l),
(588,697,o),
(505,711,o),
(412,713,c),
(362,713,l),
(164,698,o),
(39,541,o),
(39,352,cs),
(39,153,o),
(174,-9,o),
(390,-9,cs),
(497,-9,o),
(589,9,o),
(651,33,c),
(651,244,o),
(664,263,o),
(720,263,c),
(720,280,l)
);
}
);
width = 745;
}
);
note = G;
unicode = 71;
},
{
glyphname = H;
lastChange = "2022-10-05 15:40:48 +0000";
layers = (
{
hints = (
{
horizontal = 1;
place = (0, 21);
target = up;
type = BottomGhost;
},
{
horizontal = 1;
place = (327, 20);
place = (327, 20);
type = Stem;
},
{
horizontal = 1;
place = (704, -20);
target = down;
type = TopGhost;
},
{
place = (71, 140);
place = (71, 140);
type = Stem;
},
{
place = (453, 140);
place = (453, 140);
type = Stem;
}
);
layerId = m01;
shapes = (
{
closed = 1;
nodes = (
(637,704,l),
(429,704,l),
(429,687,l),
(457,678,o),
(453,638,o),
(453,561,cs),
(453,327,l),
(403,327,l),
(403,347,l),
(211,347,l),
(211,561,ls),
(211,638,o),
(207,678,o),
(235,687,c),
(235,704,l),
(26,704,l),
(26,687,l),
(74,678,o),
(71,638,o),
(71,561,cs),
(71,136,ls),
(71,54,o),
(79,31,o),
(26,17,c),
(26,0,l),
(235,0,l),
(235,17,l),
(207,27,o),
(211,54,o),
(211,136,cs),
(211,327,l),
(453,327,l),
(453,136,ls),
(453,54,o),
(456,27,o),
(429,17,c),
(429,0,l),
(637,0,l),
(637,17,l),
(585,31,o),
(593,54,o),
(593,136,cs),
(593,561,ls),
(593,638,o),
(590,678,o),
(637,687,c)
);
}
);
width = 658;
}
);
note = H;
unicode = 72;
},
{
glyphname = I;
lastChange = "2022-10-06 04:15:57 +0000";
layers = (
{
hints = (
{
horizontal = 1;
place = (0, 21);
target = up;
type = BottomGhost;
},
{
horizontal = 1;
place = (704, -20);
target = down;
type = TopGhost;
},
{
place = (124, 145);
place = (124, 145);
type = Stem;
}
);
layerId = m01;
shapes = (
{
closed = 1;
nodes = (
(190,704,l),
(39,704,l),
(39,687,l),
(68,687,o),
(95,676,o),
(110,651,c),
(149,704,l),
(190,704,l),
(123,611,l),
(124,598,l),
(124,121,ls),
(124,53,o),
(82,17,o),
(39,17,c),
(39,0,l),
(354,0,l),
(354,17,l),
(312,17,o),
(269,53,o),
(269,121,cs),
(269,598,ls),
(269,660,o),
(311,687,o),
(354,687,c),
(354,704,l)
);
}
);
width = 390;
}
);
note = I;
unicode = 73;
},
{
glyphname = J;
kernRight = J;
lastChange = "2022-10-06 04:18:18 +0000";
layers = (
{
hints = (
{
horizontal = 1;
place = (-167, 21);
target = up;
type = BottomGhost;
},
{
horizontal = 1;
place = (704, -20);
target = down;
type = TopGhost;
},
{
place = (168, 149);
place = (168, 149);
type = Stem;
}
);
layerId = m01;
shapes = (
{
closed = 1;
nodes = (
(86,687,l),
(122,687,o),
(142,682,o),
(153,661,c),
(181,704,l),
(232,704,l),
(166,605,l),
(168,574,o),
(168,531,o),
(168,473,cs),
(168,182,ls),
(168,-35,o),
(88,-119,o),
(2,-150,c),
(6,-167,l),
(169,-143,o),
(317,-59,o),
(317,182,cs),
(317,595,ls),
(317,659,o),
(359,687,o),
(404,687,c),
(404,704,l),
(86,704,l)
);
}
);
width = 443;
}
);
note = J;
unicode = 74;
},
{
glyphname = K;
kernRight = K;
layers = (
{
hints = (
{
horizontal = 1;
place = (0, 21);
target = up;
type = BottomGhost;
},
{
horizontal = 1;
place = (704, -20);
target = down;
type = TopGhost;
},
{
place = (105, 145);
place = (105, 145);
type = Stem;
}
);
layerId = m01;
shapes = (
{
closed = 1;
nodes = (
(34,704,l),
(34,687,l),
(77,687,o),
(105,660,o),
(105,598,cs),
(105,123,ls),
(105,55,o),
(76,17,o),
(34,17,c),
(34,0,l),
(325,0,l),
(325,17,l),
(282,17,o),
(250,55,o),
(250,123,cs),
(250,598,ls),
(250,671,o),
(292,687,o),
(336,687,c),
(336,704,l)
);
},
{
closed = 1;
nodes = (
(660,82,o),
(650,95,o),
(416,408,c),
(632,685,o),
(702,687,o),
(769,687,c),
(769,704,l),
(439,704,l),
(439,687,l),
(617,683,o),
(445,487,o),
(445,487,c),
(307,320,l),
(307,320,o),
(350,263,o),
(408,181,cs),
(513,29,o),
(537,0,o),
(643,0,cs),
(801,0,l),
(801,17,l),
(774,17,o),
(709,17,o),
(660,82,c)
);
}
);
width = 814;
}
);
note = K;
unicode = 75;
},
{
glyphname = L;
kernRight = L;
lastChange = "2022-10-05 15:47:18 +0000";
layers = (
{
hints = (
{
horizontal = 1;
place = (0, 21);
target = up;
type = BottomGhost;
},
{
horizontal = 1;
place = (217, -20);
target = down;
type = TopGhost;
},
{
horizontal = 1;
place = (704, -20);
target = down;
type = TopGhost;
},
{
place = (108, 145);
place = (108, 145);
type = Stem;
}
);
layerId = m01;
shapes = (
{
closed = 1;
nodes = (
(588,217,l),
(554,17,o),
(303,17,o),
(303,17,c),
(303,0,l),
(253,0,l),
(253,598,ls),
(253,670,o),
(303,687,o),
(346,687,c),
(346,704,l),
(29,704,l),
(29,687,l),
(72,687,o),
(108,659,o),
(108,598,cs),
(108,129,ls),
(108,61,o),
(80,17,o),
(37,17,c),
(37,0,l),
(605,0,l),
(605,217,l)
);
}
);
width = 667;
}
);
note = L;
unicode = 76;
},
{
glyphname = M;
lastChange = "2022-10-06 06:52:37 +0000";
layers = (
{
hints = (
{
horizontal = 1;
place = (0, 21);
target = up;
type = BottomGhost;
},
{
horizontal = 1;
place = (704, -20);
target = down;
type = TopGhost;
},
{
place = (740, 144);
place = (740, 144);
type = Stem;
},
{
horizontal = 1;
place = (-9, 21);
target = up;
type = BottomGhost;
}
);
layerId = m01;
shapes = (
{
closed = 1;
nodes = (
(884,599,ls),
(884,660,o),
(918,687,o),
(961,687,c),
(961,704,l),
(740,704,l),
(457,-9,l),
(423,62,l),
(506,261,l),
(299,704,l),
(47,704,l),
(47,687,l),
(72,685,o),
(122,685,o),
(160,618,c),
(160,253,l),
(160,253,o),
(160,17,o),
(10,17,c),
(10,0,l),
(313,0,l),
(313,17,l),
(175,17,o),
(177,253,o),
(177,253,c),
(177,591,l),
(423,62,l),
(457,-9,l),
(474,-9,l),
(740,657,l),
(740,121,ls),
(740,53,o),
(710,17,o),
(668,17,c),
(668,0,l),
(970,0,l),
(970,17,l),
(927,17,o),
(884,53,o),
(884,121,cs)
);
}
);
width = 988;
}
);
note = M;
unicode = 77;
},
{
glyphname = N;
kernRight = N;
lastChange = "2022-10-05 16:21:46 +0000";
layers = (
{
hints = (
{
horizontal = 1;
place = (0, 21);
target = up;
type = BottomGhost;
},
{
horizontal = 1;
place = (704, -20);
target = down;
type = TopGhost;
}
);
layerId = m01;
shapes = (
{
closed = 1;
nodes = (
(520,704,l),
(520,687,l),
(658,688,o),
(657,450,o),
(657,450,c),
(657,0,l),
(607,54,l),
(606,304,l),
(254,704,l),
(9,704,l),
(9,687,l),
(35,685,o),
(64,696,o),
(128,616,cs),
(167,567,l),
(167,255,l),
(167,255,o),
(168,17,o),
(17,17,c),
(17,0,l),
(321,0,l),
(321,17,l),
(183,17,o),
(184,255,o),
(184,255,c),
(184,549,l),
(607,54,l),
(657,0,l),
(674,0,l),
(674,450,l),
(674,450,o),
(672,688,o),
(823,687,c),
(823,704,l)
);
}
);
width = 840;
}
);
note = N;
unicode = 78;
},
{
glyphname = O;
kernLeft = O;
kernRight = O;
lastChange = "2022-10-05 16:23:08 +0000";
layers = (
{
hints = (
{
horizontal = 1;
place = (-9, 21);
target = up;
type = BottomGhost;
},
{
horizontal = 1;
place = (713, -20);
target = down;
type = TopGhost;
},
{
place = (41, 171);
place = (41, 171);
type = Stem;
},
{
place = (558, 173);
place = (558, 173);
type = Stem;
}
);
layerId = m01;
shapes = (
{
closed = 1;
nodes = (
(353,713,l),
(154,697,o),
(41,535,o),
(41,347,cs),
(41,148,o),
(166,-9,o),
(386,-9,cs),
(606,-9,o),
(731,148,o),
(731,347,cs),
(731,539,o),
(612,704,o),
(403,713,c)
);
},
{
closed = 1;
nodes = (
(267,8,o),
(212,72,o),
(212,347,cs),
(212,593,o),
(258,680,o),
(353,695,c),
(353,713,l),
(403,713,l),
(403,695,l),
(507,686,o),
(558,605,o),
(558,347,cs),
(558,72,o),
(504,8,o),
(386,8,cs)
);
}
);
width = 776;
}
);
note = O;
unicode = 79;
},
{
glyphname = P;
kernRight = P;
lastChange = "2022-10-05 16:23:50 +0000";
layers = (
{
hints = (
{
horizontal = 1;
place = (0, 21);
target = up;
type = BottomGhost;
},
{
horizontal = 1;
place = (300, -20);
target = down;
type = TopGhost;
},
{
horizontal = 1;
place = (704, -20);
target = down;
type = TopGhost;
},
{
place = (97, 145);
place = (97, 145);
type = Stem;
},
{
place = (454, 164);
place = (454, 164);
type = Stem;
},
{
horizontal = 1;
place = (317, -20);
target = down;
type = TopGhost;
}
);
layerId = m01;
shapes = (
{
closed = 1;
nodes = (
(278,300,ls),
(477,300,o),
(618,335,o),
(618,502,cs),
(618,669,o),
(491,704,o),
(292,704,c),
(25,704,l),
(25,687,l),
(69,687,o),
(97,634,o),
(97,572,cs),
(97,137,ls),
(97,69,o),
(73,17,o),
(31,17,c),
(31,0,l),
(360,0,l),
(360,17,l),
(317,17,o),
(242,24,o),
(242,137,cs),
(242,300,l)
);
},
{
closed = 1;
nodes = (
(242,704,l),
(292,704,l),
(292,687,l),
(390,687,o),
(454,680,o),
(454,502,cs),
(454,325,o),
(376,317,o),
(278,317,cs),
(242,317,l)
);
}
);
width = 651;
}
);
note = P;
unicode = 80;
},
{
glyphname = Q;
kernLeft = Q;
kernRight = Q;
lastChange = "2022-10-05 16:25:17 +0000";
layers = (
{
hints = (
{
horizontal = 1;
place = (-9, 21);
target = up;
type = BottomGhost;
},
{
horizontal = 1;
place = (713, -20);
target = down;
type = TopGhost;
},
{
place = (41, 171);
place = (41, 171);
type = Stem;
},
{
place = (558, 173);
place = (558, 173);
type = Stem;
}
);
layerId = m01;
shapes = (
{
closed = 1;
nodes = (
(694,-143,o),
(739,-103,o),
(759,-89,c),
(771,-102,l),
(664,-194,ls),
(587,-260,o),
(488,-233,o),
(324,-164,cs),
(238,-128,ls),
(161,-96,o),
(125,-132,o),
(104,-148,c),
(91,-135,l),
(271,17,o),
(444,-58,o),
(444,-58,c),
(615,-116,ls)
);
},
{
closed = 1;
nodes = (
(359,713,l),
(149,704,o),
(41,540,o),
(41,347,cs),
(41,148,o),
(166,-9,o),
(386,-9,cs),
(606,-9,o),
(731,148,o),
(731,347,cs),
(731,540,o),
(620,705,o),
(409,713,c)
);
},
{
closed = 1;
nodes = (
(267,8,o),
(212,72,o),
(212,347,cs),
(212,608,o),
(252,688,o),
(359,695,c),
(359,713,l),
(409,713,l),
(409,695,l),
(515,688,o),
(558,607,o),
(558,347,cs),
(558,72,o),
(504,8,o),
(386,8,cs)
);
}
);
width = 771;
}
);
note = Q;
unicode = 81;
},
{
glyphname = R;
kernRight = R;
lastChange = "2022-10-05 16:28:06 +0000";
layers = (
{
hints = (
{
horizontal = 1;
place = (0, 21);
target = up;
type = BottomGhost;
},
{
horizontal = 1;
place = (321, -20);
target = down;
type = TopGhost;
},
{
horizontal = 1;
place = (704, -20);
target = down;
type = TopGhost;
},
{
place = (90, 145);
place = (90, 145);
type = Stem;
},
{
place = (442, 163);
place = (442, 163);
type = Stem;
},
{
horizontal = 1;
place = (338, -20);
target = down;
type = TopGhost;
}
);
layerId = m01;
shapes = (
{
closed = 1;
nodes = (
(555,295,o),
(475,339,o),
(410,332,cs),
(529,346,o),
(605,391,o),
(605,513,cs),
(605,680,o),
(484,704,o),
(285,704,c),
(18,704,l),
(18,687,l),
(62,687,o),
(90,660,o),
(90,598,cs),
(90,121,ls),
(90,53,o),
(61,17,o),
(18,17,c),
(18,0,l),
(309,0,l),
(309,17,l),
(267,17,o),
(235,53,o),
(235,121,cs),
(235,321,l),
(282,321,l),
(282,321,o),
(374,321,o),
(407,218,cs),
(477,1,o),
(451,0,o),
(629,0,cs),
(721,0,l),
(721,17,l),
(695,19,o),
(624,39,o),
(604,115,cs)
);
},
{
closed = 1;
nodes = (
(235,338,l),
(235,704,l),
(285,704,l),
(285,687,l),
(382,687,o),
(442,687,o),
(442,513,cs),
(442,339,o),
(363,338,o),
(266,338,cs)
);
}
);
width = 728;
}
);
note = R;
unicode = 82;
},
{
glyphname = S;
lastChange = "2022-10-05 16:29:58 +0000";
layers = (
{
hints = (
{
horizontal = 1;
place = (-9, 21);
target = up;
type = BottomGhost;
},
{
horizontal = 1;
place = (245, -20);
target = down;
type = TopGhost;
},
{
horizontal = 1;
place = (713, -20);
target = down;
type = TopGhost;
}
);
layerId = m01;
shapes = (
{
closed = 1;
nodes = (
(262,479,ls),
(146,556,o),
(167,671,o),
(251,693,c),
(251,713,l),
(301,713,l),
(301,693,l),
(438,676,o),
(501,546,o),
(519,497,c),
(536,497,l),
(536,665,l),
(536,665,o),
(452,708,o),
(301,713,c),
(251,713,l),
(117,704,o),
(72,637,o),
(72,637,c),
(-11,528,o),
(42,428,o),
(184,339,cs),
(338,242,l),
(460,153,o),
(427,8,o),
(320,8,cs),
(142,8,o),
(85,184,o),
(63,245,c),
(46,245,l),
(46,53,l),
(46,53,o),
(126,-9,o),
(320,-9,cs),
(481,-9,o),
(528,73,o),
(528,73,c),
(603,182,o),
(548,290,o),
(416,377,cs)
);
}
);
width = 616;
}
);
note = S;
unicode = 83;
},
{
glyphname = T;
kernLeft = T;
kernRight = T;
lastChange = "2022-10-05 16:31:09 +0000";
layers = (
{
hints = (
{
horizontal = 1;
place = (0, 21);
target = up;
type = BottomGhost;
},
{
horizontal = 1;
place = (704, -20);
target = down;
type = TopGhost;
},
{
place = (275, 145);
place = (275, 145);
type = Stem;
}
);
layerId = m01;
shapes = (
{
closed = 1;
nodes = (
(19,503,l),
(36,503,l),
(44,682,o),
(256,687,o),
(256,687,c),
(275,687,l),
(275,121,ls),
(275,53,o),
(232,17,o),
(190,17,c),
(190,0,l),
(505,0,l),
(505,17,l),
(463,17,o),
(420,53,o),
(420,121,cs),
(420,704,l),
(470,704,l),
(470,684,l),
(529,675,o),
(654,640,o),
(660,503,c),
(677,503,l),
(677,704,l),
(19,704,l)
);
}
);
width = 698;
}
);
note = T;
unicode = 84;
},
{
glyphname = U;
kernLeft = U;
kernRight = U;
lastChange = "2022-10-05 16:35:06 +0000";
layers = (
{
hints = (
{
horizontal = 1;
place = (-9, 60);
place = (-9, 60);
type = Stem;
},
{
horizontal = 1;
place = (704, -20);
target = down;
type = TopGhost;
},
{
place = (92, 145);
place = (92, 145);
type = Stem;
}
);
layerId = m01;
shapes = (
{
closed = 1;
nodes = (
(736,704,l),
(434,704,l),
(434,687,l),
(572,688,o),
(570,537,o),
(570,537,c),
(570,240,ls),
(570,114,o),
(481,51,o),
(405,51,cs),
(353,51,o),
(318,73,o),
(287,111,c),
(287,-3,l),
(237,11,l),
(237,599,ls),
(237,671,o),
(287,687,o),
(330,687,c),
(330,704,l),
(12,704,l),
(12,687,l),
(56,687,o),
(92,660,o),
(92,599,cs),
(92,246,ls),
(92,127,o),
(152,46,o),
(237,11,c),
(287,-3,l),
(306,-7,o),
(320,-9,o),
(340,-9,cs),
(428,-9,o),
(587,26,o),
(587,240,cs),
(587,537,l),
(587,537,o),
(585,688,o),
(736,687,c)
);
}
);
width = 752;
}
);
note = U;
unicode = 85;
},
{
glyphname = V;
kernLeft = V;
kernRight = V;
lastChange = "2022-10-06 06:53:48 +0000";
layers = (
{
hints = (
{
horizontal = 1;
place = (0, 21);
target = up;
type = BottomGhost;
},
{
horizontal = 1;
place = (704, -20);
target = down;
type = TopGhost;
}
);
layerId = m01;
shapes = (
{
closed = 1;
nodes = (
(471,704,l),
(471,687,l),
(636,687,o),
(545,453,o),
(545,453,c),
(364,0,l),
(333,73,l),
(410,267,l),
(287,571,l),
(287,571,o),
(249,687,o),
(331,687,c),
(331,704,l),
(13,704,l),
(13,687,l),
(39,687,o),
(75,686,o),
(108,606,c),
(108,606,o),
(119,587,o),
(333,73,c),
(364,0,l),
(381,0,l),
(561,448,ls),
(658,689,o),
(708,687,o),
(754,687,c),
(754,704,l)
);
}
);
width = 775;
}
);
note = V;
unicode = 86;
},
{
glyphname = W;
kernLeft = W;
kernRight = W;
lastChange = "2022-10-06 06:54:40 +0000";
layers = (
{
hints = (
{
horizontal = 1;
place = (0, 21);
target = up;
type = BottomGhost;
},
{
horizontal = 1;
place = (704, -20);
target = down;
type = TopGhost;
}
);
layerId = m01;
shapes = (
{
closed = 1;
nodes = (
(812,704,l),
(812,687,l),
(982,687,o),
(887,453,o),
(887,453,c),
(713,0,l),
(684,70,l),
(765,276,l),
(650,571,l),
(650,571,o),
(605,687,o),
(695,687,c),
(695,704,l),
(376,704,l),
(376,687,l),
(402,687,o),
(437,687,o),
(468,606,cs),
(525,457,l),
(357,0,l),
(324,80,l),
(400,290,l),
(288,571,l),
(288,571,o),
(245,687,o),
(333,687,c),
(333,704,l),
(14,704,l),
(14,687,l),
(40,687,o),
(73,686,o),
(106,606,cs),
(324,80,l),
(357,0,l),
(374,0,l),
(534,432,l),
(713,0,l),
(730,0,l),
(903,448,l),
(995,663,o),
(1061,687,o),
(1107,687,c),
(1107,704,l)
);
}
);
width = 1122;
}
);
note = W;
unicode = 87;
},
{
glyphname = X;
kernLeft = X;
lastChange = "2022-10-06 06:55:03 +0000";
layers = (
{
hints = (
{
horizontal = 1;
place = (0, 21);
target = up;
type = BottomGhost;
},
{
horizontal = 1;
place = (704, -20);
target = down;
type = TopGhost;
}
);
layerId = m01;
shapes = (
{
closed = 1;
nodes = (
(692,98,o),
(562,279,o),
(465,417,c),
(522,491,ls),
(674,688,o),
(769,687,o),
(795,687,c),
(795,704,l),
(467,704,l),
(467,687,l),
(638,687,o),
(509,507,o),
(509,507,c),
(454,434,l),
(360,300,l),
(307,371,l),
(398,502,l),
(352,572,ls),
(308,639,o),
(322,687,o),
(367,687,c),
(367,704,l),
(14,704,l),
(14,687,l),
(40,687,o),
(80,683,o),
(140,605,c),
(140,605,o),
(201,522,o),
(307,371,c),
(360,300,l),
(303,225,ls),
(144,15,o),
(78,17,o),
(54,17,c),
(54,0,l),
(354,0,l),
(354,17,l),
(187,17,o),
(317,209,o),
(317,209,c),
(372,283,l),
(483,129,l),
(483,129,o),
(549,35,o),
(481,17,c),
(481,0,l),
(811,0,l),
(811,17,l),
(785,17,o),
(747,26,o),
(692,98,c)
);
}
);
width = 830;
}
);
note = X;
unicode = 88;
},
{
glyphname = Y;
kernLeft = Y;
kernRight = Y;
lastChange = "2022-10-06 06:55:33 +0000";
layers = (
{
hints = (
{
horizontal = 1;
place = (0, 21);
target = up;
type = BottomGhost;
},
{
horizontal = 1;
place = (704, -20);
target = down;
type = TopGhost;
},
{
place = (311, 145);
place = (311, 145);
type = Stem;
}
);
layerId = m01;
shapes = (
{
closed = 1;
nodes = (
(458,704,l),
(458,687,l),
(602,687,o),
(513,483,o),
(513,483,c),
(478,411,l),
(488,398,l),
(456,327,l),
(305,574,ls),
(235,689,o),
(307,688,o),
(328,688,c),
(328,704,l),
(9,704,l),
(9,688,l),
(34,688,o),
(72,685,o),
(116,609,c),
(116,609,o),
(164,536,o),
(311,276,c),
(311,121,ls),
(311,53,o),
(268,17,o),
(226,17,c),
(226,0,l),
(541,0,l),
(541,17,l),
(499,17,o),
(456,53,o),
(456,121,cs),
(456,327,l),
(488,398,l),
(522,466,ls),
(632,685,o),
(732,687,o),
(758,687,c),
(758,704,l)
);
}
);
width = 771;
}
);
note = Y;
unicode = 89;
},
{
glyphname = Z;
lastChange = "2022-10-05 16:53:23 +0000";
layers = (
{
hints = (
{
horizontal = 1;
place = (0, 21);
target = up;
type = BottomGhost;
},
{
horizontal = 1;
place = (233, -20);
target = down;
type = TopGhost;
},
{
horizontal = 1;
place = (704, -20);
target = down;
type = TopGhost;
}
);
layerId = m01;
shapes = (
{
closed = 1;
nodes = (
(594,704,l),
(75,704,l),
(56,502,l),
(76,502,l),
(111,603,o),
(239,687,o),
(372,687,c),
(382,704,l),
(432,704,l),
(24,0,l),
(552,0,l),
(577,233,l),
(559,233,l),
(537,172,o),
(424,17,o),
(271,17,cs),
(224,17,l)
);
}
);
width = 617;
}
);
note = Z;
unicode = 90;
},
{
glyphname = bracketleft;
layers = (
{
hints = (
{
horizontal = 1;
place = (-146, 21);
target = up;
type = BottomGhost;
},
{
horizontal = 1;
place = (735, -20);
target = down;
type = TopGhost;
},
{
place = (113, 99);
place = (113, 99);
type = Stem;
}
);
layerId = m01;
shapes = (
{
closed = 1;
nodes = (
(113,735,l),
(113,-146,l),
(318,-146,l),
(318,-129,l),
(266,-129,o),
(212,-126,o),
(212,-53,cs),
(212,633,ls),
(212,717,o),
(264,718,o),
(318,718,c),
(318,735,l)
);
}
);
width = 333;
}
);
note = bracketleft;
unicode = 91;
},
{
glyphname = backslash;
layers = (
{
hints = (
{
horizontal = 1;
place = (-20, 21);
target = up;
type = BottomGhost;
},
{
horizontal = 1;
place = (735, -20);
target = down;
type = TopGhost;
}
);
layerId = m01;
shapes = (
{
closed = 1;
nodes = (
(325,-20,l),
(416,-20,l),
(105,735,l),
(14,735,l)
);
}
);
width = 434;
}
);
note = backslash;
unicode = 92;
},
{
glyphname = bracketright;
layers = (
{
hints = (
{
horizontal = 1;
place = (-146, 21);
target = up;
type = BottomGhost;
},
{
horizontal = 1;
place = (735, -20);
target = down;
type = TopGhost;
},
{
place = (117, 99);
place = (117, 99);
type = Stem;
}
);
layerId = m01;
shapes = (
{
closed = 1;
nodes = (
(11,735,l),
(11,718,l),
(65,718,o),
(117,717,o),
(117,633,cs),
(117,-53,ls),
(117,-126,o),
(63,-129,o),
(11,-129,c),
(11,-146,l),
(216,-146,l),
(216,735,l)
);
}
);
width = 333;
}
);
note = bracketright;
unicode = 93;
},
{
glyphname = asciicircum;
layers = (
{
hints = (
{
horizontal = 1;
place = (376, 21);
target = up;
type = BottomGhost;
},
{
horizontal = 1;
place = (704, -20);
target = down;
type = TopGhost;
}
);
layerId = m01;
shapes = (
{
closed = 1;
nodes = (
(295,704,l),
(272,704,l),
(89,376,l),
(134,376,l),
(283,532,l),
(435,376,l),
(480,376,l)
);
}
);
width = 575;
}
);
note = asciicircum;
unicode = 94;
},
{
glyphname = underscore;
layers = (
{
hints = (
{
horizontal = 1;
place = (-130, 61);
place = (-130, 61);
type = Stem;
}
);
layerId = m01;
shapes = (
{
closed = 1;
nodes = (
(0,-69,l),
(0,-130,l),
(560,-130,l),
(560,-69,l)
);
}
);
width = 560;
}
);
note = underscore;
unicode = 95;
},
{
glyphname = grave;
layers = (
{
hints = (
{
horizontal = 1;
place = (557, 21);
target = up;
type = BottomGhost;
},
{
horizontal = 1;
place = (720, -20);
target = down;
type = TopGhost;
}
);
layerId = m01;
shapes = (
{
closed = 1;
nodes = (
(116,720,l),
(4,685,l),
(248,557,l),
(285,557,l)
);
}
);
width = 350;
}
);
note = grave;
unicode = 96;
},
{
glyphname = a;
kernLeft = a;
kernRight = a;
lastChange = "2022-10-05 16:57:28 +0000";
layers = (
{
hints = (
{
horizontal = 1;
place = (-9, 61);
place = (-9, 61);
type = Stem;
},
{
horizontal = 1;
place = (471, -20);
target = down;
type = TopGhost;
},
{
place = (41, 128);
place = (41, 128);
type = Stem;
},
{
place = (300, 126);
place = (300, 126);
type = Stem;
}
);
layerId = m01;
shapes = (
{
closed = 1;
nodes = (
(291,79,o),
(268,52,o),
(234,52,cs),
(169,52,o),
(169,118,o),
(169,118,c),
(169,158,o),
(200,199,o),
(257,224,c),
(258,246,l),
(300,256,l),
(300,274,o),
(300,105,o),
(300,103,c)
);
},
{
closed = 1;
nodes = (
(425,52,o),
(426,122,o),
(426,122,c),
(426,271,ls),
(426,389,o),
(390,471,o),
(259,471,c),
(259,471,o),
(207,475,o),
(162,451,cs),
(107,422,o),
(94,395,o),
(84,378,cs),
(74,361,o),
(75,337,o),
(87,318,cs),
(105,292,o),
(140,286,o),
(166,303,cs),
(192,321,o),
(199,356,o),
(181,382,cs),
(172,395,o),
(159,402,o),
(144,404,cs),
(137,405,o),
(141,422,o),
(173,438,cs),
(242,474,o),
(300,422,o),
(300,318,cs),
(300,256,l),
(258,246,l),
(119,212,o),
(41,190,o),
(41,93,cs),
(41,-9,o),
(156,-9,o),
(156,-9,c),
(227,-9,o),
(286,28,o),
(301,72,c),
(312,-9,o),
(401,-9,o),
(401,-9,c),
(464,-9,o),
(510,30,o),
(518,62,c),
(501,69,l),
(495,52,o),
(474,52,o),
(474,52,c)
);
}
);
width = 527;
}
);
note = a;
unicode = 97;
},
{
glyphname = b;
kernRight = b;
lastChange = "2022-10-05 17:04:09 +0000";
layers = (
{
hints = (
{
horizontal = 1;
place = (-9, 21);
target = up;
type = BottomGhost;
},
{
horizontal = 1;
place = (429, 42);
place = (429, 42);
type = Stem;
},
{
horizontal = 1;
place = (746, -20);
target = down;
type = TopGhost;
},
{
place = (65, 124);
place = (65, 124);
type = Stem;
},
{
place = (412, 143);
place = (412, 143);
type = Stem;
}
);
layerId = m01;
shapes = (
{
closed = 1;
nodes = (
(251,8,o),
(189,49,o),
(189,175,cs),
(189,302,l),
(189,386,l),
(229,427,l),
(229,402,l),
(246,419,o),
(264,429,o),
(293,429,cs),
(375,429,o),
(412,377,o),
(412,217,cs),
(412,64,o),
(381,8,o),
(308,8,cs)
);
},
{
closed = 1;
nodes = (
(308,471,o),
(265,458,o),
(229,427,c),
(189,386,l),
(189,746,l),
(14,709,l),
(14,692,l),
(55,677,o),
(65,662,o),
(65,628,cs),
(65,5,ls),
(65,-11,o),
(127,11,o),
(163,42,c),
(196,9,o),
(249,-9,o),
(309,-9,cs),
(449,-9,o),
(555,64,o),
(555,225,cs),
(555,383,o),
(455,471,o),
(343,471,cs)
);
}
);
width = 593;
}
);
note = b;
unicode = 98;
},
{
glyphname = c;
kernLeft = c;
kernRight = c;
lastChange = "2022-10-05 17:06:15 +0000";
layers = (
{
hints = (
{
horizontal = 1;
place = (-9, 21);
target = up;
type = BottomGhost;
},
{
horizontal = 1;
place = (471, -20);
target = down;
type = TopGhost;
},
{
place = (45, 126);
place = (45, 126);
type = Stem;
}
);
layerId = m01;
shapes = (
{
closed = 1;
nodes = (
(450,129,l),
(427,96,o),
(348,69,o),
(298,80,cs),
(229,95,o),
(171,143,o),
(171,251,cs),
(171,393,o),
(228,439,o),
(271,450,c),
(271,471,l),
(311,471,l),
(311,454,l),
(346,452,o),
(365,437,o),
(357,433,cs),
(342,425,o),
(330,412,o),
(326,393,cs),
(316,358,o),
(337,321,o),
(373,312,cs),
(409,302,o),
(445,325,o),
(455,360,cs),
(462,384,o),
(452,412,o),
(435,427,cs),
(419,441,o),
(378,469,o),
(311,471,c),
(271,471,l),
(117,459,o),
(45,342,o),
(45,233,cs),
(45,116,o),
(134,-9,o),
(265,-9,cs),
(390,-9,o),
(450,69,o),
(464,120,c)
);
}
);
width = 500;
}
);
note = c;
unicode = 99;
},
{
glyphname = d;
kernLeft = d;
kernRight = d;
lastChange = "2022-10-05 17:14:52 +0000";
layers = (
{
hints = (
{
horizontal = 1;
place = (-9, 35);
place = (-9, 35);
type = Stem;
},
{
horizontal = 1;
place = (471, -20);
target = down;
type = TopGhost;
},
{
horizontal = 1;
place = (746, -20);
target = down;
type = TopGhost;
},
{
place = (33, 142);
place = (33, 142);
type = Stem;
},
{
place = (399, 124);
place = (399, 124);
type = Stem;
}
);
layerId = m01;
shapes = (
{
closed = 1;
nodes = (
(399,146,ls),
(399,76,o),
(357,26,o),
(289,26,cs),
(208,26,o),
(175,86,o),
(175,247,cs),
(175,399,o),
(207,454,o),
(280,454,cs),
(307,454,o),
(335,445,o),
(358,421,c),
(358,458,l),
(399,441,l)
);
},
{
closed = 1;
nodes = (
(523,746,l),
(348,709,l),
(348,692,l),
(389,677,o),
(399,667,o),
(399,632,cs),
(399,441,l),
(358,458,l),
(335,465,o),
(306,471,o),
(279,471,cs),
(139,471,o),
(33,399,o),
(33,238,cs),
(33,80,o),
(133,-9,o),
(246,-9,cs),
(293,-9,o),
(367,13,o),
(399,72,c),
(399,10,l),
(399,10,o),
(399,-12,o),
(427,-8,cs),
(574,14,l),
(574,31,l),
(533,36,o),
(523,48,o),
(523,97,cs)
);
}
);
width = 589;
}
);
note = d;
unicode = 100;
},
{
glyphname = e;
kernLeft = e;
kernRight = e;
lastChange = "2022-10-05 17:15:24 +0000";
layers = (
{
hints = (
{
horizontal = 1;
place = (-9, 21);
target = up;
type = BottomGhost;
},
{
horizontal = 1;
place = (257, -20);
target = down;
type = TopGhost;
},
{
place = (36, 129);
place = (36, 129);
type = Stem;
},
{
place = (361, 122);
place = (361, 122);
type = Stem;
},
{
horizontal = 1;
place = (240, 231);
place = (240, 231);
type = Stem;
}
);
layerId = m01;
shapes = (
{
closed = 1;
nodes = (
(205,257,l),
(205,240,l),
(165,240,l),
(165,257,l),
(165,353,o),
(206,454,o),
(265,454,cs),
(320,454,o),
(361,383,o),
(361,257,c)
);
},
{
closed = 1;
nodes = (
(132,471,o),
(36,370,o),
(36,229,cs),
(36,112,o),
(126,-9,o),
(257,-9,cs),
(391,-9,o),
(450,70,o),
(466,122,c),
(449,131,l),
(424,84,o),
(344,64,o),
(290,76,cs),
(223,91,o),
(173,142,o),
(165,240,c),
(483,240,l),
(483,396,o),
(415,471,o),
(270,471,cs)
);
}
);
width = 524;
}
);
note = e;
unicode = 101;
},
{
glyphname = f;
kernRight = f;
lastChange = "2022-10-05 17:19:32 +0000";
layers = (
{
hints = (
{
horizontal = 1;
place = (0, 21);
target = up;
type = BottomGhost;
},
{
horizontal = 1;
place = (462, -20);
target = down;
type = TopGhost;
},
{
horizontal = 1;
place = (745, -20);
target = down;
type = TopGhost;
},
{
place = (77, 125);
place = (77, 125);
type = Stem;
}
);
layerId = m01;
shapes = (
{
closed = 1;
nodes = (
(359,712,o),
(318,745,o),
(263,745,cs),
(142,745,o),
(77,693,o),
(77,462,c),
(12,462,l),
(13,445,l),
(77,445,l),
(77,113,ls),
(77,62,o),
(76,28,o),
(38,17,c),
(38,0,l),
(243,0,l),
(243,17,l),
(207,27,o),
(202,58,o),
(202,113,cs),
(202,462,l),
(242,462,l),
(242,445,l),
(306,445,l),
(309,462,l),
(202,462,l),
(202,669,o),
(226,728,o),
(265,728,cs),
(302,728,o),
(317,709,o),
(302,707,cs),
(287,704,o),
(274,695,o),
(267,680,cs),
(252,650,o),
(264,615,o),
(294,600,cs),
(323,586,o),
(359,598,o),
(374,627,cs),
(384,648,o),
(381,677,o),
(369,695,cs)
);
}
);
width = 334;
}
);
note = f;
unicode = 102;
},
{
glyphname = g;
lastChange = "2022-10-05 17:24:41 +0000";
layers = (
{
hints = (
{
horizontal = 1;
place = (-42, 134);
place = (-42, 134);
type = Stem;
},
{
horizontal = 1;
place = (171, -20);
target = down;
type = TopGhost;
},
{
horizontal = 1;
place = (471, -20);
target = down;
type = TopGhost;
},
{
place = (69, 117);
place = (69, 117);
type = Stem;
},
{
place = (337, 117);
place = (337, 117);
type = Stem;
},
{
horizontal = 1;
place = (-42, 230);
place = (-42, 230);
type = Stem;
}
);
layerId = m01;
shapes = (
{
closed = 1;
nodes = (
(541,484,o),
(518,490,o),
(499,486,cs),
(476,482,o),
(434,469,o),
(405,427,c),
(375,452,o),
(332,469,o),
(273,471,c),
(244,471,l),
(133,464,o),
(69,398,o),
(69,321,cs),
(69,268,o),
(101,216,o),
(151,194,c),
(54,157,o),
(55,66,o),
(55,66,c),
(55,21,o),
(80,-5,o),
(107,-18,c),
(48,-44,o),
(-13,-124,o),
(22,-197,cs),
(61,-279,o),
(243,-288,o),
(383,-210,cs),
(488,-151,o),
(493,-67,o),
(493,-67,c),
(512,84,o),
(396,92,o),
(327,92,cs),
(187,92,ls),
(81,92,o),
(142,174,o),
(169,186,c),
(193,176,o),
(222,171,o),
(261,171,cs),
(384,171,o),
(454,240,o),
(454,321,cs),
(454,357,o),
(442,390,o),
(418,415,c),
(435,436,o),
(459,441,o),
(458,433,cs),
(456,419,o),
(460,405,o),
(470,393,cs),
(491,370,o),
(527,367,o),
(550,388,cs),
(574,409,o),
(576,445,o),
(555,468,cs)
);
},
{
closed = 1;
nodes = (
(350,-42,ls),
(423,-42,o),
(432,-95,o),
(432,-95,c),
(432,-95,o),
(440,-155,o),
(374,-195,cs),
(280,-250,o),
(159,-226,o),
(104,-160,c),
(104,-160,o),
(15,-70,o),
(107,-18,c),
(146,-34,o),
(203,-42,o),
(214,-42,cs)
);
},
{
closed = 1;
nodes = (
(217,188,o),
(186,209,o),
(186,321,cs),
(186,419,o),
(205,448,o),
(244,453,c),
(244,471,l),
(273,471,l),
(273,453,l),
(309,449,o),
(337,421,o),
(337,321,cs),
(337,209,o),
(307,188,o),
(261,188,cs)
);
}
);
width = 572;
}
);
note = g;
unicode = 103;
},
{
glyphname = h;
kernLeft = h;
kernRight = h;
lastChange = "2022-10-05 17:30:40 +0000";
layers = (
{
hints = (
{
horizontal = 1;
place = (0, 21);
target = up;
type = BottomGhost;
},
{
horizontal = 1;
place = (396, 75);
place = (396, 75);
type = Stem;
},
{
horizontal = 1;
place = (746, -20);
target = down;
type = TopGhost;
},
{
place = (66, 125);
place = (66, 125);
type = Stem;
},
{
place = (358, 124);
place = (358, 124);
type = Stem;
}
);
layerId = m01;
shapes = (
{
closed = 1;
nodes = (
(482,316,ls),
(482,436,o),
(436,471,o),
(356,471,cs),
(314,471,o),
(266,446,o),
(231,413,c),
(191,363,l),
(191,746,l),
(16,704,l),
(16,687,l),
(56,672,o),
(66,662,o),
(66,627,cs),
(66,123,ls),
(66,72,o),
(64,29,o),
(26,18,c),
(26,0,l),
(232,0,l),
(232,18,l),
(196,27,o),
(191,68,o),
(191,123,cs),
(191,363,l),
(231,413,l),
(231,379,l),
(246,390,o),
(259,396,o),
(274,396,cs),
(332,396,o),
(358,369,o),
(358,312,cs),
(358,123,ls),
(358,72,o),
(356,28,o),
(318,17,c),
(318,0,l),
(523,0,l),
(523,17,l),
(488,26,o),
(482,68,o),
(482,123,cs)
);
}
);
width = 539;
}
);
note = h;
unicode = 104;
},
{
glyphname = i;
kernLeft = i;
kernRight = i;
layers = (
{
hints = (
{
horizontal = 1;
place = (0, 21);
target = up;
type = BottomGhost;
},
{
horizontal = 1;
place = (551, 136);
place = (551, 136);
type = Stem;
},
{
place = (63, 140);
place = (63, 140);
type = Stem;
}
);
layerId = m01;
shapes = (
{
closed = 1;
nodes = (
(200,657,o),
(169,687,o),
(131,687,cs),
(93,687,o),
(63,657,o),
(63,619,cs),
(63,581,o),
(93,551,o),
(131,551,cs),
(169,551,o),
(200,581,o),
(200,619,cs)
);
},
{
closed = 1;
nodes = (
(203,471,l),
(28,431,l),
(28,414,l),
(69,392,o),
(79,378,o),
(79,344,cs),
(79,122,ls),
(79,71,o),
(77,29,o),
(39,17,c),
(39,0,l),
(244,0,l),
(244,17,l),
(208,27,o),
(203,66,o),
(203,122,cs)
);
}
);
width = 282;
}
);
note = i;
unicode = 105;
},
{
glyphname = j;
layers = (
{
hints = (
{
horizontal = 1;
place = (-228, 21);
target = up;
type = BottomGhost;
},
{
horizontal = 1;
place = (551, 136);
place = (551, 136);
type = Stem;
},
{
place = (64, 139);
place = (64, 139);
type = Stem;
},
{
place = (79, 124);
place = (79, 124);
type = Stem;
}
);
layerId = m01;
shapes = (
{
closed = 1;
nodes = (
(79,27,l),
(79,27,o),
(79,-196,o),
(18,-211,c),
(18,-228,l),
(117,-203,o),
(203,-139,o),
(203,50,cs),
(203,471,l),
(29,431,l),
(29,414,l),
(70,392,o),
(79,374,o),
(79,340,cs)
);
},
{
closed = 1;
nodes = (
(201,657,o),
(170,687,o),
(132,687,cs),
(95,687,o),
(64,657,o),
(64,619,cs),
(64,581,o),
(95,551,o),
(132,551,cs),
(170,551,o),
(201,581,o),
(201,619,cs)
);
}
);
width = 281;
}
);
note = j;
unicode = 106;
},
{
glyphname = k;
kernLeft = k;
kernRight = k;
layers = (
{
hints = (
{
horizontal = 1;
place = (0, 21);
target = up;
type = BottomGhost;
},
{
horizontal = 1;
place = (462, -20);
target = down;
type = TopGhost;
},
{
horizontal = 1;
place = (746, -20);
target = down;
type = TopGhost;
},
{
place = (60, 125);
place = (60, 125);
type = Stem;
}
);
layerId = m01;
shapes = (
{
closed = 1;
nodes = (
(185,746,l),
(10,709,l),
(10,692,l),
(50,677,o),
(60,662,o),
(60,627,cs),
(60,121,ls),
(60,70,o),
(58,28,o),
(20,17,c),
(20,0,l),
(226,0,l),
(226,17,l),
(190,26,o),
(185,66,o),
(185,121,cs)
);
},
{
closed = 1;
nodes = (
(452,67,o),
(450,67,o),
(302,276,c),
(435,440,o),
(537,443,o),
(555,445,c),
(555,462,l),
(312,462,l),
(312,445,l),
(442,449,o),
(299,304,o),
(299,304,c),
(205,202,l),
(205,202,o),
(231,162,o),
(261,118,cs),
(328,18,o),
(337,0,o),
(406,0,cs),
(547,0,l),
(547,17,l),
(530,18,o),
(485,21,o),
(452,67,c)
);
}
);
width = 559;
}
);
note = k;
unicode = 107;
},
{
glyphname = l;
kernRight = l;
layers = (
{
hints = (
{
horizontal = 1;
place = (0, 21);
target = up;
type = BottomGhost;
},
{
horizontal = 1;
place = (746, -20);
target = down;
type = TopGhost;
},
{
place = (73, 125);
place = (73, 125);
type = Stem;
}
);
layerId = m01;
shapes = (
{
closed = 1;
nodes = (
(198,746,l),
(23,709,l),
(23,692,l),
(63,677,o),
(73,662,o),
(73,627,cs),
(73,121,ls),
(73,70,o),
(71,28,o),
(33,17,c),
(33,0,l),
(238,0,l),
(238,17,l),
(203,26,o),
(198,66,o),
(198,121,cs)
);
}
);
width = 265;
}
);
note = l;
unicode = 108;
},
{
glyphname = m;
kernRight = m;
lastChange = "2022-10-05 17:57:41 +0000";
layers = (
{
hints = (
{
horizontal = 1;
place = (0, 21);
target = up;
type = BottomGhost;
},
{
horizontal = 1;
place = (399, 72);
place = (399, 72);
type = Stem;
},
{
place = (60, 125);
place = (60, 125);
type = Stem;
},
{
place = (337, 125);
place = (337, 125);
type = Stem;
},
{
place = (614, 125);
place = (614, 125);
type = Stem;
}
);
layerId = m01;
shapes = (
{
closed = 1;
nodes = (
(744,26,o),
(739,67,o),
(739,122,cs),
(739,319,ls),
(739,440,o),
(691,471,o),
(613,471,cs),
(572,471,o),
(528,452,o),
(497,421,c),
(461,365,l),
(449,439,o),
(406,471,o),
(336,471,cs),
(294,471,o),
(255,451,o),
(225,420,c),
(185,368,l),
(185,471,l),
(10,431,l),
(10,414,l),
(51,392,o),
(60,374,o),
(60,339,cs),
(60,120,ls),
(60,69,o),
(59,28,o),
(21,17,c),
(21,0,l),
(226,0,l),
(226,17,l),
(191,27,o),
(185,65,o),
(185,120,cs),
(185,368,l),
(225,420,l),
(225,382,l),
(238,392,o),
(251,399,o),
(265,399,cs),
(310,399,o),
(337,372,o),
(337,316,cs),
(337,122,ls),
(337,71,o),
(335,28,o),
(297,17,c),
(297,0,l),
(503,0,l),
(503,17,l),
(467,26,o),
(462,67,o),
(462,122,cs),
(462,314,l),
(461,365,l),
(497,421,l),
(497,382,l),
(510,392,o),
(527,399,o),
(541,399,cs),
(586,399,o),
(614,372,o),
(614,316,cs),
(614,122,ls),
(614,71,o),
(612,28,o),
(574,17,c),
(574,0,l),
(780,0,l),
(780,17,l)
);
}
);
width = 795;
}
);
note = m;
unicode = 109;
},
{
glyphname = n;
kernRight = n;
lastChange = "2022-10-05 17:58:27 +0000";
layers = (
{
hints = (
{
horizontal = 1;
place = (0, 21);
target = up;
type = BottomGhost;
},
{
horizontal = 1;
place = (399, 72);
place = (399, 72);
type = Stem;
},
{
place = (60, 125);
place = (60, 125);
type = Stem;
},
{
place = (351, 125);
place = (351, 125);
type = Stem;
}
);
layerId = m01;
shapes = (
{
closed = 1;
nodes = (
(476,319,ls),
(476,440,o),
(428,471,o),
(350,471,cs),
(309,471,o),
(259,452,o),
(225,421,c),
(185,364,l),
(185,471,l),
(10,431,l),
(10,414,l),
(51,392,o),
(60,381,o),
(60,346,cs),
(60,120,ls),
(60,69,o),
(59,28,o),
(21,17,c),
(21,0,l),
(226,0,l),
(226,17,l),
(191,27,o),
(185,65,o),
(185,120,cs),
(185,364,l),
(225,421,l),
(225,385,l),
(238,394,o),
(256,399,o),
(270,399,cs),
(320,399,o),
(351,364,o),
(351,316,cs),
(351,122,ls),
(351,71,o),
(349,28,o),
(311,17,c),
(311,0,l),
(517,0,l),
(517,17,l),
(481,26,o),
(476,67,o),
(476,122,cs)
);
}
);
width = 539;
}
);
note = n;
unicode = 110;
},
{
glyphname = o;
kernLeft = o;
kernRight = o;
lastChange = "2022-10-05 18:02:28 +0000";
layers = (
{
hints = (
{
horizontal = 1;
place = (-9, 21);
target = up;
type = BottomGhost;
},
{
horizontal = 1;
place = (471, -20);
target = down;
type = TopGhost;
},
{
place = (41, 147);
place = (41, 147);
type = Stem;
},
{
place = (369, 148);
place = (369, 148);
type = Stem;
}
);
layerId = m01;
shapes = (
{
closed = 1;
nodes = (
(260,471,l),
(120,463,o),
(41,357,o),
(41,231,cs),
(41,100,o),
(127,-9,o),
(279,-9,cs),
(432,-9,o),
(517,100,o),
(517,231,cs),
(517,359,o),
(444,464,o),
(300,471,c)
);
},
{
closed = 1;
nodes = (
(207,8,o),
(188,50,o),
(188,231,cs),
(188,396,o),
(203,445,o),
(260,453,c),
(260,471,l),
(300,471,l),
(300,453,l),
(360,447,o),
(369,399,o),
(369,231,cs),
(369,50,o),
(351,8,o),
(279,8,cs)
);
}
);
width = 556;
}
);
note = o;
unicode = 111;
},
{
glyphname = p;
kernLeft = p;
kernRight = p;
lastChange = "2022-10-05 18:07:52 +0000";
layers = (
{
hints = (
{
horizontal = 1;
place = (-265, 21);
target = up;
type = BottomGhost;
},
{
horizontal = 1;
place = (-9, 21);
target = up;
type = BottomGhost;
},
{
horizontal = 1;
place = (434, 37);
place = (434, 37);
type = Stem;
},
{
place = (67, 124);
place = (67, 124);
type = Stem;
},
{
place = (413, 143);
place = (413, 143);
type = Stem;
}
);
layerId = m01;
shapes = (
{
closed = 1;
nodes = (
(257,8,o),
(200,41,o),
(191,143,c),
(191,390,l),
(231,434,l),
(231,411,l),
(247,425,o),
(269,434,o),
(294,434,cs),
(375,434,o),
(413,379,o),
(413,218,cs),
(413,66,o),
(381,8,o),
(308,8,cs)
);
},
{
closed = 1;
nodes = (
(310,471,o),
(267,460,o),
(231,434,c),
(191,390,l),
(191,471,l),
(17,431,l),
(17,414,l),
(57,399,o),
(67,392,o),
(67,358,cs),
(67,-151,ls),
(67,-202,o),
(65,-237,o),
(27,-248,c),
(27,-265,l),
(232,-265,l),
(232,-248,l),
(197,-239,o),
(191,-207,o),
(191,-151,cs),
(191,22,l),
(222,2,o),
(264,-9,o),
(310,-9,cs),
(450,-9,o),
(556,66,o),
(556,227,cs),
(556,384,o),
(456,471,o),
(343,471,cs)
);
}
);
width = 603;
}
);
note = p;
unicode = 112;
},
{
glyphname = q;
kernLeft = q;
lastChange = "2022-10-05 18:09:50 +0000";
layers = (
{
hints = (
{
horizontal = 1;
place = (-265, 21);
target = up;
type = BottomGhost;
},
{
horizontal = 1;
place = (-9, 25);
place = (-9, 25);
type = Stem;
},
{
horizontal = 1;
place = (471, -20);
target = down;
type = TopGhost;
},
{
place = (53, 131);
place = (53, 131);
type = Stem;
},
{
place = (397, 125);
place = (397, 125);
type = Stem;
}
);
layerId = m01;
shapes = (
{
closed = 1;
nodes = (
(397,42,l),
(357,10,l),
(357,30,l),
(342,21,o),
(318,16,o),
(297,16,cs),
(216,16,o),
(184,87,o),
(184,248,cs),
(184,400,o),
(215,454,o),
(288,454,cs),
(345,454,o),
(397,413,o),
(397,287,cs)
);
},
{
closed = 1;
nodes = (
(522,462,ls),
(522,477,o),
(466,464,o),
(428,434,c),
(396,458,o),
(350,471,o),
(299,471,cs),
(159,471,o),
(53,400,o),
(53,239,cs),
(53,81,o),
(153,-9,o),
(266,-9,cs),
(290,-9,o),
(327,-3,o),
(357,10,c),
(397,42,l),
(397,-152,ls),
(397,-203,o),
(395,-237,o),
(358,-248,c),
(358,-265,l),
(563,-265,l),
(563,-248,l),
(527,-239,o),
(522,-207,o),
(522,-152,cs)
);
}
);
width = 591;
}
);
note = q;
unicode = 113;
},
{
glyphname = r;
kernLeft = r;
kernRight = r;
lastChange = "2022-10-05 18:10:50 +0000";
layers = (
{
hints = (
{
horizontal = 1;
place = (0, 21);
target = up;
type = BottomGhost;
},
{
place = (64, 126);
place = (64, 126);
type = Stem;
}
);
layerId = m01;
shapes = (
{
closed = 1;
nodes = (
(289,458,o),
(267,455,o),
(230,410,c),
(190,358,l),
(190,471,l),
(14,431,l),
(14,414,l),
(55,393,o),
(64,378,o),
(64,344,cs),
(64,122,ls),
(64,70,o),
(63,29,o),
(24,17,c),
(24,0,l),
(231,0,l),
(231,17,l),
(195,27,o),
(190,66,o),
(190,122,cs),
(190,358,l),
(230,410,l),
(230,378,l),
(255,401,o),
(268,397,o),
(268,389,cs),
(268,371,o),
(276,354,o),
(291,340,cs),
(323,313,o),
(369,317,o),
(396,348,cs),
(423,378,o),
(420,426,o),
(389,453,cs),
(367,471,o),
(329,475,o),
(308,466,cs)
);
}
);
width = 425;
}
);
note = r;
unicode = 114;
},
{
glyphname = s;
kernLeft = s;
kernRight = s;
lastChange = "2022-10-05 18:12:16 +0000";
layers = (
{
hints = (
{
horizontal = 1;
place = (-9, 21);
target = up;
type = BottomGhost;
},
{
horizontal = 1;
place = (163, -20);
target = down;
type = TopGhost;
},
{
horizontal = 1;
place = (329, -20);
target = down;
type = TopGhost;
},
{
horizontal = 1;
place = (471, -20);
target = down;
type = TopGhost;
}
);
layerId = m01;
shapes = (
{
closed = 1;
nodes = (
(202,322,ls),
(125,370,o),
(135,438,o),
(185,452,c),
(185,471,l),
(225,471,l),
(225,454,l),
(319,447,o),
(344,363,o),
(356,329,c),
(373,329,l),
(373,441,l),
(373,441,o),
(331,469,o),
(225,471,c),
(185,471,l),
(100,465,o),
(70,421,o),
(70,421,c),
(15,349,o),
(41,268,o),
(138,209,cs),
(239,148,ls),
(317,101,o),
(303,8,o),
(232,8,cs),
(115,8,o),
(83,124,o),
(68,163,c),
(51,163,l),
(51,37,l),
(51,37,o),
(111,-9,o),
(232,-9,cs),
(334,-9,o),
(372,45,o),
(372,45,c),
(422,117,o),
(392,204,o),
(303,259,cs)
);
}
);
width = 444;
}
);
note = s;
unicode = 115;
},
{
glyphname = t;
kernLeft = t;
lastChange = "2022-10-05 18:13:42 +0000";
layers = (
{
hints = (
{
horizontal = 1;
place = (-9, 71);
place = (-9, 71);
type = Stem;
},
{
horizontal = 1;
place = (462, -20);
target = down;
type = TopGhost;
},
{
horizontal = 1;
place = (617, -20);
target = down;
type = TopGhost;
},
{
place = (70, 125);
place = (70, 125);
type = Stem;
}
);
layerId = m01;
shapes = (
{
closed = 1;
nodes = (
(219,62,o),
(195,91,o),
(195,147,cs),
(195,462,l),
(235,462,l),
(235,445,l),
(310,445,l),
(314,462,l),
(235,462,l),
(195,462,l),
(195,617,l),
(70,596,l),
(70,462,l),
(17,462,l),
(20,445,l),
(70,445,l),
(70,144,ls),
(70,23,o),
(117,-9,o),
(196,-9,cs),
(263,-9,o),
(324,41,o),
(344,88,c),
(329,97,l),
(320,82,o),
(298,62,o),
(269,62,cs)
);
}
);
width = 354;
}
);
note = t;
unicode = 116;
},
{
glyphname = u;
kernLeft = u;
lastChange = "2022-10-05 18:15:21 +0000";
layers = (
{
hints = (
{
horizontal = 1;
place = (-9, 73);
place = (-9, 73);
type = Stem;
},
{
horizontal = 1;
place = (471, -20);
target = down;
type = TopGhost;
},
{
place = (73, 124);
place = (73, 124);
type = Stem;
},
{
place = (368, 125);
place = (368, 125);
type = Stem;
}
);
layerId = m01;
shapes = (
{
closed = 1;
nodes = (
(493,471,l),
(321,452,l),
(321,435,l),
(372,429,o),
(368,416,o),
(368,355,cs),
(368,129,l),
(318,88,l),
(307,77,o),
(299,64,o),
(281,64,cs),
(223,64,o),
(197,91,o),
(197,147,cs),
(197,471,l),
(17,452,l),
(17,435,l),
(75,427,o),
(73,418,o),
(73,358,cs),
(73,144,ls),
(73,24,o),
(120,-9,o),
(199,-9,cs),
(246,-9,o),
(282,14,o),
(318,53,c),
(318,88,l),
(368,129,l),
(368,11,l),
(368,11,o),
(369,-13,o),
(396,-8,cs),
(544,18,l),
(544,35,l),
(502,40,o),
(493,44,o),
(493,92,cs)
);
}
);
width = 561;
}
);
note = u;
unicode = 117;
},
{
glyphname = v;
kernLeft = v;
kernRight = v;
lastChange = "2022-10-06 06:56:02 +0000";
layers = (
{
hints = (
{
horizontal = 1;
place = (-9, 21);
target = up;
type = BottomGhost;
},
{
horizontal = 1;
place = (462, -20);
target = down;
type = TopGhost;
}
);
layerId = m01;
shapes = (
{
closed = 1;
nodes = (
(327,462,l),
(327,445,l),
(436,445,o),
(374,294,o),
(374,294,c),
(257,-9,l),
(227,51,l),
(295,205,l),
(220,370,l),
(220,370,o),
(183,445,o),
(239,445,c),
(239,462,l),
(3,462,l),
(3,445,l),
(21,445,o),
(47,445,o),
(71,392,c),
(71,392,o),
(93,341,o),
(227,51,c),
(257,-9,l),
(273,-9,l),
(392,290,ls),
(454,445,o),
(499,445,o),
(522,445,c),
(522,462,l)
);
}
);
width = 522;
}
);
note = v;
unicode = 118;
},
{
glyphname = w;
kernLeft = w;
kernRight = w;
lastChange = "2022-10-06 06:59:02 +0000";
layers = (
{
hints = (
{
horizontal = 1;
place = (-9, 21);
target = up;
type = BottomGhost;
},
{
horizontal = 1;
place = (462, -20);
target = down;
type = TopGhost;
}
);
layerId = m01;
shapes = (
{
closed = 1;
nodes = (
(610,462,l),
(610,445,l),
(721,445,o),
(663,294,o),
(663,294,c),
(551,-9,l),
(519,61,l),
(579,224,l),
(508,380,l),
(508,380,o),
(471,445,o),
(534,445,c),
(534,462,l),
(297,462,l),
(297,445,l),
(314,445,o),
(338,445,o),
(361,402,c),
(361,402,o),
(365,395,o),
(395,329,c),
(270,-9,l),
(243,51,l),
(302,213,l),
(227,380,l),
(227,380,o),
(193,445,o),
(252,445,c),
(252,462,l),
(16,462,l),
(16,445,l),
(32,445,o),
(57,445,o),
(79,402,c),
(79,402,o),
(108,344,o),
(243,51,c),
(270,-9,l),
(287,-9,l),
(405,308,l),
(519,61,l),
(551,-9,l),
(567,-9,l),
(682,290,ls),
(740,442,o),
(788,445,o),
(806,445,c),
(806,462,l)
);
}
);
width = 814;
}
);
note = w;
unicode = 119;
},
{
glyphname = x;
kernLeft = x;
kernRight = x;
lastChange = "2022-10-06 07:00:20 +0000";
layers = (
{
hints = (
{
horizontal = 1;
place = (0, 21);
target = up;
type = BottomGhost;
},
{
horizontal = 1;
place = (462, -20);
target = down;
type = TopGhost;
}
);
layerId = m01;
shapes = (
{
closed = 1;
nodes = (
(306,281,l),
(341,327,ls),
(439,456,o),
(503,443,o),
(517,445,c),
(517,462,l),
(291,462,l),
(291,445,l),
(400,445,o),
(331,340,o),
(331,340,c),
(297,296,l),
(261,349,l),
(240,383,ls),
(211,430,o),
(227,445,o),
(251,445,c),
(251,462,l),
(12,462,l),
(12,445,l),
(27,443,o),
(46,452,o),
(81,410,c),
(186,255,l),
(261,349,l),
(297,296,l),
(181,137,ls),
(90,12,o),
(38,17,o),
(23,17,c),
(23,0,l),
(249,0,l),
(249,17,l),
(126,17,o),
(194,122,o),
(194,122,c),
(234,180,l),
(295,87,l),
(295,87,o),
(345,17,o),
(296,17,c),
(296,0,l),
(540,0,l),
(540,17,l),
(525,17,o),
(480,16,o),
(452,59,cs)
);
}
);
width = 547;
}
);
note = x;
unicode = 120;
},
{
glyphname = y;
kernLeft = y;
kernRight = y;
lastChange = "2022-10-06 07:00:52 +0000";
layers = (
{
hints = (
{
horizontal = 1;
place = (462, -20);
target = down;
type = TopGhost;
}
);
layerId = m01;
shapes = (
{
closed = 1;
nodes = (
(330,462,l),
(330,445,l),
(446,446,o),
(380,293,o),
(380,293,c),
(327,158,l),
(263,-9,l),
(236,51,l),
(297,197,l),
(221,384,l),
(221,384,o),
(195,445,o),
(247,445,c),
(247,462,l),
(11,462,l),
(11,445,l),
(26,445,o),
(58,445,o),
(74,406,c),
(74,406,o),
(177,182,o),
(236,51,c),
(263,-9,l),
(225,-112,ls),
(209,-154,o),
(185,-161,o),
(181,-149,cs),
(176,-132,o),
(165,-116,o),
(147,-108,cs),
(112,-92,o),
(71,-108,o),
(55,-143,cs),
(40,-178,o),
(55,-219,o),
(90,-235,cs),
(114,-246,o),
(149,-240,o),
(167,-225,cs),
(186,-210,o),
(216,-182,o),
(242,-114,cs),
(395,289,l),
(459,443,o),
(505,445,o),
(526,445,c),
(526,462,l)
);
}
);
width = 541;
}
);
note = y;
unicode = 121;
},
{
glyphname = z;
lastChange = "2022-10-05 18:22:14 +0000";
layers = (
{
hints = (
{
horizontal = 1;
place = (0, 21);
target = up;
type = BottomGhost;
},
{
horizontal = 1;
place = (152, -20);
target = down;
type = TopGhost;
},
{
horizontal = 1;
place = (330, -20);
target = down;
type = TopGhost;
},
{
horizontal = 1;
place = (462, -20);
target = down;
type = TopGhost;
}
);
layerId = m01;
shapes = (
{
closed = 1;
nodes = (
(430,462,l),
(65,462,l),
(60,330,l),
(77,330,l),
(97,387,o),
(150,431,o),
(246,442,c),
(259,462,l),
(299,462,l),
(29,0,l),
(399,0,l),
(408,152,l),
(391,152,l),
(377,112,o),
(336,17,o),
(186,17,c)
);
}
);
width = 463;
}
);
note = z;
unicode = 122;
},
{
glyphname = braceleft;
layers = (
{
hints = (
{
horizontal = 1;
place = (-164, 21);
target = up;
type = BottomGhost;
},
{
horizontal = 1;
place = (280, -20);
target = down;
type = TopGhost;
},
{
horizontal = 1;
place = (735, -20);
target = down;
type = TopGhost;
},
{
place = (128, 90);
place = (128, 90);
type = Stem;
}
);
layerId = m01;
shapes = (
{
closed = 1;
nodes = (
(218,147,ls),
(218,256,o),
(159,280,o),
(86,280,c),
(159,280,o),
(218,314,o),
(218,424,cs),
(218,568,ls),
(218,672,o),
(236,703,o),
(277,718,c),
(277,735,l),
(198,724,o),
(128,683,o),
(128,568,cs),
(128,451,ls),
(128,293,o),
(85,297,o),
(49,288,c),
(49,271,l),
(86,264,o),
(128,268,o),
(128,120,cs),
(128,3,ls),
(128,-112,o),
(198,-153,o),
(277,-164,c),
(277,-147,l),
(236,-133,o),
(218,-101,o),
(218,3,cs)
);
}
);
width = 333;
}
);
note = braceleft;
unicode = 123;
},
{
glyphname = bar;
layers = (
{
hints = (
{
horizontal = 1;
place = (-164, 21);
target = up;
type = BottomGhost;
},
{
horizontal = 1;
place = (735, -20);
target = down;
type = TopGhost;
},
{
place = (73, 76);
place = (73, 76);
type = Stem;
}
);
layerId = m01;
shapes = (
{
closed = 1;
nodes = (
(73,-164,l),
(149,-164,l),
(149,735,l),
(73,735,l)
);
}
);
width = 222;
}
);
note = bar;
unicode = 124;
},
{
glyphname = braceright;
layers = (
{
hints = (
{
horizontal = 1;
place = (-164, 21);
target = up;
type = BottomGhost;
},
{
horizontal = 1;
place = (280, -20);
target = down;
type = TopGhost;
},
{
horizontal = 1;
place = (735, -20);
target = down;
type = TopGhost;
},
{
place = (112, 90);
place = (112, 90);
type = Stem;
}
);
layerId = m01;
shapes = (
{
closed = 1;
nodes = (
(112,3,ls),
(112,-101,o),
(94,-133,o),
(53,-147,c),
(53,-164,l),
(132,-153,o),
(202,-112,o),
(202,3,cs),
(202,120,ls),
(202,268,o),
(244,264,o),
(281,271,c),
(281,288,l),
(245,297,o),
(202,293,o),
(202,451,cs),
(202,568,ls),
(202,683,o),
(132,724,o),
(53,735,c),
(53,718,l),
(94,703,o),
(112,672,o),
(112,568,cs),
(112,424,ls),
(112,314,o),
(171,280,o),
(244,280,c),
(171,280,o),
(112,256,o),
(112,147,cs)
);
}
);
width = 333;
}
);
note = braceright;
unicode = 125;
},
{
glyphname = asciitilde;
layers = (
{
hints = (
{
horizontal = 1;
place = (244, 91);
place = (244, 91);
type = Stem;
},
{
place = (59, 481);
place = (59, 481);
type = Stem;
},
{
horizontal = 1;
place = (192, 90);
place = (192, 90);
type = Stem;
}
);
layerId = m01;
shapes = (
{
closed = 1;
nodes = (
(348,196,l),
(348,196,o),
(468,156,o),
(540,330,c),
(525,336,l),
(499,281,o),
(409,275,o),
(375,288,cs),
(255,331,l),
(255,331,o),
(131,373,o),
(59,199,c),
(75,192,l),
(101,247,o),
(194,251,o),
(228,239,cs)
);
}
);
width = 600;
}
);
note = asciitilde;
unicode = 126;
},
{
glyphname = exclamdown;
layers = (
{
hints = (
{
horizontal = 1;
place = (-175, 21);
target = up;
type = BottomGhost;
},
{
horizontal = 1;
place = (339, -20);
target = down;
type = TopGhost;
},
{
horizontal = 1;
place = (420, 149);
place = (420, 149);
type = Stem;
},
{
place = (113, 97);
place = (113, 97);
type = Stem;
},
{
place = (88, 149);
place = (88, 149);
type = Stem;
}
);
layerId = m01;
shapes = (
{
closed = 1;
nodes = (
(130,339,l),
(96,-175,l),
(226,-175,l),
(194,339,l)
);
},
{
closed = 1;
nodes = (
(88,453,o),
(121,420,o),
(163,420,cs),
(204,420,o),
(237,453,o),
(237,495,cs),
(237,536,o),
(204,569,o),
(163,569,cs),
(121,569,o),
(88,536,o),
(88,495,cs)
);
}
);
width = 319;
}
);
note = exclamdown;
unicode = 161;
},
{
glyphname = cent;
layers = (
{
hints = (
{
horizontal = 1;
place = (-118, 21);
target = up;
type = BottomGhost;
},
{
horizontal = 1;
place = (-9, 21);
target = up;
type = BottomGhost;
},
{
horizontal = 1;
place = (471, -20);
target = down;
type = TopGhost;
},
{
horizontal = 1;
place = (593, -20);
target = down;
type = TopGhost;
},
{
place = (75, 126);
place = (75, 126);
type = Stem;
}
);
layerId = m01;
shapes = (
{
closed = 1;
nodes = (
(201,400,o),
(274,444,o),
(317,453,c),
(317,82,l),
(253,100,o),
(201,148,o),
(201,251,cs)
);
},
{
closed = 1;
nodes = (
(480,129,l),
(458,97,o),
(384,71,o),
(334,78,c),
(334,454,l),
(374,454,o),
(396,437,o),
(387,433,cs),
(372,425,o),
(360,412,o),
(356,393,cs),
(346,358,o),
(367,321,o),
(403,312,cs),
(439,302,o),
(475,325,o),
(485,360,cs),
(492,384,o),
(482,412,o),
(465,427,cs),
(448,442,o),
(405,471,o),
(334,471,c),
(334,593,l),
(317,593,l),
(317,471,l),
(157,463,o),
(75,344,o),
(75,233,cs),
(75,116,o),
(148,-9,o),
(317,-9,c),
(317,-118,l),
(334,-118,l),
(334,-9,l),
(432,4,o),
(481,74,o),
(494,120,c)
);
}
);
width = 533;
}
);
note = cent;
unicode = 162;
},
{
glyphname = sterling;
layers = (
{
hints = (
{
horizontal = 1;
place = (-9, 21);
target = up;
type = BottomGhost;
},
{
horizontal = 1;
place = (362, -20);
target = down;
type = TopGhost;
},
{
horizontal = 1;
place = (379, -20);
target = down;
type = TopGhost;
}
);
layerId = m01;
shapes = (
{
closed = 1;
nodes = (
(216,-9,o),
(276,3,o),
(322,53,c),
(392,13,o),
(463,-22,o),
(523,-4,c),
(523,-4,o),
(627,25,o),
(626,137,c),
(609,141,l),
(599,105,o),
(528,80,o),
(453,104,cs),
(379,127,l),
(412,187,o),
(416,259,o),
(374,325,c),
(347,362,l),
(518,362,l),
(518,379,l),
(337,379,l),
(183,653,o),
(279,751,o),
(432,713,cs),
(451,708,o),
(478,689,o),
(460,689,cs),
(442,689,o),
(424,686,o),
(410,671,cs),
(382,643,o),
(382,597,o),
(411,569,cs),
(440,541,o),
(486,541,o),
(513,570,cs),
(533,590,o),
(539,621,o),
(531,644,cs),
(519,673,o),
(500,701,o),
(437,728,cs),
(303,786,o),
(50,677,o),
(179,379,c),
(93,379,l),
(93,362,l),
(186,362,l),
(199,338,o),
(225,300,o),
(241,275,cs),
(269,232,o),
(289,191,o),
(289,156,c),
(252,168,ls),
(53,232,o),
(21,110,o),
(36,64,cs),
(58,-6,o),
(132,-9,o),
(142,-9,cs)
);
},
{
closed = 1;
nodes = (
(43,113,o),
(91,171,o),
(183,132,cs),
(212,119,o),
(240,103,o),
(277,81,c),
(251,38,o),
(208,8,o),
(141,8,cs),
(128,8,o),
(71,10,o),
(55,69,cs)
);
}
);
width = 670;
}
);
note = sterling;
unicode = 163;
},
{
glyphname = currency;
layers = (
{
hints = (
{
horizontal = 1;
place = (59, 21);
target = up;
type = BottomGhost;
},
{
horizontal = 1;
place = (104, 86);
place = (104, 86);
type = Stem;
},
{
horizontal = 1;
place = (501, 86);
place = (501, 86);
type = Stem;
},
{
horizontal = 1;
place = (631, -20);
target = down;
type = TopGhost;
},
{
place = (62, 86);
place = (62, 86);
type = Stem;
},
{
place = (459, 86);
place = (459, 86);
type = Stem;
}
);
layerId = m01;
shapes = (
{
closed = 1;
nodes = (
(545,397,o),
(529,446,o),
(501,485,c),
(590,573,l),
(532,631,l),
(443,543,l),
(404,571,o),
(355,587,o),
(304,587,cs),
(252,587,o),
(204,571,o),
(164,543,c),
(76,631,l),
(18,573,l),
(106,485,l),
(79,446,o),
(62,397,o),
(62,345,cs),
(62,293,o),
(79,246,o),
(106,206,c),
(18,118,l),
(76,59,l),
(164,148,l),
(204,120,o),
(252,104,o),
(304,104,cs),
(355,104,o),
(404,120,o),
(443,148,c),
(532,59,l),
(590,118,l),
(501,206,l),
(529,246,o),
(545,293,o),
(545,345,cs)
);
},
{
closed = 1;
nodes = (
(218,190,o),
(148,260,o),
(148,345,cs),
(148,431,o),
(218,501,o),
(304,501,cs),
(390,501,o),
(459,431,o),
(459,345,cs),
(459,260,o),
(390,190,o),
(304,190,cs)
);
}
);
width = 612;
}
);
note = currency;
unicode = 164;
},
{
glyphname = yen;
layers = (
{
hints = (
{
horizontal = 1;
place = (221, 106);
place = (221, 106);
type = Stem;
},
{
horizontal = 1;
place = (704, -20);
target = down;
type = TopGhost;
},
{
place = (275, 145);
place = (275, 145);
type = Stem;
},
{
horizontal = 1;
place = (0, 238);
place = (0, 238);
type = Stem;
},
{
horizontal = 1;
place = (310, -20);
target = down;
type = TopGhost;
}
);
layerId = m01;
shapes = (
{
closed = 1;
nodes = (
(422,704,l),
(422,687,l),
(566,687,o),
(477,483,o),
(477,483,c),
(410,344,l),
(269,574,ls),
(201,689,o),
(271,688,o),
(292,688,c),
(292,704,l),
(-27,704,l),
(-27,688,l),
(-2,688,o),
(36,685,o),
(80,609,c),
(80,609,o),
(121,545,o),
(246,327,c),
(89,327,l),
(89,310,l),
(255,310,l),
(275,276,l),
(275,238,l),
(89,238,l),
(89,221,l),
(275,221,l),
(275,121,ls),
(275,53,o),
(232,17,o),
(190,17,c),
(190,0,l),
(505,0,l),
(505,17,l),
(463,17,o),
(420,53,o),
(420,121,cs),
(420,221,l),
(585,221,l),
(585,238,l),
(420,238,l),
(420,310,l),
(585,310,l),
(585,327,l),
(420,327,l),
(486,466,ls),
(598,685,o),
(696,687,o),
(722,687,c),
(722,704,l)
);
}
);
width = 702;
}
);
note = yen;
unicode = 165;
},
{
glyphname = brokenbar;
layers = (
{
hints = (
{
horizontal = 1;
place = (-191, 21);
target = up;
type = BottomGhost;
},
{
horizontal = 1;
place = (186, -20);
target = down;
type = TopGhost;
},
{
horizontal = 1;
place = (360, -20);
target = down;
type = TopGhost;
},
{
horizontal = 1;
place = (735, -20);
target = down;
type = TopGhost;
},
{
place = (71, 81);
place = (71, 81);
type = Stem;
}
);
layerId = m01;
shapes = (
{
closed = 1;
nodes = (
(152,735,l),
(71,735,l),
(71,360,l),
(152,360,l)
);
},
{
closed = 1;
nodes = (
(152,186,l),
(71,186,l),
(71,-191,l),
(152,-191,l)
);
}
);
width = 222;
}
);
note = brokenbar;
unicode = 166;
},
{
glyphname = section;
layers = (
{
hints = (
{
horizontal = 1;
place = (-253, 17);
place = (-253, 17);
type = Stem;
},
{
horizontal = 1;
place = (701, 17);
place = (701, 17);
type = Stem;
},
{
place = (53, 63);
place = (53, 63);
type = Stem;
},
{
place = (445, 63);
place = (445, 63);
type = Stem;
},
{
place = (108, 85);
place = (108, 85);
type = Stem;
},
{
place = (320, 128);
place = (320, 128);
type = Stem;
},
{
place = (356, 101);
place = (356, 101);
type = Stem;
},
{
place = (109, 128);
place = (109, 128);
type = Stem;
},
{
horizontal = 1;
place = (-224, 121);
place = (-224, 121);
type = Stem;
}
);
layerId = m01;
shapes = (
{
closed = 1;
nodes = (
(577,182,o),
(511,331,o),
(395,404,cs),
(271,482,ls),
(207,522,o),
(188,565,o),
(193,611,cs),
(199,673,o),
(252,707,o),
(328,701,cs),
(356,697,o),
(362,689,o),
(356,687,cs),
(341,682,o),
(334,675,o),
(326,659,cs),
(311,627,o),
(325,589,o),
(357,574,cs),
(390,559,o),
(427,573,o),
(443,605,cs),
(453,627,o),
(449,655,o),
(435,672,cs),
(423,687,o),
(384,713,o),
(329,718,cs),
(261,725,o),
(123,724,o),
(108,568,cs),
(102,505,o),
(122,445,o),
(173,398,c),
(-17,273,o),
(48,135,o),
(162,61,cs),
(286,-19,ls),
(350,-61,o),
(361,-100,o),
(356,-146,cs),
(350,-208,o),
(304,-245,o),
(230,-236,cs),
(202,-233,o),
(185,-226,o),
(191,-224,cs),
(207,-219,o),
(223,-210,o),
(231,-194,cs),
(246,-162,o),
(232,-124,o),
(200,-109,cs),
(167,-94,o),
(129,-108,o),
(115,-140,cs),
(104,-162,o),
(108,-190,o),
(122,-207,cs),
(134,-222,o),
(172,-247,o),
(229,-253,cs),
(296,-260,o),
(442,-259,o),
(457,-103,cs),
(464,-42,o),
(434,23,o),
(393,62,c)
);
},
{
closed = 1;
nodes = (
(343,101,o),
(269,144,o),
(223,174,cs),
(152,222,o),
(42,285,o),
(189,384,c),
(189,384,l),
(196,378,o),
(205,371,o),
(214,365,c),
(214,365,o),
(289,320,o),
(334,290,cs),
(405,243,o),
(520,182,o),
(378,76,c),
(367,85,o),
(356,94,o),
(343,101,c)
);
}
);
width = 556;
}
);
note = section;
unicode = 167;
},
{
glyphname = dieresis;
layers = (
{
hints = (
{
horizontal = 1;
place = (586, 118);
place = (586, 118);
type = Stem;
},
{
place = (-9, 119);
place = (-9, 119);
type = Stem;
},
{
place = (180, 118);
place = (180, 118);
type = Stem;
}
);
layerId = m01;
shapes = (
{
closed = 1;
nodes = (
(110,678,o),
(83,704,o),
(51,704,cs),
(18,704,o),
(-9,678,o),
(-9,646,cs),
(-9,613,o),
(18,586,o),
(51,586,cs),
(83,586,o),
(110,613,o),
(110,646,cs)
);
},
{
closed = 1;
nodes = (
(298,678,o),
(271,704,o),
(239,704,cs),
(206,704,o),
(180,678,o),
(180,646,cs),
(180,613,o),
(206,586,o),
(239,586,cs),
(271,586,o),
(298,613,o),
(298,646,cs)
);
}
);
width = 292;
}
);
note = dieresis;
unicode = 168;
},
{
glyphname = copyright;
layers = (
{
hints = (
{
horizontal = 1;
place = (-8, 76);
place = (-8, 76);
type = Stem;
},
{
horizontal = 1;
place = (156, -20);
target = down;
type = TopGhost;
},
{
horizontal = 1;
place = (276, -20);
target = down;
type = TopGhost;
},
{
horizontal = 1;
place = (671, 75);
place = (671, 75);
type = Stem;
},
{
place = (30, 77);
place = (30, 77);
type = Stem;
},
{
place = (208, 102);
place = (208, 102);
type = Stem;
},
{
place = (706, 78);
place = (706, 78);
type = Stem;
},
{
horizontal = 1;
place = (-8, 181);
place = (-8, 181);
type = Stem;
},
{
horizontal = 1;
place = (546, 200);
place = (546, 200);
type = Stem;
}
);
layerId = m01;
shapes = (
{
closed = 1;
nodes = (
(198,746,o),
(30,577,o),
(30,369,cs),
(30,161,o),
(198,-8,o),
(407,-8,cs),
(615,-8,o),
(784,161,o),
(784,369,cs),
(784,577,o),
(615,746,o),
(407,746,cs)
);
},
{
closed = 1;
nodes = (
(242,68,o),
(107,204,o),
(107,369,cs),
(107,534,o),
(242,671,o),
(407,671,cs),
(571,671,o),
(706,534,o),
(706,369,cs),
(706,204,o),
(571,68,o),
(407,68,cs)
);
},
{
closed = 1;
nodes = (
(525,276,l),
(509,188,o),
(457,173,o),
(404,173,cs),
(358,173,o),
(310,204,o),
(310,359,cs),
(310,514,o),
(356,546,o),
(404,546,cs),
(453,546,o),
(509,531,o),
(525,443,c),
(542,443,l),
(547,529,l),
(512,557,o),
(462,563,o),
(404,563,cs),
(283,563,o),
(208,472,o),
(208,359,cs),
(208,247,o),
(283,156,o),
(404,156,cs),
(464,156,o),
(505,163,o),
(547,191,c),
(542,276,l)
);
}
);
width = 815;
}
);
note = copyright;
unicode = 169;
},
{
glyphname = ordfeminine;
layers = (
{
hints = (
{
horizontal = 1;
place = (454, 34);
place = (454, 34);
type = Stem;
},
{
horizontal = 1;
place = (705, -20);
target = down;
type = TopGhost;
},
{
place = (156, 66);
place = (156, 66);
type = Stem;
},
{
place = (21, 201);
place = (21, 201);
type = Stem;
}
);
layerId = m01;
shapes = (
{
closed = 1;
nodes = (
(151,501,o),
(140,488,o),
(122,488,cs),
(87,488,o),
(87,520,o),
(87,520,c),
(87,547,o),
(105,565,o),
(156,577,c),
(156,577,o),
(156,514,o),
(156,513,c)
);
},
{
closed = 1;
nodes = (
(222,484,o),
(222,523,o),
(222,523,c),
(222,601,ls),
(222,662,o),
(204,705,o),
(135,705,c),
(135,705,o),
(106,708,o),
(82,695,cs),
(57,682,o),
(48,667,o),
(43,656,cs),
(39,647,o),
(38,634,o),
(45,625,cs),
(54,612,o),
(73,608,o),
(86,618,cs),
(99,626,o),
(103,645,o),
(94,658,cs),
(90,665,o),
(83,669,o),
(74,669,cs),
(71,669,o),
(73,675,o),
(87,681,cs),
(124,697,o),
(156,679,o),
(156,625,cs),
(156,594,l),
(64,571,o),
(21,565,o),
(21,507,cs),
(21,454,o),
(81,454,o),
(81,454,c),
(118,454,o),
(150,471,o),
(157,491,c),
(162,454,o),
(210,454,o),
(210,454,c),
(247,454,o),
(267,473,o),
(270,491,c),
(257,496,l),
(255,486,o),
(247,486,o),
(247,486,c)
);
}
);
width = 319;
}
);
note = ordfeminine;
unicode = 170;
},
{
glyphname = guillemotleft;
layers = (
{
hints = (
{
horizontal = 1;
place = (33, 21);
target = up;
type = BottomGhost;
},
{
horizontal = 1;
place = (505, -20);
target = down;
type = TopGhost;
}
);
layerId = m01;
shapes = (
{
closed = 1;
nodes = (
(318,505,l),
(87,266,l),
(318,33,l),
(318,72,l),
(195,266,l),
(318,466,l)
);
},
{
closed = 1;
nodes = (
(522,505,l),
(291,266,l),
(522,33,l),
(522,72,l),
(400,266,l),
(522,466,l)
);
}
);
width = 610;
}
);
note = guillemotleft;
unicode = 171;
},
{
glyphname = logicalnot;
layers = (
{
hints = (
{
horizontal = 1;
place = (79, 21);
target = up;
type = BottomGhost;
},
{
horizontal = 1;
place = (317, 82);
place = (317, 82);
type = Stem;
},
{
place = (524, 83);
place = (524, 83);
type = Stem;
}
);
layerId = m01;
shapes = (
{
closed = 1;
nodes = (
(41,399,l),
(41,317,l),
(524,317,l),
(524,79,l),
(607,79,l),
(607,399,l)
);
}
);
width = 653;
}
);
note = logicalnot;
unicode = 172;
},
{
glyphname = uni00AD;
layers = (
{
hints = (
{
horizontal = 1;
place = (208, 93);
place = (208, 93);
type = Stem;
}
);
layerId = m01;
shapes = (
{
closed = 1;
nodes = (
(379,208,l),
(379,301,l),
(64,301,l),
(64,208,l)
);
}
);
width = 444;
}
);
note = uni00AD;
unicode = 173;
},
{
glyphname = registered;
layers = (
{
hints = (
{
horizontal = 1;
place = (-8, 78);
place = (-8, 78);
type = Stem;
},
{
horizontal = 1;
place = (187, 186);
place = (187, 186);
type = Stem;
},
{
horizontal = 1;
place = (669, 77);
place = (669, 77);
type = Stem;
},
{
place = (31, 78);
place = (31, 78);
type = Stem;
},
{
place = (282, 77);
place = (282, 77);
type = Stem;
},
{
place = (470, 88);
place = (470, 88);
type = Stem;
},
{
place = (707, 78);
place = (707, 78);
type = Stem;
},
{
horizontal = 1;
place = (-8, 212);
place = (-8, 212);
type = Stem;
},
{
horizontal = 1;
place = (356, -20);
target = down;
type = TopGhost;
},
{
horizontal = 1;
place = (547, 199);
place = (547, 199);
type = Stem;
}
);
layerId = m01;
shapes = (
{
closed = 1;
nodes = (
(200,746,o),
(31,577,o),
(31,369,cs),
(31,161,o),
(200,-8,o),
(408,-8,cs),
(616,-8,o),
(785,161,o),
(785,369,cs),
(785,577,o),
(616,746,o),
(408,746,cs)
);
},
{
closed = 1;
nodes = (
(243,70,o),
(109,204,o),
(109,369,cs),
(109,534,o),
(243,669,o),
(408,669,cs),
(573,669,o),
(707,534,o),
(707,369,cs),
(707,204,o),
(573,70,o),
(408,70,cs)
);
},
{
closed = 1;
nodes = (
(531,343,o),
(488,369,o),
(453,365,cs),
(517,373,o),
(558,397,o),
(558,462,cs),
(558,552,o),
(483,564,o),
(376,564,cs),
(243,564,l),
(243,547,l),
(267,547,o),
(282,541,o),
(282,507,cs),
(282,260,ls),
(282,223,o),
(266,204,o),
(243,204,c),
(243,187,l),
(399,187,l),
(399,204,l),
(376,204,o),
(359,223,o),
(359,260,cs),
(359,356,l),
(385,356,l),
(385,356,o),
(435,356,o),
(452,304,cs),
(490,188,o),
(475,188,o),
(570,187,cs),
(620,187,l),
(620,204,l),
(605,204,o),
(568,206,o),
(557,247,cs)
);
},
{
closed = 1;
nodes = (
(359,373,l),
(359,547,l),
(376,547,ls),
(428,547,o),
(470,547,o),
(470,462,cs),
(470,373,o),
(428,373,o),
(376,373,cs)
);
}
);
width = 819;
}
);
note = registered;
unicode = 174;
},
{
glyphname = macron;
layers = (
{
hints = (
{
horizontal = 1;
place = (587, 69);
place = (587, 69);
type = Stem;
}
);
layerId = m01;
shapes = (
{
closed = 1;
nodes = (
(377,587,l),
(377,656,l),
(-16,656,l),
(-16,587,l)
);
}
);
width = 360;
}
);
note = macron;
unicode = 175;
},
{
glyphname = degree;
layers = (
{
hints = (
{
horizontal = 1;
place = (479, 39);
place = (479, 39);
type = Stem;
},
{
horizontal = 1;
place = (696, 41);
place = (696, 41);
type = Stem;
},
{
place = (57, 40);
place = (57, 40);
type = Stem;
},
{
place = (277, 40);
place = (277, 40);
type = Stem;
}
);
layerId = m01;
shapes = (
{
closed = 1;
nodes = (
(116,737,o),
(57,679,o),
(57,607,cs),
(57,536,o),
(116,479,o),
(187,479,cs),
(258,479,o),
(317,536,o),
(317,607,cs),
(317,679,o),
(258,737,o),
(187,737,cs)
);
},
{
closed = 1;
nodes = (
(277,557,o),
(237,518,o),
(188,518,cs),
(138,518,o),
(97,557,o),
(97,607,cs),
(97,656,o),
(138,696,o),
(188,696,cs),
(237,696,o),
(277,656,o),
(277,607,cs)
);
}
);
width = 381;
}
);
note = degree;
unicode = 176;
},
{
glyphname = plusminus;
layers = (
{
hints = (
{
horizontal = 1;
place = (0, 80);
place = (0, 80);
type = Stem;
},
{
horizontal = 1;
place = (140, -20);
target = down;
type = TopGhost;
},
{
horizontal = 1;
place = (297, 81);
place = (297, 81);
type = Stem;
},
{
horizontal = 1;
place = (535, -20);
target = down;
type = TopGhost;
},
{
place = (260, 80);
place = (260, 80);
type = Stem;
}
);
layerId = m01;
shapes = (
{
closed = 1;
nodes = (
(340,378,l),
(340,535,l),
(260,535,l),
(260,378,l),
(41,378,l),
(41,297,l),
(260,297,l),
(260,140,l),
(340,140,l),
(340,297,l),
(560,297,l),
(560,378,l)
);
},
{
closed = 1;
nodes = (
(41,0,l),
(560,0,l),
(560,80,l),
(41,80,l)
);
}
);
width = 608;
}
);
note = plusminus;
unicode = 177;
},
{
glyphname = twosuperior;
layers = (
{
hints = (
{
horizontal = 1;
place = (379, 59);
place = (379, 59);
type = Stem;
},
{
horizontal = 1;
place = (464, -20);
target = down;
type = TopGhost;
},
{
horizontal = 1;
place = (704, -20);
target = down;
type = TopGhost;
}
);
layerId = m01;
shapes = (
{
closed = 1;
nodes = (
(207,464,l),
(197,446,o),
(181,438,o),
(166,438,cs),
(89,438,l),
(89,438,o),
(127,495,o),
(149,525,cs),
(186,570,o),
(199,599,o),
(199,629,cs),
(199,670,o),
(167,704,o),
(121,704,c),
(121,704,o),
(39,705,o),
(29,619,c),
(45,616,l),
(79,688,o),
(201,643,o),
(135,531,c),
(31,379,l),
(201,379,l),
(224,464,l)
);
}
);
width = 270;
}
);
note = twosuperior;
unicode = 178;
},
{
glyphname = threesuperior;
layers = (
{
hints = (
{
horizontal = 1;
place = (388, -20);
target = down;
type = TopGhost;
},
{
horizontal = 1;
place = (704, -20);
target = down;
type = TopGhost;
},
{
horizontal = 1;
place = (372, 21);
target = up;
type = BottomGhost;
}
);
layerId = m01;
shapes = (
{
closed = 1;
nodes = (
(234,512,o),
(214,546,o),
(171,561,c),
(247,635,o),
(189,704,o),
(124,704,c),
(124,704,o),
(51,704,o),
(42,630,c),
(59,628,l),
(76,664,o),
(112,666,o),
(134,649,cs),
(161,628,o),
(170,573,o),
(94,550,c),
(94,532,l),
(165,523,o),
(176,480,o),
(179,464,cs),
(186,431,o),
(167,388,o),
(127,388,cs),
(91,388,o),
(82,395,o),
(87,397,cs),
(97,401,o),
(101,408,o),
(104,417,cs),
(108,436,o),
(96,455,o),
(77,460,cs),
(58,464,o),
(39,452,o),
(35,433,cs),
(32,420,o),
(37,405,o),
(47,398,cs),
(67,382,o),
(94,372,o),
(127,372,cs),
(168,372,o),
(240,403,o),
(236,485,cs)
);
}
);
width = 276;
}
);
note = threesuperior;
unicode = 179;
},
{
glyphname = acute;
layers = (
{
hints = (
{
horizontal = 1;
place = (558, 21);
target = up;
type = BottomGhost;
},
{
horizontal = 1;
place = (721, -20);
target = down;
type = TopGhost;
}
);
layerId = m01;
shapes = (
{
closed = 1;
nodes = (
(87,558,l),
(124,558,l),
(368,686,l),
(256,721,l)
);
}
);
width = 372;
}
);
note = acute;
unicode = 180;
},
{
glyphname = mu;
layers = (
{
hints = (
{
horizontal = 1;
place = (-9, 73);
place = (-9, 73);
type = Stem;
},
{
horizontal = 1;
place = (471, -20);
target = down;
type = TopGhost;
},
{
place = (67, 124);
place = (67, 124);
type = Stem;
},
{
place = (362, 125);
place = (362, 125);
type = Stem;
}
);
layerId = m01;
shapes = (
{
closed = 1;
nodes = (
(487,471,l),
(315,452,l),
(315,435,l),
(366,429,o),
(362,416,o),
(362,355,cs),
(362,129,l),
(341,89,o),
(303,64,o),
(275,64,cs),
(217,64,o),
(191,91,o),
(191,147,cs),
(191,471,l),
(11,452,l),
(11,435,l),
(69,427,o),
(67,418,o),
(67,358,cs),
(67,-245,l),
(67,-245,o),
(67,-269,o),
(96,-264,cs),
(243,-238,l),
(243,-221,l),
(201,-217,o),
(191,-206,o),
(191,-157,cs),
(191,-9,l),
(257,-9,o),
(338,42,o),
(362,99,c),
(362,11,l),
(362,11,o),
(363,-12,o),
(390,-8,cs),
(538,18,l),
(538,35,l),
(496,40,o),
(487,44,o),
(487,92,cs)
);
}
);
width = 557;
}
);
note = mu;
unicode = 181;
},
{
glyphname = paragraph;
layers = (
{
hints = (
{
horizontal = 1;
place = (-265, 21);
target = up;
type = BottomGhost;
},
{
horizontal = 1;
place = (300, -20);
target = down;
type = TopGhost;
},
{
horizontal = 1;
place = (704, -20);
target = down;
type = TopGhost;
},
{
place = (287, 71);
place = (287, 71);
type = Stem;
},
{
place = (429, 70);
place = (429, 70);
type = Stem;
}
);
layerId = m01;
shapes = (
{
closed = 1;
nodes = (
(581,704,l),
(429,704,l),
(429,-265,l),
(574,-265,l),
(574,-248,l),
(526,-248,o),
(499,-179,o),
(499,-101,cs),
(499,545,ls),
(499,615,o),
(531,687,o),
(581,687,c)
);
},
{
closed = 1;
nodes = (
(288,704,l),
(287,704,ls),
(167,703,o),
(37,665,o),
(37,500,cs),
(37,334,o),
(151,300,o),
(287,300,c),
(287,-101,ls),
(287,-231,o),
(201,-248,o),
(153,-248,c),
(153,-265,l),
(358,-265,l),
(358,704,l)
);
}
);
width = 657;
}
);
note = paragraph;
unicode = 182;
},
{
glyphname = periodcentered;
layers = (
{
hints = (
{
horizontal = 1;
place = (239, 120);
place = (239, 120);
type = Stem;
},
{
place = (78, 120);
place = (78, 120);
type = Stem;
}
);
layerId = m01;
shapes = (
{
closed = 1;
nodes = (
(198,332,o),
(171,359,o),
(138,359,cs),
(105,359,o),
(78,332,o),
(78,299,cs),
(78,266,o),
(105,239,o),
(138,239,cs),
(171,239,o),
(198,266,o),
(198,299,cs)
);
}
);
width = 278;
}
);
note = periodcentered;
unicode = 183;
},
{
glyphname = cedilla;
layers = (
{
hints = (
{
horizontal = 1;
place = (-232, 21);
target = up;
type = BottomGhost;
},
{
horizontal = 1;
place = (-4, -20);
target = down;
type = TopGhost;
}
);
layerId = m01;
shapes = (
{
closed = 1;
nodes = (
(120,-4,l),
(89,-93,l),
(165,-81,o),
(187,-144,o),
(187,-162,cs),
(188,-193,o),
(169,-216,o),
(137,-216,cs),
(109,-216,o),
(107,-210,o),
(109,-208,cs),
(113,-205,o),
(116,-201,o),
(117,-194,cs),
(120,-176,o),
(110,-161,o),
(93,-157,cs),
(76,-153,o),
(59,-163,o),
(55,-180,cs),
(53,-192,o),
(58,-205,o),
(66,-211,cs),
(74,-218,o),
(100,-232,o),
(137,-232,cs),
(170,-232,o),
(233,-216,o),
(242,-149,cs),
(248,-98,o),
(208,-42,o),
(117,-63,c),
(137,-4,l)
);
}
);
width = 278;
}
);
note = cedilla;
unicode = 184;
},
{
glyphname = onesuperior;
layers = (
{
hints = (
{
horizontal = 1;
place = (397, -20);
target = down;
type = TopGhost;
},
{
horizontal = 1;
place = (704, -20);
target = down;
type = TopGhost;
},
{
place = (89, 61);
place = (89, 61);
type = Stem;
},
{
horizontal = 1;
place = (380, 21);
target = up;
type = BottomGhost;
}
);
layerId = m01;
shapes = (
{
closed = 1;
nodes = (
(150,704,l),
(134,704,l),
(39,639,l),
(51,622,l),
(51,622,o),
(89,646,o),
(89,609,cs),
(89,435,ls),
(89,401,o),
(63,397,o),
(43,397,c),
(43,380,l),
(190,380,l),
(190,397,l),
(173,397,o),
(150,400,o),
(150,435,cs)
);
}
);
width = 232;
}
);
note = onesuperior;
unicode = 185;
},
{
glyphname = ordmasculine;
layers = (
{
hints = (
{
horizontal = 1;
place = (373, 21);
target = up;
type = BottomGhost;
},
{
horizontal = 1;
place = (707, -20);
target = down;
type = TopGhost;
},
{
place = (34, 73);
place = (34, 73);
type = Stem;
},
{
place = (220, 73);
place = (220, 73);
type = Stem;
},
{
horizontal = 1;
place = (390, -20);
target = down;
type = TopGhost;
}
);
layerId = m01;
shapes = (
{
closed = 1;
nodes = (
(61,707,o),
(34,630,o),
(34,537,cs),
(34,445,o),
(61,373,o),
(164,373,cs),
(266,373,o),
(293,445,o),
(293,537,cs),
(293,630,o),
(266,707,o),
(164,707,cs)
);
},
{
closed = 1;
nodes = (
(129,390,o),
(107,410,o),
(107,537,cs),
(107,665,o),
(128,690,o),
(164,690,cs),
(198,690,o),
(220,665,o),
(220,537,cs),
(220,410,o),
(200,390,o),
(164,390,cs)
);
}
);
width = 329;
}
);
note = ordmasculine;
unicode = 186;
},
{
glyphname = guillemotright;
layers = (
{
hints = (
{
horizontal = 1;
place = (33, 21);
target = up;
type = BottomGhost;
},
{
horizontal = 1;
place = (505, -20);
target = down;
type = TopGhost;
}
);
layerId = m01;
shapes = (
{
closed = 1;
nodes = (
(288,466,l),
(411,266,l),
(288,72,l),
(288,33,l),
(519,266,l),
(288,505,l)
);
},
{
closed = 1;
nodes = (
(84,466,l),
(206,266,l),
(84,72,l),
(84,33,l),
(315,266,l),
(84,505,l)
);
}
);
width = 609;
}
);
note = guillemotright;
unicode = 187;
},
{
glyphname = onequarter;
layers = (
{
hints = (
{
horizontal = 1;
place = (0, 139);
place = (0, 139);
type = Stem;
},
{
horizontal = 1;
place = (392, -20);
target = down;
type = TopGhost;
},
{
horizontal = 1;
place = (708, -20);
target = down;
type = TopGhost;
},
{
horizontal = 1;
place = (746, -20);
target = down;
type = TopGhost;
},
{
place = (120, 63);
place = (120, 63);
type = Stem;
},
{
place = (453, 76);
place = (453, 76);
type = Stem;
},
{
horizontal = 1;
place = (375, -20);
target = down;
type = TopGhost;
},
{
horizontal = 1;
place = (103, 36);
place = (103, 36);
type = Stem;
}
);
layerId = m01;
shapes = (
{
closed = 1;
nodes = (
(120,432,ls),
(120,394,o),
(94,392,o),
(73,392,c),
(73,375,l),
(223,375,l),
(223,392,l),
(206,392,o),
(183,392,o),
(183,432,cs),
(183,746,l),
(166,746,l),
(69,671,l),
(80,655,l),
(80,655,o),
(120,683,o),
(120,644,cs)
);
},
{
closed = 1;
nodes = (
(583,103,l),
(583,139,l),
(529,139,l),
(529,364,l),
(502,367,l),
(332,112,l),
(332,103,l),
(453,103,l),
(453,81,ls),
(453,19,o),
(431,17,o),
(409,17,c),
(409,0,l),
(573,0,l),
(573,17,l),
(551,17,o),
(529,18,o),
(529,83,cs),
(529,103,l)
);
},
{
closed = 1;
nodes = (
(453,139,l),
(397,139,ls),
(387,139,o),
(373,139,o),
(390,167,cs),
(453,261,l)
);
},
{
closed = 1;
nodes = (
(570,708,l),
(14,36,l),
(78,36,l),
(635,708,l)
);
}
);
width = 654;
}
);
note = onequarter;
unicode = 188;
},
{
glyphname = onehalf;
layers = (
{
hints = (
{
horizontal = 1;
place = (0, 68);
place = (0, 68);
type = Stem;
},
{
horizontal = 1;
place = (97, -20);
target = down;
type = TopGhost;
},
{
horizontal = 1;
place = (392, -20);
target = down;
type = TopGhost;
},
{
horizontal = 1;
place = (708, -20);
target = down;
type = TopGhost;
},
{
horizontal = 1;
place = (746, -20);
target = down;
type = TopGhost;
},
{
place = (120, 63);
place = (120, 63);
type = Stem;
},
{
horizontal = 1;
place = (375, -20);
target = down;
type = TopGhost;
}
);
layerId = m01;
shapes = (
{
closed = 1;
nodes = (
(596,97,l),
(585,77,o),
(562,68,o),
(545,68,cs),
(456,68,l),
(456,68,o),
(500,133,o),
(525,167,cs),
(567,218,o),
(584,251,o),
(584,285,cs),
(584,332,o),
(548,372,o),
(495,372,c),
(495,372,o),
(405,372,o),
(394,274,c),
(410,269,l),
(448,351,o),
(586,301,o),
(511,174,c),
(393,0,l),
(586,0,l),
(613,97,l)
);
},
{
closed = 1;
nodes = (
(570,708,l),
(14,36,l),
(78,36,l),
(635,708,l)
);
},
{
closed = 1;
nodes = (
(120,432,ls),
(120,394,o),
(94,392,o),
(73,392,c),
(73,375,l),
(223,375,l),
(223,392,l),
(206,392,o),
(183,392,o),
(183,432,cs),
(183,746,l),
(166,746,l),
(69,671,l),
(80,655,l),
(80,655,o),
(120,683,o),
(120,644,cs)
);
}
);
width = 655;
}
);
note = onehalf;
unicode = 189;
},
{
glyphname = threequarters;
layers = (
{
hints = (
{
horizontal = 1;
place = (0, 139);
place = (0, 139);
type = Stem;
},
{
horizontal = 1;
place = (389, -20);
target = down;
type = TopGhost;
},
{
horizontal = 1;
place = (708, -20);
target = down;
type = TopGhost;
},
{
horizontal = 1;
place = (746, -20);
target = down;
type = TopGhost;
},
{
place = (453, 76);
place = (453, 76);
type = Stem;
},
{
horizontal = 1;
place = (103, 36);
place = (103, 36);
type = Stem;
},
{
horizontal = 1;
place = (372, -20);
target = down;
type = TopGhost;
}
);
layerId = m01;
shapes = (
{
closed = 1;
nodes = (
(570,708,l),
(14,36,l),
(78,36,l),
(635,708,l)
);
},
{
closed = 1;
nodes = (
(268,530,o),
(245,571,o),
(197,585,c),
(283,668,o),
(218,746,o),
(144,746,c),
(144,746,o),
(64,746,o),
(54,663,c),
(72,657,l),
(91,697,o),
(132,701,o),
(156,684,cs),
(186,661,o),
(196,599,o),
(110,573,c),
(110,558,l),
(191,548,o),
(202,494,o),
(206,476,cs),
(212,436,o),
(202,389,o),
(149,389,cs),
(108,389,o),
(103,399,o),
(108,401,cs),
(115,404,o),
(118,411,o),
(122,421,c),
(126,443,o),
(113,464,o),
(91,470,cs),
(70,474,o),
(48,461,o),
(44,439,cs),
(41,425,o),
(46,408,o),
(57,400,cs),
(80,382,o),
(109,372,o),
(149,372,cs),
(195,372,o),
(271,401,o),
(271,499,c)
);
},
{
closed = 1;
nodes = (
(583,103,l),
(583,139,l),
(529,139,l),
(529,364,l),
(502,367,l),
(332,112,l),
(332,103,l),
(453,103,l),
(453,81,ls),
(453,19,o),
(431,17,o),
(409,17,c),
(409,0,l),
(573,0,l),
(573,17,l),
(551,17,o),
(529,18,o),
(529,83,cs),
(529,103,l)
);
},
{
closed = 1;
nodes = (
(453,139,l),
(397,139,ls),
(387,139,o),
(373,139,o),
(390,167,cs),
(453,261,l)
);
}
);
width = 656;
}
);
note = threequarters;
unicode = 190;
},
{
glyphname = questiondown;
layers = (
{
hints = (
{
horizontal = 1;
place = (306, 169);
place = (306, 169);
type = Stem;
},
{
place = (243, 169);
place = (243, 169);
type = Stem;
},
{
place = (101, 145);
place = (101, 145);
type = Stem;
}
);
layerId = m01;
shapes = (
{
closed = 1;
nodes = (
(375,306,o),
(412,343,o),
(412,390,cs),
(412,437,o),
(375,475,o),
(328,475,cs),
(281,475,o),
(243,437,o),
(243,390,cs),
(243,343,o),
(281,306,o),
(328,306,cs)
);
},
{
closed = 1;
nodes = (
(108,-234,o),
(281,-308,o),
(441,-237,cs),
(490,-215,o),
(519,-174,o),
(525,-148,cs),
(531,-126,o),
(533,-100,o),
(518,-79,cs),
(496,-48,o),
(453,-39,o),
(423,-60,cs),
(394,-82,o),
(386,-124,o),
(407,-155,cs),
(418,-170,o),
(432,-180,o),
(449,-182,cs),
(458,-183,o),
(467,-208,o),
(436,-221,cs),
(353,-253,o),
(255,-218,o),
(246,-103,cs),
(237,-10,o),
(253,36,o),
(300,76,cs),
(364,129,o),
(359,196,o),
(353,235,c),
(327,231,l),
(332,171,o),
(299,127,o),
(245,113,cs),
(187,98,o),
(95,39,o),
(101,-107,cs)
);
}
);
width = 605;
}
);
note = questiondown;
unicode = 191;
},
{
glyphname = Agrave;
kernLeft = A;
kernRight = A;
layers = (
{
hints = (
{
horizontal = 1;
place = (0, 214);
place = (0, 214);
type = Stem;
},
{
horizontal = 1;
place = (704, -20);
target = down;
type = TopGhost;
},
{
horizontal = 1;
place = (197, -20);
target = down;
type = TopGhost;
},
{
horizontal = 1;
place = (735, 21);
target = up;
type = BottomGhost;
},
{
horizontal = 1;
place = (898, -20);
target = down;
type = TopGhost;
}
);
layerId = m01;
shapes = (
{
closed = 1;
nodes = (
(610,90,o),
(601,116,o),
(356,704,c),
(339,704,l),
(166,248,l),
(68,11,o),
(43,19,o),
(17,17,c),
(17,0,l),
(263,0,l),
(263,17,l),
(105,9,o),
(167,197,o),
(167,197,c),
(404,197,l),
(434,124,l),
(434,124,o),
(486,17,o),
(408,17,c),
(408,0,l),
(694,0,l),
(694,17,l),
(668,19,o),
(644,10,o),
(610,90,c)
);
},
{
closed = 1;
nodes = (
(170,214,l),
(279,506,l),
(398,214,l)
);
},
{
closed = 1;
nodes = (
(316,898,l),
(204,863,l),
(448,735,l),
(485,735,l)
);
}
);
width = 708;
}
);
note = Agrave;
unicode = 192;
},
{
glyphname = Aacute;
kernLeft = A;
kernRight = A;
layers = (
{
hints = (
{
horizontal = 1;
place = (0, 214);
place = (0, 214);
type = Stem;
},
{
horizontal = 1;
place = (704, -20);
target = down;
type = TopGhost;
},
{
horizontal = 1;
place = (197, -20);
target = down;
type = TopGhost;
},
{
horizontal = 1;
place = (735, 21);
target = up;
type = BottomGhost;
},
{
horizontal = 1;
place = (898, -20);
target = down;
type = TopGhost;
}
);
layerId = m01;
shapes = (
{
closed = 1;
nodes = (
(610,90,o),
(601,116,o),
(356,704,c),
(339,704,l),
(166,248,l),
(68,11,o),
(43,19,o),
(17,17,c),
(17,0,l),
(263,0,l),
(263,17,l),
(105,9,o),
(167,197,o),
(167,197,c),
(404,197,l),
(434,124,l),
(434,124,o),
(486,17,o),
(408,17,c),
(408,0,l),
(694,0,l),
(694,17,l),
(668,19,o),
(644,10,o),
(610,90,c)
);
},
{
closed = 1;
nodes = (
(170,214,l),
(279,506,l),
(398,214,l)
);
},
{
closed = 1;
nodes = (
(223,735,l),
(260,735,l),
(504,863,l),
(392,898,l)
);
}
);
width = 708;
}
);
note = Aacute;
unicode = 193;
},
{
glyphname = Acircumflex;
kernLeft = A;
kernRight = A;
layers = (
{
hints = (
{
horizontal = 1;
place = (0, 214);
place = (0, 214);
type = Stem;
},
{
horizontal = 1;
place = (704, -20);
target = down;
type = TopGhost;
},
{
horizontal = 1;
place = (197, -20);
target = down;
type = TopGhost;
},
{
horizontal = 1;
place = (735, 20);
place = (735, 20);
type = Stem;
},
{
horizontal = 1;
place = (901, 21);
place = (901, 21);
type = Stem;
}
);
layerId = m01;
shapes = (
{
closed = 1;
nodes = (
(610,90,o),
(601,116,o),
(356,704,c),
(339,704,l),
(166,248,l),
(68,11,o),
(43,19,o),
(17,17,c),
(17,0,l),
(263,0,l),
(263,17,l),
(105,9,o),
(167,197,o),
(167,197,c),
(404,197,l),
(434,124,l),
(434,124,o),
(486,17,o),
(408,17,c),
(408,0,l),
(694,0,l),
(694,17,l),
(668,19,o),
(644,10,o),
(610,90,c)
);
},
{
closed = 1;
nodes = (
(170,214,l),
(279,506,l),
(398,214,l)
);
},
{
closed = 1;
nodes = (
(229,735,l),
(348,812,l),
(466,735,l),
(503,735,l),
(348,922,l),
(193,735,l)
);
}
);
width = 708;
}
);
note = Acircumflex;
unicode = 194;
},
{
glyphname = Atilde;
kernLeft = A;
kernRight = A;
layers = (
{
hints = (
{
horizontal = 1;
place = (0, 214);
place = (0, 214);
type = Stem;
},
{
horizontal = 1;
place = (704, -20);
target = down;
type = TopGhost;
},
{
horizontal = 1;
place = (197, -20);
target = down;
type = TopGhost;
}
);
layerId = m01;
shapes = (
{
closed = 1;
nodes = (
(395,750,l),
(395,750,o),
(515,710,o),
(587,884,c),
(572,892,l),
(546,838,o),
(456,829,o),
(421,841,cs),
(302,885,l),
(302,885,o),
(181,925,o),
(110,751,c),
(125,745,l),
(151,800,o),
(241,805,o),
(275,793,cs)
);
},
{
closed = 1;
nodes = (
(610,90,o),
(601,116,o),
(356,704,c),
(339,704,l),
(166,248,l),
(68,11,o),
(43,19,o),
(17,17,c),
(17,0,l),
(263,0,l),
(263,17,l),
(105,9,o),
(167,197,o),
(167,197,c),
(404,197,l),
(434,124,l),
(434,124,o),
(486,17,o),
(408,17,c),
(408,0,l),
(694,0,l),
(694,17,l),
(668,19,o),
(644,10,o),
(610,90,c)
);
},
{
closed = 1;
nodes = (
(170,214,l),
(279,506,l),
(398,214,l)
);
}
);
width = 708;
}
);
note = Atilde;
unicode = 195;
},
{
glyphname = Adieresis;
kernLeft = A;
kernRight = A;
layers = (
{
hints = (
{
horizontal = 1;
place = (774, 118);
place = (774, 118);
type = Stem;
},
{
place = (197, 118);
place = (197, 118);
type = Stem;
},
{
place = (385, 119);
place = (385, 119);
type = Stem;
},
{
horizontal = 1;
place = (0, 214);
place = (0, 214);
type = Stem;
},
{
horizontal = 1;
place = (704, -20);
target = down;
type = TopGhost;
},
{
horizontal = 1;
place = (197, -20);
target = down;
type = TopGhost;
}
);
layerId = m01;
shapes = (
{
closed = 1;
nodes = (
(289,774,o),
(315,800,o),
(315,833,cs),
(315,865,o),
(289,892,o),
(256,892,cs),
(224,892,o),
(197,865,o),
(197,833,cs),
(197,800,o),
(224,774,o),
(256,774,cs)
);
},
{
closed = 1;
nodes = (
(477,774,o),
(504,800,o),
(504,833,cs),
(504,865,o),
(477,892,o),
(444,892,cs),
(412,892,o),
(385,865,o),
(385,833,cs),
(385,800,o),
(412,774,o),
(444,774,cs)
);
},
{
closed = 1;
nodes = (
(610,90,o),
(601,116,o),
(356,704,c),
(339,704,l),
(166,248,l),
(68,11,o),
(43,19,o),
(17,17,c),
(17,0,l),
(263,0,l),
(263,17,l),
(105,9,o),
(167,197,o),
(167,197,c),
(404,197,l),
(434,124,l),
(434,124,o),
(486,17,o),
(408,17,c),
(408,0,l),
(694,0,l),
(694,17,l),
(668,19,o),
(644,10,o),
(610,90,c)
);
},
{
closed = 1;
nodes = (
(170,214,l),
(279,506,l),
(398,214,l)
);
}
);
width = 708;
}
);
note = Adieresis;
unicode = 196;
},
{
glyphname = Aring;
kernLeft = A;
kernRight = A;
layers = (
{
hints = (
{
horizontal = 1;
place = (775, 45);
place = (775, 45);
type = Stem;
},
{
horizontal = 1;
place = (940, 46);
place = (940, 46);
type = Stem;
},
{
place = (245, 45);
place = (245, 45);
type = Stem;
},
{
place = (410, 46);
place = (410, 46);
type = Stem;
},
{
horizontal = 1;
place = (0, 214);
place = (0, 214);
type = Stem;
},
{
horizontal = 1;
place = (704, -20);
target = down;
type = TopGhost;
},
{
horizontal = 1;
place = (197, -20);
target = down;
type = TopGhost;
}
);
layerId = m01;
shapes = (
{
closed = 1;
nodes = (
(408,775,o),
(456,822,o),
(456,880,cs),
(456,938,o),
(408,986,o),
(350,986,cs),
(292,986,o),
(245,938,o),
(245,880,cs),
(245,822,o),
(292,775,o),
(350,775,cs)
);
},
{
closed = 1;
nodes = (
(384,940,o),
(410,913,o),
(410,880,cs),
(410,847,o),
(384,820,o),
(350,820,cs),
(317,820,o),
(290,847,o),
(290,880,cs),
(290,913,o),
(317,940,o),
(350,940,cs)
);
},
{
closed = 1;
nodes = (
(610,90,o),
(601,116,o),
(356,704,c),
(339,704,l),
(166,248,l),
(68,11,o),
(43,19,o),
(17,17,c),
(17,0,l),
(263,0,l),
(263,17,l),
(105,9,o),
(167,197,o),
(167,197,c),
(404,197,l),
(434,124,l),
(434,124,o),
(486,17,o),
(408,17,c),
(408,0,l),
(694,0,l),
(694,17,l),
(668,19,o),
(644,10,o),
(610,90,c)
);
},
{
closed = 1;
nodes = (
(170,214,l),
(279,506,l),
(398,214,l)
);
}
);
width = 708;
}
);
note = Aring;
unicode = 197;
},
{
glyphname = AE;
kernLeft = A;
layers = (
{
hints = (
{
horizontal = 1;
place = (0, 21);
target = up;
type = BottomGhost;
},
{
horizontal = 1;
place = (216, -20);
target = down;
type = TopGhost;
},
{
horizontal = 1;
place = (259, -20);
target = down;
type = TopGhost;
},
{
horizontal = 1;
place = (345, -20);
target = down;
type = TopGhost;
},
{
horizontal = 1;
place = (466, -20);
target = down;
type = TopGhost;
},
{
horizontal = 1;
place = (704, -20);
target = down;
type = TopGhost;
},
{
place = (448, 146);
place = (448, 146);
type = Stem;
},
{
horizontal = 1;
place = (242, -20);
target = down;
type = TopGhost;
},
{
horizontal = 1;
place = (362, -20);
target = down;
type = TopGhost;
}
);
layerId = m01;
shapes = (
{
closed = 1;
nodes = (
(448,259,l),
(241,259,l),
(444,618,l),
(447,603,o),
(448,586,o),
(448,566,cs)
);
},
{
closed = 1;
nodes = (
(917,216,l),
(878,17,o),
(630,17,o),
(630,17,c),
(594,17,l),
(594,345,l),
(630,345,l),
(630,345,o),
(761,348,o),
(772,242,c),
(789,242,l),
(789,466,l),
(772,466,l),
(761,359,o),
(630,362,o),
(630,362,c),
(594,362,l),
(594,687,l),
(630,687,l),
(630,687,o),
(881,687,o),
(903,513,c),
(920,513,l),
(920,704,l),
(356,704,l),
(356,687,l),
(386,687,o),
(419,684,o),
(436,643,c),
(229,276,ls),
(94,41,o),
(38,19,o),
(12,17,c),
(12,0,l),
(269,0,l),
(269,17,l),
(229,17,o),
(109,9,o),
(234,242,c),
(448,242,l),
(448,136,ls),
(448,32,o),
(415,17,o),
(372,17,c),
(372,0,l),
(934,0,l),
(934,216,l)
);
}
);
width = 996;
}
);
note = AE;
unicode = 198;
},
{
glyphname = Ccedilla;
kernLeft = C;
kernRight = C;
layers = (
{
hints = (
{
horizontal = 1;
place = (-234, 242);
place = (-234, 242);
type = Stem;
},
{
horizontal = 1;
place = (210, -20);
target = down;
type = TopGhost;
},
{
horizontal = 1;
place = (713, -20);
target = down;
type = TopGhost;
},
{
place = (40, 180);
place = (40, 180);
type = Stem;
},
{
horizontal = 1;
place = (-9, 21);
target = up;
type = BottomGhost;
},
{
place = (220, 218);
place = (220, 218);
type = Stem;
}
);
layerId = m01;
shapes = (
{
closed = 1;
nodes = (
(632,210,l),
(615,210,l),
(589,101,o),
(507,8,o),
(387,8,cs),
(279,8,o),
(220,77,o),
(220,352,cs),
(220,626,o),
(276,696,o),
(387,696,cs),
(501,696,o),
(559,630,o),
(615,495,c),
(632,495,l),
(646,652,l),
(583,703,o),
(490,713,o),
(387,713,cs),
(173,713,o),
(40,551,o),
(40,352,cs),
(40,158,o),
(166,-1,o),
(370,-9,c),
(340,-95,l),
(416,-83,o),
(438,-146,o),
(438,-164,cs),
(439,-195,o),
(420,-218,o),
(388,-218,cs),
(360,-218,o),
(358,-212,o),
(360,-210,cs),
(364,-207,o),
(367,-203,o),
(368,-196,cs),
(371,-178,o),
(361,-163,o),
(344,-159,cs),
(327,-155,o),
(310,-165,o),
(306,-182,cs),
(304,-194,o),
(309,-207,o),
(317,-213,cs),
(325,-220,o),
(351,-234,o),
(388,-234,cs),
(421,-234,o),
(484,-218,o),
(493,-151,cs),
(499,-100,o),
(459,-44,o),
(368,-65,c),
(387,-9,l),
(494,-9,o),
(572,4,o),
(646,53,c)
);
}
);
width = 689;
}
);
note = Ccedilla;
unicode = 199;
},
{
glyphname = Egrave;
layers = (
{
hints = (
{
horizontal = 1;
place = (0, 21);
target = up;
type = BottomGhost;
},
{
horizontal = 1;
place = (218, -20);
target = down;
type = TopGhost;
},
{
horizontal = 1;
place = (243, -20);
target = down;
type = TopGhost;
},
{
horizontal = 1;
place = (350, -20);
target = down;
type = TopGhost;
},
{
horizontal = 1;
place = (704, -20);
target = down;
type = TopGhost;
},
{
horizontal = 1;
place = (955, -20);
target = down;
type = TopGhost;
},
{
place = (80, 145);
place = (80, 145);
type = Stem;
},
{
horizontal = 1;
place = (347, -20);
target = down;
type = TopGhost;
},
{
horizontal = 1;
place = (468, -20);
target = down;
type = TopGhost;
},
{
place = (85, 145);
place = (85, 145);
type = Stem;
},
{
horizontal = 1;
place = (364, -20);
target = down;
type = TopGhost;
}
);
layerId = m01;
shapes = (
{
closed = 1;
nodes = (
(573,218,l),
(531,17,o),
(266,17,o),
(266,17,c),
(230,17,l),
(230,347,l),
(266,347,l),
(266,347,o),
(418,347,o),
(428,243,c),
(445,243,l),
(445,468,l),
(428,468,l),
(418,364,o),
(266,364,o),
(266,364,c),
(230,364,l),
(230,687,l),
(266,687,l),
(266,687,o),
(537,687,o),
(560,514,c),
(577,514,l),
(577,704,l),
(27,704,l),
(27,687,l),
(71,687,o),
(85,628,o),
(85,566,cs),
(85,137,ls),
(85,69,o),
(69,17,o),
(27,17,c),
(27,0,l),
(590,0,l),
(590,218,l)
);
},
{
closed = 1;
nodes = (
(275,898,l),
(163,863,l),
(407,735,l),
(444,735,l)
);
}
);
width = 648;
}
);
note = Egrave;
unicode = 200;
},
{
glyphname = Eacute;
layers = (
{
hints = (
{
horizontal = 1;
place = (0, 21);
target = up;
type = BottomGhost;
},
{
horizontal = 1;
place = (218, -20);
target = down;
type = TopGhost;
},
{
horizontal = 1;
place = (243, -20);
target = down;
type = TopGhost;
},
{
horizontal = 1;
place = (350, -20);
target = down;
type = TopGhost;
},
{
horizontal = 1;
place = (704, -20);
target = down;
type = TopGhost;
},
{
horizontal = 1;
place = (956, -20);
target = down;
type = TopGhost;
},
{
place = (80, 145);
place = (80, 145);
type = Stem;
},
{
horizontal = 1;
place = (347, -20);
target = down;
type = TopGhost;
},
{
horizontal = 1;
place = (468, -20);
target = down;
type = TopGhost;
},
{
place = (85, 145);
place = (85, 145);
type = Stem;
},
{
horizontal = 1;
place = (364, -20);
target = down;
type = TopGhost;
}
);
layerId = m01;
shapes = (
{
closed = 1;
nodes = (
(573,218,l),
(531,17,o),
(266,17,o),
(266,17,c),
(230,17,l),
(230,347,l),
(266,347,l),
(266,347,o),
(418,347,o),
(428,243,c),
(445,243,l),
(445,468,l),
(428,468,l),
(418,364,o),
(266,364,o),
(266,364,c),
(230,364,l),
(230,687,l),
(266,687,l),
(266,687,o),
(537,687,o),
(560,514,c),
(577,514,l),
(577,704,l),
(27,704,l),
(27,687,l),
(71,687,o),
(85,628,o),
(85,566,cs),
(85,137,ls),
(85,69,o),
(69,17,o),
(27,17,c),
(27,0,l),
(590,0,l),
(590,218,l)
);
},
{
closed = 1;
nodes = (
(163,735,l),
(200,735,l),
(444,863,l),
(332,898,l)
);
}
);
width = 648;
}
);
note = Eacute;
unicode = 201;
},
{
glyphname = Ecircumflex;
layers = (
{
hints = (
{
horizontal = 1;
place = (0, 21);
target = up;
type = BottomGhost;
},
{
horizontal = 1;
place = (218, -20);
target = down;
type = TopGhost;
},
{
horizontal = 1;
place = (243, -20);
target = down;
type = TopGhost;
},
{
horizontal = 1;
place = (350, -20);
target = down;
type = TopGhost;
},
{
horizontal = 1;
place = (704, 83);
place = (704, 83);
type = Stem;
},
{
horizontal = 1;
place = (975, -20);
target = down;
type = TopGhost;
},
{
place = (80, 145);
place = (80, 145);
type = Stem;
},
{
horizontal = 1;
place = (347, -20);
target = down;
type = TopGhost;
},
{
horizontal = 1;
place = (468, -20);
target = down;
type = TopGhost;
},
{
horizontal = 1;
place = (704, -20);
target = down;
type = TopGhost;
},
{
place = (85, 145);
place = (85, 145);
type = Stem;
},
{
horizontal = 1;
place = (364, -20);
target = down;
type = TopGhost;
}
);
layerId = m01;
shapes = (
{
closed = 1;
nodes = (
(573,218,l),
(531,17,o),
(266,17,o),
(266,17,c),
(230,17,l),
(230,347,l),
(266,347,l),
(266,347,o),
(418,347,o),
(428,243,c),
(445,243,l),
(445,468,l),
(428,468,l),
(418,364,o),
(266,364,o),
(266,364,c),
(230,364,l),
(230,687,l),
(266,687,l),
(266,687,o),
(537,687,o),
(560,514,c),
(577,514,l),
(577,704,l),
(27,704,l),
(27,687,l),
(71,687,o),
(85,628,o),
(85,566,cs),
(85,137,ls),
(85,69,o),
(69,17,o),
(27,17,c),
(27,0,l),
(590,0,l),
(590,218,l)
);
},
{
closed = 1;
nodes = (
(189,735,l),
(308,812,l),
(426,735,l),
(463,735,l),
(308,922,l),
(153,735,l)
);
}
);
width = 648;
}
);
note = Ecircumflex;
unicode = 202;
},
{
glyphname = Edieresis;
layers = (
{
hints = (
{
horizontal = 1;
place = (774, 118);
place = (774, 118);
type = Stem;
},
{
place = (151, 118);
place = (151, 118);
type = Stem;
},
{
place = (339, 119);
place = (339, 119);
type = Stem;
},
{
horizontal = 1;
place = (0, 21);
target = up;
type = BottomGhost;
},
{
horizontal = 1;
place = (218, -20);
target = down;
type = TopGhost;
},
{
horizontal = 1;
place = (243, -20);
target = down;
type = TopGhost;
},
{
horizontal = 1;
place = (347, -20);
target = down;
type = TopGhost;
},
{
horizontal = 1;
place = (468, -20);
target = down;
type = TopGhost;
},
{
horizontal = 1;
place = (704, -20);
target = down;
type = TopGhost;
},
{
place = (85, 145);
place = (85, 145);
type = Stem;
},
{
horizontal = 1;
place = (364, -20);
target = down;
type = TopGhost;
}
);
layerId = m01;
shapes = (
{
closed = 1;
nodes = (
(243,774,o),
(269,800,o),
(269,833,cs),
(269,865,o),
(243,892,o),
(210,892,cs),
(178,892,o),
(151,865,o),
(151,833,cs),
(151,800,o),
(178,774,o),
(210,774,cs)
);
},
{
closed = 1;
nodes = (
(431,774,o),
(458,800,o),
(458,833,cs),
(458,865,o),
(431,892,o),
(398,892,cs),
(366,892,o),
(339,865,o),
(339,833,cs),
(339,800,o),
(366,774,o),
(398,774,cs)
);
},
{
closed = 1;
nodes = (
(573,218,l),
(531,17,o),
(266,17,o),
(266,17,c),
(230,17,l),
(230,347,l),
(266,347,l),
(266,347,o),
(418,347,o),
(428,243,c),
(445,243,l),
(445,468,l),
(428,468,l),
(418,364,o),
(266,364,o),
(266,364,c),
(230,364,l),
(230,687,l),
(266,687,l),
(266,687,o),
(537,687,o),
(560,514,c),
(577,514,l),
(577,704,l),
(27,704,l),
(27,687,l),
(71,687,o),
(85,628,o),
(85,566,cs),
(85,137,ls),
(85,69,o),
(69,17,o),
(27,17,c),
(27,0,l),
(590,0,l),
(590,218,l)
);
}
);
width = 648;
}
);
note = Edieresis;
unicode = 203;
},
{
glyphname = Igrave;
layers = (
{
hints = (
{
horizontal = 1;
place = (0, 21);
target = up;
type = BottomGhost;
},
{
horizontal = 1;
place = (704, -20);
target = down;
type = TopGhost;
},
{
place = (122, 145);
place = (122, 145);
type = Stem;
},
{
horizontal = 1;
place = (735, 21);
target = up;
type = BottomGhost;
},
{
horizontal = 1;
place = (898, -20);
target = down;
type = TopGhost;
}
);
layerId = m01;
shapes = (
{
closed = 1;
nodes = (
(37,704,l),
(37,687,l),
(81,687,o),
(122,660,o),
(122,598,cs),
(122,122,ls),
(122,53,o),
(79,17,o),
(37,17,c),
(37,0,l),
(352,0,l),
(352,17,l),
(310,17,o),
(267,53,o),
(267,122,cs),
(267,598,ls),
(267,660,o),
(309,687,o),
(352,687,c),
(352,704,l)
);
},
{
closed = 1;
nodes = (
(156,898,l),
(44,863,l),
(288,735,l),
(325,735,l)
);
}
);
width = 388;
}
);
note = Igrave;
unicode = 204;
},
{
glyphname = Iacute;
layers = (
{
hints = (
{
horizontal = 1;
place = (0, 21);
target = up;
type = BottomGhost;
},
{
horizontal = 1;
place = (704, -20);
target = down;
type = TopGhost;
},
{
place = (122, 145);
place = (122, 145);
type = Stem;
},
{
horizontal = 1;
place = (735, 21);
target = up;
type = BottomGhost;
},
{
horizontal = 1;
place = (898, -20);
target = down;
type = TopGhost;
}
);
layerId = m01;
shapes = (
{
closed = 1;
nodes = (
(352,704,l),
(352,687,l),
(309,687,o),
(267,660,o),
(267,598,cs),
(267,122,ls),
(267,53,o),
(310,17,o),
(352,17,c),
(352,0,l),
(37,0,l),
(37,17,l),
(79,17,o),
(122,53,o),
(122,122,cs),
(122,598,ls),
(122,660,o),
(81,687,o),
(37,687,c),
(37,704,l)
);
},
{
closed = 1;
nodes = (
(53,735,l),
(90,735,l),
(334,863,l),
(222,898,l)
);
}
);
width = 388;
}
);
note = Iacute;
unicode = 205;
},
{
glyphname = Icircumflex;
layers = (
{
hints = (
{
horizontal = 1;
place = (0, 21);
target = up;
type = BottomGhost;
},
{
horizontal = 1;
place = (704, -20);
target = down;
type = TopGhost;
},
{
place = (122, 145);
place = (122, 145);
type = Stem;
},
{
horizontal = 1;
place = (735, 20);
place = (735, 20);
type = Stem;
},
{
horizontal = 1;
place = (901, 21);
place = (901, 21);
type = Stem;
}
);
layerId = m01;
shapes = (
{
closed = 1;
nodes = (
(37,704,l),
(37,687,l),
(81,687,o),
(122,660,o),
(122,598,cs),
(122,122,ls),
(122,53,o),
(79,17,o),
(37,17,c),
(37,0,l),
(352,0,l),
(352,17,l),
(310,17,o),
(267,53,o),
(267,122,cs),
(267,598,ls),
(267,660,o),
(309,687,o),
(352,687,c),
(352,704,l)
);
},
{
closed = 1;
nodes = (
(76,735,l),
(195,812,l),
(313,735,l),
(350,735,l),
(195,922,l),
(40,735,l)
);
}
);
width = 388;
}
);
note = Icircumflex;
unicode = 206;
},
{
glyphname = Idieresis;
layers = (
{
hints = (
{
horizontal = 1;
place = (0, 21);
target = up;
type = BottomGhost;
},
{
horizontal = 1;
place = (704, -20);
target = down;
type = TopGhost;
},
{
horizontal = 1;
place = (774, 118);
place = (774, 118);
type = Stem;
},
{
place = (42, 118);
place = (42, 118);
type = Stem;
},
{
place = (230, 119);
place = (230, 119);
type = Stem;
},
{
horizontal = 1;
place = (687, 87);
place = (687, 87);
type = Stem;
}
);
layerId = m01;
shapes = (
{
closed = 1;
nodes = (
(134,774,o),
(160,800,o),
(160,833,cs),
(160,865,o),
(134,892,o),
(101,892,cs),
(69,892,o),
(42,865,o),
(42,833,cs),
(42,800,o),
(69,774,o),
(101,774,cs)
);
},
{
closed = 1;
nodes = (
(322,774,o),
(349,800,o),
(349,833,cs),
(349,865,o),
(322,892,o),
(289,892,cs),
(257,892,o),
(230,865,o),
(230,833,cs),
(230,800,o),
(257,774,o),
(289,774,cs)
);
},
{
closed = 1;
nodes = (
(352,704,l),
(352,687,l),
(309,687,o),
(267,660,o),
(267,598,cs),
(267,122,ls),
(267,53,o),
(310,17,o),
(352,17,c),
(352,0,l),
(37,0,l),
(37,17,l),
(79,17,o),
(122,53,o),
(122,122,cs),
(122,598,ls),
(122,660,o),
(81,687,o),
(37,687,c),
(37,704,l)
);
}
);
width = 388;
}
);
note = Idieresis;
unicode = 207;
},
{
glyphname = Eth;
kernRight = D;
layers = (
{
hints = (
{
horizontal = 1;
place = (0, 21);
target = up;
type = BottomGhost;
},
{
horizontal = 1;
place = (343, -20);
target = down;
type = TopGhost;
},
{
horizontal = 1;
place = (704, -20);
target = down;
type = TopGhost;
},
{
place = (108, 145);
place = (108, 145);
type = Stem;
},
{
place = (541, 175);
place = (541, 175);
type = Stem;
},
{
horizontal = 1;
place = (361, -20);
target = down;
type = TopGhost;
}
);
layerId = m01;
shapes = (
{
closed = 1;
nodes = (
(34,343,l),
(108,343,l),
(108,137,ls),
(108,69,o),
(76,17,o),
(33,17,c),
(33,0,l),
(297,0,ls),
(496,0,o),
(716,57,o),
(716,349,cs),
(716,642,o),
(496,704,o),
(297,704,cs),
(33,704,l),
(33,687,l),
(77,687,o),
(108,628,o),
(108,566,cs),
(108,361,l),
(34,361,l)
);
},
{
closed = 1;
nodes = (
(253,17,l),
(253,343,l),
(399,343,l),
(399,361,l),
(253,361,l),
(253,687,l),
(297,687,ls),
(395,687,o),
(541,661,o),
(541,349,cs),
(541,38,o),
(395,17,o),
(297,17,cs)
);
}
);
width = 764;
}
);
note = Eth;
unicode = 208;
},
{
glyphname = Ntilde;
kernRight = N;
layers = (
{
hints = (
{
horizontal = 1;
place = (0, 21);
target = up;
type = BottomGhost;
},
{
horizontal = 1;
place = (704, -20);
target = down;
type = TopGhost;
}
);
layerId = m01;
shapes = (
{
closed = 1;
nodes = (
(468,750,l),
(468,750,o),
(588,710,o),
(660,884,c),
(645,892,l),
(619,838,o),
(529,829,o),
(494,841,cs),
(375,885,l),
(375,885,o),
(254,925,o),
(183,751,c),
(198,745,l),
(224,800,o),
(314,805,o),
(348,793,cs)
);
},
{
closed = 1;
nodes = (
(520,704,l),
(520,687,l),
(658,688,o),
(657,450,o),
(657,450,c),
(657,207,l),
(254,704,l),
(9,704,l),
(9,687,l),
(35,685,o),
(64,696,o),
(128,616,cs),
(167,567,l),
(167,255,l),
(167,255,o),
(168,17,o),
(17,17,c),
(17,0,l),
(321,0,l),
(321,17,l),
(183,17,o),
(184,255,o),
(184,255,c),
(184,549,l),
(621,0,l),
(674,0,l),
(674,450,l),
(674,450,o),
(672,688,o),
(823,687,c),
(823,704,l)
);
}
);
width = 840;
}
);
note = Ntilde;
unicode = 209;
},
{
glyphname = Ograve;
kernLeft = O;
kernRight = O;
layers = (
{
hints = (
{
horizontal = 1;
place = (-8, 21);
target = up;
type = BottomGhost;
},
{
horizontal = 1;
place = (713, -20);
target = down;
type = TopGhost;
},
{
horizontal = 1;
place = (959, -20);
target = down;
type = TopGhost;
},
{
place = (42, 171);
place = (42, 171);
type = Stem;
},
{
place = (559, 173);
place = (559, 173);
type = Stem;
},
{
horizontal = 1;
place = (-9, 21);
target = up;
type = BottomGhost;
},
{
place = (41, 171);
place = (41, 171);
type = Stem;
},
{
place = (558, 173);
place = (558, 173);
type = Stem;
}
);
layerId = m01;
shapes = (
{
closed = 1;
nodes = (
(166,713,o),
(41,545,o),
(41,347,cs),
(41,148,o),
(166,-9,o),
(386,-9,cs),
(606,-9,o),
(731,148,o),
(731,347,cs),
(731,545,o),
(606,713,o),
(386,713,cs)
);
},
{
closed = 1;
nodes = (
(267,8,o),
(212,72,o),
(212,347,cs),
(212,621,o),
(267,696,o),
(386,696,cs),
(504,696,o),
(558,621,o),
(558,347,cs),
(558,72,o),
(504,8,o),
(386,8,cs)
);
},
{
closed = 1;
nodes = (
(352,898,l),
(240,863,l),
(484,735,l),
(521,735,l)
);
}
);
width = 776;
}
);
note = Ograve;
unicode = 210;
},
{
glyphname = Oacute;
kernLeft = O;
kernRight = O;
layers = (
{
hints = (
{
horizontal = 1;
place = (-9, 21);
target = up;
type = BottomGhost;
},
{
horizontal = 1;
place = (713, -20);
target = down;
type = TopGhost;
},
{
place = (41, 171);
place = (41, 171);
type = Stem;
},
{
place = (558, 173);
place = (558, 173);
type = Stem;
},
{
horizontal = 1;
place = (735, 21);
target = up;
type = BottomGhost;
},
{
horizontal = 1;
place = (898, -20);
target = down;
type = TopGhost;
}
);
layerId = m01;
shapes = (
{
closed = 1;
nodes = (
(166,713,o),
(41,545,o),
(41,347,cs),
(41,148,o),
(166,-9,o),
(386,-9,cs),
(606,-9,o),
(731,148,o),
(731,347,cs),
(731,545,o),
(606,713,o),
(386,713,cs)
);
},
{
closed = 1;
nodes = (
(267,8,o),
(212,72,o),
(212,347,cs),
(212,621,o),
(267,696,o),
(386,696,cs),
(504,696,o),
(558,621,o),
(558,347,cs),
(558,72,o),
(504,8,o),
(386,8,cs)
);
},
{
closed = 1;
nodes = (
(246,735,l),
(283,735,l),
(527,863,l),
(415,898,l)
);
}
);
width = 776;
}
);
note = Oacute;
unicode = 211;
},
{
glyphname = Ocircumflex;
kernLeft = O;
kernRight = O;
layers = (
{
hints = (
{
horizontal = 1;
place = (-8, 21);
target = up;
type = BottomGhost;
},
{
horizontal = 1;
place = (704, -20);
target = down;
type = TopGhost;
},
{
horizontal = 1;
place = (713, 78);
place = (713, 78);
type = Stem;
},
{
horizontal = 1;
place = (979, -20);
target = down;
type = TopGhost;
},
{
place = (42, 171);
place = (42, 171);
type = Stem;
},
{
place = (559, 173);
place = (559, 173);
type = Stem;
},
{
horizontal = 1;
place = (-9, 21);
target = up;
type = BottomGhost;
},
{
horizontal = 1;
place = (713, -20);
target = down;
type = TopGhost;
},
{
place = (41, 171);
place = (41, 171);
type = Stem;
},
{
place = (558, 173);
place = (558, 173);
type = Stem;
}
);
layerId = m01;
shapes = (
{
closed = 1;
nodes = (
(166,713,o),
(41,545,o),
(41,347,cs),
(41,148,o),
(166,-9,o),
(386,-9,cs),
(606,-9,o),
(731,148,o),
(731,347,cs),
(731,545,o),
(606,713,o),
(386,713,cs)
);
},
{
closed = 1;
nodes = (
(267,8,o),
(212,72,o),
(212,347,cs),
(212,621,o),
(267,696,o),
(386,696,cs),
(504,696,o),
(558,621,o),
(558,347,cs),
(558,72,o),
(504,8,o),
(386,8,cs)
);
},
{
closed = 1;
nodes = (
(271,735,l),
(390,812,l),
(508,735,l),
(545,735,l),
(390,922,l),
(235,735,l)
);
}
);
width = 776;
}
);
note = Ocircumflex;
unicode = 212;
},
{
glyphname = Otilde;
kernLeft = O;
kernRight = O;
layers = (
{
hints = (
{
horizontal = 1;
place = (-9, 21);
target = up;
type = BottomGhost;
},
{
horizontal = 1;
place = (713, -20);
target = down;
type = TopGhost;
},
{
place = (41, 171);
place = (41, 171);
type = Stem;
},
{
place = (558, 173);
place = (558, 173);
type = Stem;
}
);
layerId = m01;
shapes = (
{
closed = 1;
nodes = (
(437,750,l),
(437,750,o),
(557,710,o),
(629,884,c),
(614,892,l),
(588,838,o),
(498,829,o),
(463,841,cs),
(344,885,l),
(344,885,o),
(223,925,o),
(152,751,c),
(167,745,l),
(193,800,o),
(283,805,o),
(317,793,cs)
);
},
{
closed = 1;
nodes = (
(166,713,o),
(41,545,o),
(41,347,cs),
(41,148,o),
(166,-9,o),
(386,-9,cs),
(606,-9,o),
(731,148,o),
(731,347,cs),
(731,545,o),
(606,713,o),
(386,713,cs)
);
},
{
closed = 1;
nodes = (
(267,8,o),
(212,72,o),
(212,347,cs),
(212,621,o),
(267,696,o),
(386,696,cs),
(504,696,o),
(558,621,o),
(558,347,cs),
(558,72,o),
(504,8,o),
(386,8,cs)
);
}
);
width = 776;
}
);
note = Otilde;
unicode = 213;
},
{
glyphname = Odieresis;
kernLeft = O;
kernRight = O;
layers = (
{
hints = (
{
horizontal = 1;
place = (774, 118);
place = (774, 118);
type = Stem;
},
{
place = (234, 118);
place = (234, 118);
type = Stem;
},
{
place = (422, 119);
place = (422, 119);
type = Stem;
},
{
horizontal = 1;
place = (-9, 21);
target = up;
type = BottomGhost;
},
{
horizontal = 1;
place = (713, -20);
target = down;
type = TopGhost;
},
{
place = (41, 171);
place = (41, 171);
type = Stem;
},
{
place = (558, 173);
place = (558, 173);
type = Stem;
}
);
layerId = m01;
shapes = (
{
closed = 1;
nodes = (
(326,774,o),
(352,800,o),
(352,833,cs),
(352,865,o),
(326,892,o),
(293,892,cs),
(261,892,o),
(234,865,o),
(234,833,cs),
(234,800,o),
(261,774,o),
(293,774,cs)
);
},
{
closed = 1;
nodes = (
(514,774,o),
(541,800,o),
(541,833,cs),
(541,865,o),
(514,892,o),
(481,892,cs),
(449,892,o),
(422,865,o),
(422,833,cs),
(422,800,o),
(449,774,o),
(481,774,cs)
);
},
{
closed = 1;
nodes = (
(166,713,o),
(41,545,o),
(41,347,cs),
(41,148,o),
(166,-9,o),
(386,-9,cs),
(606,-9,o),
(731,148,o),
(731,347,cs),
(731,545,o),
(606,713,o),
(386,713,cs)
);
},
{
closed = 1;
nodes = (
(267,8,o),
(212,72,o),
(212,347,cs),
(212,621,o),
(267,696,o),
(386,696,cs),
(504,696,o),
(558,621,o),
(558,347,cs),
(558,72,o),
(504,8,o),
(386,8,cs)
);
}
);
width = 776;
}
);
note = Odieresis;
unicode = 214;
},
{
glyphname = multiply;
layers = (
{
hints = (
{
horizontal = 1;
place = (13, 21);
target = up;
type = BottomGhost;
},
{
horizontal = 1;
place = (495, -20);
target = down;
type = TopGhost;
}
);
layerId = m01;
shapes = (
{
closed = 1;
nodes = (
(540,432,l),
(478,495,l),
(300,317,l),
(122,495,l),
(59,432,l),
(237,254,l),
(59,76,l),
(122,13,l),
(300,191,l),
(478,13,l),
(540,76,l),
(362,254,l)
);
}
);
width = 600;
}
);
note = multiply;
unicode = 215;
},
{
glyphname = Oslash;
kernLeft = O;
kernRight = O;
layers = (
{
hints = (
{
horizontal = 1;
place = (-35, 21);
target = up;
type = BottomGhost;
},
{
horizontal = 1;
place = (-9, 21);
target = up;
type = BottomGhost;
},
{
horizontal = 1;
place = (713, -20);
target = down;
type = TopGhost;
},
{
horizontal = 1;
place = (745, -20);
target = down;
type = TopGhost;
},
{
place = (41, 171);
place = (41, 171);
type = Stem;
},
{
place = (558, 173);
place = (558, 173);
type = Stem;
}
);
layerId = m01;
shapes = (
{
closed = 1;
nodes = (
(166,713,o),
(41,545,o),
(41,347,cs),
(41,218,o),
(93,108,o),
(189,45,c),
(140,-35,l),
(161,-35,l),
(204,36,l),
(254,7,o),
(315,-9,o),
(386,-9,cs),
(606,-9,o),
(731,148,o),
(731,347,cs),
(731,475,o),
(678,591,o),
(581,657,c),
(635,745,l),
(614,745,l),
(566,666,l),
(516,696,o),
(456,713,o),
(386,713,cs)
);
},
{
closed = 1;
nodes = (
(212,621,o),
(267,696,o),
(386,696,cs),
(453,696,o),
(499,672,o),
(527,601,c),
(235,121,l),
(219,172,o),
(212,245,o),
(212,347,cs)
);
},
{
closed = 1;
nodes = (
(317,8,o),
(270,29,o),
(242,99,c),
(534,579,l),
(550,525,o),
(558,450,o),
(558,347,cs),
(558,72,o),
(504,8,o),
(386,8,cs)
);
}
);
width = 777;
}
);
note = Oslash;
unicode = 216;
},
{
glyphname = Ugrave;
kernLeft = U;
kernRight = U;
layers = (
{
hints = (
{
horizontal = 1;
place = (-9, 60);
place = (-9, 60);
type = Stem;
},
{
horizontal = 1;
place = (704, -20);
target = down;
type = TopGhost;
},
{
place = (92, 145);
place = (92, 145);
type = Stem;
},
{
horizontal = 1;
place = (735, 21);
target = up;
type = BottomGhost;
},
{
horizontal = 1;
place = (898, -20);
target = down;
type = TopGhost;
}
);
layerId = m01;
shapes = (
{
closed = 1;
nodes = (
(340,898,l),
(228,863,l),
(472,735,l),
(509,735,l)
);
},
{
closed = 1;
nodes = (
(736,704,l),
(434,704,l),
(434,687,l),
(572,688,o),
(570,537,o),
(570,537,c),
(570,240,ls),
(570,114,o),
(481,51,o),
(405,51,cs),
(310,51,o),
(237,121,o),
(237,239,cs),
(237,599,ls),
(237,671,o),
(287,687,o),
(330,687,c),
(330,704,l),
(12,704,l),
(12,687,l),
(56,687,o),
(92,660,o),
(92,599,cs),
(92,246,ls),
(92,83,o),
(204,-9,o),
(340,-9,cs),
(428,-9,o),
(587,26,o),
(587,240,cs),
(587,537,l),
(587,537,o),
(585,688,o),
(736,687,c)
);
}
);
width = 752;
}
);
note = Ugrave;
unicode = 217;
},
{
glyphname = Uacute;
kernLeft = U;
kernRight = U;
layers = (
{
hints = (
{
horizontal = 1;
place = (-9, 60);
place = (-9, 60);
type = Stem;
},
{
horizontal = 1;
place = (704, -20);
target = down;
type = TopGhost;
},
{
horizontal = 1;
place = (959, -20);
target = down;
type = TopGhost;
},
{
place = (92, 145);
place = (92, 145);
type = Stem;
}
);
layerId = m01;
shapes = (
{
closed = 1;
nodes = (
(736,704,l),
(434,704,l),
(434,687,l),
(572,688,o),
(570,537,o),
(570,537,c),
(570,240,ls),
(570,114,o),
(481,51,o),
(405,51,cs),
(310,51,o),
(237,121,o),
(237,239,cs),
(237,599,ls),
(237,671,o),
(287,687,o),
(330,687,c),
(330,704,l),
(12,704,l),
(12,687,l),
(56,687,o),
(92,660,o),
(92,599,cs),
(92,246,ls),
(92,83,o),
(204,-9,o),
(340,-9,cs),
(428,-9,o),
(587,26,o),
(587,240,cs),
(587,537,l),
(587,537,o),
(585,688,o),
(736,687,c)
);
},
{
closed = 1;
nodes = (
(246,735,l),
(283,735,l),
(527,863,l),
(415,898,l)
);
}
);
width = 752;
}
);
note = Uacute;
unicode = 218;
},
{
glyphname = Ucircumflex;
kernLeft = U;
kernRight = U;
layers = (
{
hints = (
{
horizontal = 1;
place = (-9, 60);
place = (-9, 60);
type = Stem;
},
{
horizontal = 1;
place = (704, -20);
target = down;
type = TopGhost;
},
{
place = (92, 145);
place = (92, 145);
type = Stem;
},
{
horizontal = 1;
place = (735, 20);
place = (735, 20);
type = Stem;
},
{
horizontal = 1;
place = (901, 21);
place = (901, 21);
type = Stem;
}
);
layerId = m01;
shapes = (
{
closed = 1;
nodes = (
(261,735,l),
(380,812,l),
(498,735,l),
(535,735,l),
(380,922,l),
(225,735,l)
);
},
{
closed = 1;
nodes = (
(736,704,l),
(434,704,l),
(434,687,l),
(572,688,o),
(570,537,o),
(570,537,c),
(570,240,ls),
(570,114,o),
(481,51,o),
(405,51,cs),
(310,51,o),
(237,121,o),
(237,239,cs),
(237,599,ls),
(237,671,o),
(287,687,o),
(330,687,c),
(330,704,l),
(12,704,l),
(12,687,l),
(56,687,o),
(92,660,o),
(92,599,cs),
(92,246,ls),
(92,83,o),
(204,-9,o),
(340,-9,cs),
(428,-9,o),
(587,26,o),
(587,240,cs),
(587,537,l),
(587,537,o),
(585,688,o),
(736,687,c)
);
}
);
width = 752;
}
);
note = Ucircumflex;
unicode = 219;
},
{
glyphname = Udieresis;
kernLeft = U;
kernRight = U;
layers = (
{
hints = (
{
horizontal = 1;
place = (774, 118);
place = (774, 118);
type = Stem;
},
{
place = (223, 118);
place = (223, 118);
type = Stem;
},
{
place = (411, 119);
place = (411, 119);
type = Stem;
},
{
horizontal = 1;
place = (-9, 60);
place = (-9, 60);
type = Stem;
},
{
horizontal = 1;
place = (704, -20);
target = down;
type = TopGhost;
},
{
place = (92, 145);
place = (92, 145);
type = Stem;
}
);
layerId = m01;
shapes = (
{
closed = 1;
nodes = (
(315,774,o),
(341,800,o),
(341,833,cs),
(341,865,o),
(315,892,o),
(282,892,cs),
(250,892,o),
(223,865,o),
(223,833,cs),
(223,800,o),
(250,774,o),
(282,774,cs)
);
},
{
closed = 1;
nodes = (
(503,774,o),
(530,800,o),
(530,833,cs),
(530,865,o),
(503,892,o),
(470,892,cs),
(438,892,o),
(411,865,o),
(411,833,cs),
(411,800,o),
(438,774,o),
(470,774,cs)
);
},
{
closed = 1;
nodes = (
(736,704,l),
(434,704,l),
(434,687,l),
(572,688,o),
(570,537,o),
(570,537,c),
(570,240,ls),
(570,114,o),
(481,51,o),
(405,51,cs),
(310,51,o),
(237,121,o),
(237,239,cs),
(237,599,ls),
(237,671,o),
(287,687,o),
(330,687,c),
(330,704,l),
(12,704,l),
(12,687,l),
(56,687,o),
(92,660,o),
(92,599,cs),
(92,246,ls),
(92,83,o),
(204,-9,o),
(340,-9,cs),
(428,-9,o),
(587,26,o),
(587,240,cs),
(587,537,l),
(587,537,o),
(585,688,o),
(736,687,c)
);
}
);
width = 752;
}
);
note = Udieresis;
unicode = 220;
},
{
glyphname = Yacute;
kernLeft = Y;
kernRight = Y;
layers = (
{
hints = (
{
horizontal = 1;
place = (0, 21);
target = up;
type = BottomGhost;
},
{
horizontal = 1;
place = (704, -20);
target = down;
type = TopGhost;
},
{
place = (311, 145);
place = (311, 145);
type = Stem;
},
{
horizontal = 1;
place = (735, 21);
target = up;
type = BottomGhost;
},
{
horizontal = 1;
place = (898, -20);
target = down;
type = TopGhost;
}
);
layerId = m01;
shapes = (
{
closed = 1;
nodes = (
(458,704,l),
(458,687,l),
(602,687,o),
(513,483,o),
(513,483,c),
(446,344,l),
(305,574,ls),
(237,689,o),
(307,688,o),
(328,688,c),
(328,704,l),
(9,704,l),
(9,688,l),
(34,688,o),
(72,685,o),
(116,609,c),
(116,609,o),
(164,536,o),
(311,276,c),
(311,121,ls),
(311,53,o),
(268,17,o),
(226,17,c),
(226,0,l),
(541,0,l),
(541,17,l),
(499,17,o),
(456,53,o),
(456,121,cs),
(456,327,l),
(522,466,ls),
(634,685,o),
(732,687,o),
(758,687,c),
(758,704,l)
);
},
{
closed = 1;
nodes = (
(275,735,l),
(312,735,l),
(556,863,l),
(444,898,l)
);
}
);
width = 771;
}
);
note = Yacute;
unicode = 221;
},
{
glyphname = Thorn;
layers = (
{
hints = (
{
horizontal = 1;
place = (0, 192);
place = (0, 192);
type = Stem;
},
{
horizontal = 1;
place = (559, 145);
place = (559, 145);
type = Stem;
},
{
place = (112, 146);
place = (112, 146);
type = Stem;
},
{
place = (470, 164);
place = (470, 164);
type = Stem;
},
{
horizontal = 1;
place = (175, -20);
target = down;
type = TopGhost;
}
);
layerId = m01;
shapes = (
{
closed = 1;
nodes = (
(258,559,l),
(294,559,ls),
(392,559,o),
(470,552,o),
(470,374,cs),
(470,197,o),
(392,192,o),
(294,192,cs),
(258,192,l)
);
},
{
closed = 1;
nodes = (
(294,175,ls),
(493,175,o),
(634,207,o),
(634,374,cs),
(634,541,o),
(493,576,o),
(294,576,cs),
(258,576,l),
(258,598,ls),
(258,660,o),
(299,687,o),
(342,687,c),
(342,704,l),
(27,704,l),
(27,687,l),
(71,687,o),
(112,660,o),
(112,598,cs),
(112,121,ls),
(112,53,o),
(69,17,o),
(27,17,c),
(27,0,l),
(342,0,l),
(342,17,l),
(300,17,o),
(258,53,o),
(258,121,cs),
(258,175,l)
);
}
);
width = 665;
}
);
note = Thorn;
unicode = 222;
},
{
glyphname = germandbls;
kernRight = s;
layers = (
{
hints = (
{
horizontal = 1;
place = (0, 21);
target = up;
type = BottomGhost;
},
{
horizontal = 1;
place = (408, -20);
target = down;
type = TopGhost;
},
{
horizontal = 1;
place = (747, -20);
target = down;
type = TopGhost;
},
{
place = (68, 124);
place = (68, 124);
type = Stem;
},
{
place = (388, 113);
place = (388, 113);
type = Stem;
},
{
horizontal = 1;
place = (-9, 21);
target = up;
type = BottomGhost;
},
{
place = (460, 141);
place = (460, 141);
type = Stem;
}
);
layerId = m01;
shapes = (
{
closed = 1;
nodes = (
(391,420,o),
(501,449,o),
(501,576,cs),
(501,730,o),
(383,747,o),
(283,747,cs),
(137,747,o),
(68,641,o),
(68,488,cs),
(68,122,ls),
(68,71,o),
(66,29,o),
(28,17,c),
(28,0,l),
(192,0,l),
(192,512,l),
(192,512,o),
(189,730,o),
(283,730,cs),
(297,730,o),
(388,738,o),
(388,582,cs),
(388,449,o),
(338,425,o),
(285,425,c),
(285,408,l),
(351,408,o),
(460,338,o),
(460,215,cs),
(460,128,o),
(458,8,o),
(361,8,cs),
(324,8,o),
(318,19,o),
(326,23,cs),
(339,29,o),
(350,42,o),
(355,58,cs),
(364,89,o),
(346,122,o),
(315,131,cs),
(283,141,o),
(250,123,o),
(241,91,cs),
(235,69,o),
(242,42,o),
(257,26,cs),
(270,10,o),
(302,-9,o),
(361,-9,cs),
(543,-9,o),
(601,92,o),
(601,203,cs),
(601,366,o),
(435,420,o),
(371,420,cs)
);
}
);
width = 624;
}
);
note = germandbls;
unicode = 223;
},
{
glyphname = agrave;
kernLeft = a;
kernRight = a;
layers = (
{
hints = (
{
horizontal = 1;
place = (-8, 60);
place = (-8, 60);
type = Stem;
},
{
horizontal = 1;
place = (697, -20);
target = down;
type = TopGhost;
},
{
place = (41, 128);
place = (41, 128);
type = Stem;
},
{
place = (300, 126);
place = (300, 126);
type = Stem;
},
{
horizontal = 1;
place = (-9, 61);
place = (-9, 61);
type = Stem;
},
{
horizontal = 1;
place = (471, -20);
target = down;
type = TopGhost;
}
);
layerId = m01;
shapes = (
{
closed = 1;
nodes = (
(291,79,o),
(268,52,o),
(234,52,cs),
(169,52,o),
(169,118,o),
(169,118,c),
(169,169,o),
(202,216,o),
(300,238,c),
(300,238,o),
(300,105,o),
(300,103,c)
);
},
{
closed = 1;
nodes = (
(425,52,o),
(426,122,o),
(426,122,c),
(426,271,ls),
(426,389,o),
(390,471,o),
(259,471,c),
(259,471,o),
(207,475,o),
(162,451,cs),
(107,422,o),
(94,395,o),
(84,378,cs),
(74,361,o),
(75,337,o),
(87,318,cs),
(105,292,o),
(140,286,o),
(166,303,cs),
(192,321,o),
(199,356,o),
(181,382,cs),
(172,395,o),
(159,402,o),
(144,404,cs),
(137,405,o),
(141,422,o),
(173,438,cs),
(242,474,o),
(300,422,o),
(300,318,cs),
(300,256,l),
(125,212,o),
(41,202,o),
(41,93,cs),
(41,-9,o),
(156,-9,o),
(156,-9,c),
(227,-9,o),
(286,28,o),
(301,72,c),
(312,-9,o),
(401,-9,o),
(401,-9,c),
(464,-9,o),
(510,30,o),
(518,62,c),
(501,69,l),
(495,52,o),
(474,52,o),
(474,52,c)
);
},
{
closed = 1;
nodes = (
(232,704,l),
(120,669,l),
(364,541,l),
(401,541,l)
);
}
);
width = 526;
}
);
note = agrave;
unicode = 224;
},
{
glyphname = aacute;
kernLeft = a;
kernRight = a;
layers = (
{
hints = (
{
horizontal = 1;
place = (-8, 60);
place = (-8, 60);
type = Stem;
},
{
horizontal = 1;
place = (698, -20);
target = down;
type = TopGhost;
},
{
place = (41, 128);
place = (41, 128);
type = Stem;
},
{
place = (300, 126);
place = (300, 126);
type = Stem;
},
{
horizontal = 1;
place = (-9, 61);
place = (-9, 61);
type = Stem;
},
{
horizontal = 1;
place = (471, -20);
target = down;
type = TopGhost;
}
);
layerId = m01;
shapes = (
{
closed = 1;
nodes = (
(291,79,o),
(268,52,o),
(234,52,cs),
(169,52,o),
(169,118,o),
(169,118,c),
(169,169,o),
(202,216,o),
(300,238,c),
(300,238,o),
(300,105,o),
(300,103,c)
);
},
{
closed = 1;
nodes = (
(425,52,o),
(426,122,o),
(426,122,c),
(426,271,ls),
(426,389,o),
(390,471,o),
(259,471,c),
(259,471,o),
(207,475,o),
(162,451,cs),
(107,422,o),
(94,395,o),
(84,378,cs),
(74,361,o),
(75,337,o),
(87,318,cs),
(105,292,o),
(140,286,o),
(166,303,cs),
(192,321,o),
(199,356,o),
(181,382,cs),
(172,395,o),
(159,402,o),
(144,404,cs),
(137,405,o),
(141,422,o),
(173,438,cs),
(242,474,o),
(300,422,o),
(300,318,cs),
(300,256,l),
(125,212,o),
(41,202,o),
(41,93,cs),
(41,-9,o),
(156,-9,o),
(156,-9,c),
(227,-9,o),
(286,28,o),
(301,72,c),
(312,-9,o),
(401,-9,o),
(401,-9,c),
(464,-9,o),
(510,30,o),
(518,62,c),
(501,69,l),
(495,52,o),
(474,52,o),
(474,52,c)
);
},
{
closed = 1;
nodes = (
(141,541,l),
(178,541,l),
(422,669,l),
(310,704,l)
);
}
);
width = 526;
}
);
note = aacute;
unicode = 225;
},
{
glyphname = acircumflex;
kernLeft = a;
kernRight = a;
layers = (
{
hints = (
{
horizontal = 1;
place = (-8, 60);
place = (-8, 60);
type = Stem;
},
{
horizontal = 1;
place = (467, 66);
place = (467, 66);
type = Stem;
},
{
horizontal = 1;
place = (721, -20);
target = down;
type = TopGhost;
},
{
place = (41, 128);
place = (41, 128);
type = Stem;
},
{
place = (300, 126);
place = (300, 126);
type = Stem;
},
{
horizontal = 1;
place = (-9, 61);
place = (-9, 61);
type = Stem;
},
{
horizontal = 1;
place = (471, -20);
target = down;
type = TopGhost;
}
);
layerId = m01;
shapes = (
{
closed = 1;
nodes = (
(291,79,o),
(268,52,o),
(234,52,cs),
(169,52,o),
(169,118,o),
(169,118,c),
(169,169,o),
(202,216,o),
(300,238,c),
(300,238,o),
(300,105,o),
(300,103,c)
);
},
{
closed = 1;
nodes = (
(425,52,o),
(426,122,o),
(426,122,c),
(426,271,ls),
(426,389,o),
(390,471,o),
(259,471,c),
(259,471,o),
(207,475,o),
(162,451,cs),
(107,422,o),
(94,395,o),
(84,378,cs),
(74,361,o),
(75,337,o),
(87,318,cs),
(105,292,o),
(140,286,o),
(166,303,cs),
(192,321,o),
(199,356,o),
(181,382,cs),
(172,395,o),
(159,402,o),
(144,404,cs),
(137,405,o),
(141,422,o),
(173,438,cs),
(242,474,o),
(300,422,o),
(300,318,cs),
(300,256,l),
(125,212,o),
(41,202,o),
(41,93,cs),
(41,-9,o),
(156,-9,o),
(156,-9,c),
(227,-9,o),
(286,28,o),
(301,72,c),
(312,-9,o),
(401,-9,o),
(401,-9,c),
(464,-9,o),
(510,30,o),
(518,62,c),
(501,69,l),
(495,52,o),
(474,52,o),
(474,52,c)
);
},
{
closed = 1;
nodes = (
(156,517,l),
(275,594,l),
(393,517,l),
(430,517,l),
(275,704,l),
(120,517,l)
);
}
);
width = 526;
}
);
note = acircumflex;
unicode = 226;
},
{
glyphname = atilde;
kernLeft = a;
kernRight = a;
layers = (
{
hints = (
{
horizontal = 1;
place = (-9, 61);
place = (-9, 61);
type = Stem;
},
{
horizontal = 1;
place = (471, -20);
target = down;
type = TopGhost;
},
{
place = (41, 128);
place = (41, 128);
type = Stem;
},
{
place = (300, 126);
place = (300, 126);
type = Stem;
}
);
layerId = m01;
shapes = (
{
closed = 1;
nodes = (
(316,547,l),
(316,547,o),
(436,507,o),
(508,681,c),
(493,689,l),
(467,635,o),
(377,626,o),
(342,638,cs),
(223,682,l),
(223,682,o),
(102,722,o),
(31,548,c),
(46,542,l),
(72,597,o),
(162,602,o),
(196,590,cs)
);
},
{
closed = 1;
nodes = (
(291,79,o),
(268,52,o),
(234,52,cs),
(169,52,o),
(169,118,o),
(169,118,c),
(169,169,o),
(202,216,o),
(300,238,c),
(300,238,o),
(300,105,o),
(300,103,c)
);
},
{
closed = 1;
nodes = (
(425,52,o),
(426,122,o),
(426,122,c),
(426,271,ls),
(426,389,o),
(390,471,o),
(259,471,c),
(259,471,o),
(207,475,o),
(162,451,cs),
(107,422,o),
(94,395,o),
(84,378,cs),
(74,361,o),
(75,337,o),
(87,318,cs),
(105,292,o),
(140,286,o),
(166,303,cs),
(192,321,o),
(199,356,o),
(181,382,cs),
(172,395,o),
(159,402,o),
(144,404,cs),
(137,405,o),
(141,422,o),
(173,438,cs),
(242,474,o),
(300,422,o),
(300,318,cs),
(300,256,l),
(125,212,o),
(41,202,o),
(41,93,cs),
(41,-9,o),
(156,-9,o),
(156,-9,c),
(227,-9,o),
(286,28,o),
(301,72,c),
(312,-9,o),
(401,-9,o),
(401,-9,c),
(464,-9,o),
(510,30,o),
(518,62,c),
(501,69,l),
(495,52,o),
(474,52,o),
(474,52,c)
);
}
);
width = 526;
}
);
note = atilde;
unicode = 227;
},
{
glyphname = adieresis;
kernLeft = a;
kernRight = a;
layers = (
{
hints = (
{
horizontal = 1;
place = (556, 119);
place = (556, 119);
type = Stem;
},
{
place = (118, 118);
place = (118, 118);
type = Stem;
},
{
place = (306, 118);
place = (306, 118);
type = Stem;
},
{
horizontal = 1;
place = (-9, 61);
place = (-9, 61);
type = Stem;
},
{
horizontal = 1;
place = (471, -20);
target = down;
type = TopGhost;
},
{
place = (41, 128);
place = (41, 128);
type = Stem;
},
{
place = (300, 126);
place = (300, 126);
type = Stem;
}
);
layerId = m01;
shapes = (
{
closed = 1;
nodes = (
(236,648,o),
(210,675,o),
(177,675,cs),
(144,675,o),
(118,648,o),
(118,616,cs),
(118,583,o),
(144,556,o),
(177,556,cs),
(210,556,o),
(236,583,o),
(236,616,cs)
);
},
{
closed = 1;
nodes = (
(424,648,o),
(398,675,o),
(365,675,cs),
(332,675,o),
(306,648,o),
(306,616,cs),
(306,583,o),
(332,556,o),
(365,556,cs),
(398,556,o),
(424,583,o),
(424,616,cs)
);
},
{
closed = 1;
nodes = (
(291,79,o),
(268,52,o),
(234,52,cs),
(169,52,o),
(169,118,o),
(169,118,c),
(169,169,o),
(202,216,o),
(300,238,c),
(300,238,o),
(300,105,o),
(300,103,c)
);
},
{
closed = 1;
nodes = (
(425,52,o),
(426,122,o),
(426,122,c),
(426,271,ls),
(426,389,o),
(390,471,o),
(259,471,c),
(259,471,o),
(207,475,o),
(162,451,cs),
(107,422,o),
(94,395,o),
(84,378,cs),
(74,361,o),
(75,337,o),
(87,318,cs),
(105,292,o),
(140,286,o),
(166,303,cs),
(192,321,o),
(199,356,o),
(181,382,cs),
(172,395,o),
(159,402,o),
(144,404,cs),
(137,405,o),
(141,422,o),
(173,438,cs),
(242,474,o),
(300,422,o),
(300,318,cs),
(300,256,l),
(125,212,o),
(41,202,o),
(41,93,cs),
(41,-9,o),
(156,-9,o),
(156,-9,c),
(227,-9,o),
(286,28,o),
(301,72,c),
(312,-9,o),
(401,-9,o),
(401,-9,c),
(464,-9,o),
(510,30,o),
(518,62,c),
(501,69,l),
(495,52,o),
(474,52,o),
(474,52,c)
);
}
);
width = 526;
}
);
note = adieresis;
unicode = 228;
},
{
glyphname = aring;
kernLeft = a;
kernRight = a;
layers = (
{
hints = (
{
horizontal = 1;
place = (533, 45);
place = (533, 45);
type = Stem;
},
{
horizontal = 1;
place = (698, 45);
place = (698, 45);
type = Stem;
},
{
place = (161, 45);
place = (161, 45);
type = Stem;
},
{
place = (326, 45);
place = (326, 45);
type = Stem;
},
{
horizontal = 1;
place = (-9, 61);
place = (-9, 61);
type = Stem;
},
{
horizontal = 1;
place = (471, -20);
target = down;
type = TopGhost;
},
{
place = (41, 128);
place = (41, 128);
type = Stem;
},
{
place = (300, 126);
place = (300, 126);
type = Stem;
}
);
layerId = m01;
shapes = (
{
closed = 1;
nodes = (
(324,533,o),
(371,580,o),
(371,638,cs),
(371,696,o),
(324,743,o),
(266,743,cs),
(208,743,o),
(161,696,o),
(161,638,cs),
(161,580,o),
(208,533,o),
(266,533,cs)
);
},
{
closed = 1;
nodes = (
(299,698,o),
(326,671,o),
(326,638,cs),
(326,605,o),
(299,578,o),
(266,578,cs),
(233,578,o),
(206,605,o),
(206,638,cs),
(206,671,o),
(233,698,o),
(266,698,cs)
);
},
{
closed = 1;
nodes = (
(291,79,o),
(268,52,o),
(234,52,cs),
(169,52,o),
(169,118,o),
(169,118,c),
(169,169,o),
(202,216,o),
(300,238,c),
(300,238,o),
(300,105,o),
(300,103,c)
);
},
{
closed = 1;
nodes = (
(425,52,o),
(426,122,o),
(426,122,c),
(426,271,ls),
(426,389,o),
(390,471,o),
(259,471,c),
(259,471,o),
(207,475,o),
(162,451,cs),
(107,422,o),
(94,395,o),
(84,378,cs),
(74,361,o),
(75,337,o),
(87,318,cs),
(105,292,o),
(140,286,o),
(166,303,cs),
(192,321,o),
(199,356,o),
(181,382,cs),
(172,395,o),
(159,402,o),
(144,404,cs),
(137,405,o),
(141,422,o),
(173,438,cs),
(242,474,o),
(300,422,o),
(300,318,cs),
(300,256,l),
(125,212,o),
(41,202,o),
(41,93,cs),
(41,-9,o),
(156,-9,o),
(156,-9,c),
(227,-9,o),
(286,28,o),
(301,72,c),
(312,-9,o),
(401,-9,o),
(401,-9,c),
(464,-9,o),
(510,30,o),
(518,62,c),
(501,69,l),
(495,52,o),
(474,52,o),
(474,52,c)
);
}
);
width = 526;
}
);
note = aring;
unicode = 229;
},
{
glyphname = ae;
kernLeft = a;
kernRight = a;
layers = (
{
hints = (
{
horizontal = 1;
place = (-9, 61);
place = (-9, 61);
type = Stem;
},
{
horizontal = 1;
place = (257, -20);
target = down;
type = TopGhost;
},
{
place = (41, 128);
place = (41, 128);
type = Stem;
},
{
place = (291, 124);
place = (291, 124);
type = Stem;
},
{
place = (585, 112);
place = (585, 112);
type = Stem;
},
{
horizontal = 1;
place = (240, 231);
place = (240, 231);
type = Stem;
}
);
layerId = m01;
shapes = (
{
closed = 1;
nodes = (
(564,454,o),
(585,383,o),
(585,257,c),
(415,257,l),
(415,353,o),
(444,454,o),
(506,454,cs)
);
},
{
closed = 1;
nodes = (
(165,52,o),
(169,118,o),
(169,118,c),
(169,203,o),
(266,234,o),
(291,241,c),
(291,241,o),
(290,222,o),
(292,197,cs),
(294,172,o),
(300,140,o),
(313,113,c),
(305,94,o),
(278,52,o),
(230,52,cs)
);
},
{
closed = 1;
nodes = (
(459,91,o),
(421,142,o),
(415,240,c),
(697,240,l),
(697,396,o),
(651,471,o),
(506,471,cs),
(449,471,o),
(408,444,o),
(367,404,c),
(344,444,o),
(305,471,o),
(248,471,c),
(248,471,o),
(203,474,o),
(158,450,cs),
(103,421,o),
(91,395,o),
(81,378,cs),
(71,361,o),
(72,337,o),
(84,318,cs),
(102,292,o),
(137,286,o),
(163,303,cs),
(189,321,o),
(196,356,o),
(178,382,cs),
(169,395,o),
(158,404,o),
(143,406,cs),
(136,407,o),
(136,421,o),
(168,437,cs),
(237,473,o),
(291,422,o),
(291,318,cs),
(291,259,l),
(118,213,o),
(41,197,o),
(41,93,cs),
(41,-9,o),
(156,-9,o),
(156,-9,c),
(247,-9,o),
(312,42,o),
(325,94,c),
(351,44,o),
(417,-9,o),
(499,-9,cs),
(631,-9,o),
(666,70,o),
(682,122,c),
(664,131,l),
(640,94,o),
(580,64,o),
(526,76,cs)
);
}
);
width = 739;
}
);
note = ae;
unicode = 230;
},
{
glyphname = ccedilla;
kernLeft = c;
kernRight = c;
layers = (
{
hints = (
{
horizontal = 1;
place = (-232, 21);
target = up;
type = BottomGhost;
},
{
horizontal = 1;
place = (-9, 21);
target = up;
type = BottomGhost;
},
{
horizontal = 1;
place = (471, -20);
target = down;
type = TopGhost;
},
{
place = (45, 126);
place = (45, 126);
type = Stem;
}
);
layerId = m01;
shapes = (
{
closed = 1;
nodes = (
(450,129,l),
(427,96,o),
(348,69,o),
(298,80,cs),
(229,95,o),
(171,143,o),
(171,251,cs),
(171,423,o),
(268,454,o),
(304,454,cs),
(344,454,o),
(366,437,o),
(357,433,cs),
(342,425,o),
(330,412,o),
(326,393,cs),
(316,358,o),
(337,321,o),
(373,312,cs),
(409,302,o),
(445,325,o),
(455,360,cs),
(462,384,o),
(452,412,o),
(435,427,cs),
(418,442,o),
(375,471,o),
(304,471,cs),
(133,471,o),
(45,348,o),
(45,233,cs),
(45,125,o),
(120,11,o),
(234,-6,c),
(204,-93,l),
(280,-81,o),
(302,-144,o),
(302,-162,cs),
(303,-193,o),
(284,-216,o),
(252,-216,cs),
(224,-216,o),
(222,-210,o),
(224,-208,cs),
(228,-205,o),
(231,-201,o),
(232,-194,cs),
(235,-176,o),
(225,-161,o),
(208,-157,cs),
(191,-153,o),
(174,-163,o),
(170,-180,cs),
(168,-192,o),
(173,-205,o),
(181,-211,cs),
(189,-218,o),
(215,-232,o),
(252,-232,cs),
(285,-232,o),
(348,-216,o),
(357,-149,cs),
(363,-98,o),
(323,-42,o),
(232,-63,c),
(250,-8,l),
(258,-9,o),
(263,-9,o),
(265,-9,cs),
(390,-9,o),
(450,69,o),
(464,120,c)
);
}
);
width = 499;
}
);
note = ccedilla;
unicode = 231;
},
{
glyphname = egrave;
kernLeft = e;
kernRight = e;
layers = (
{
hints = (
{
horizontal = 1;
place = (-9, 21);
target = up;
type = BottomGhost;
},
{
horizontal = 1;
place = (257, -20);
target = down;
type = TopGhost;
},
{
place = (36, 129);
place = (36, 129);
type = Stem;
},
{
place = (361, 122);
place = (361, 122);
type = Stem;
},
{
horizontal = 1;
place = (240, 231);
place = (240, 231);
type = Stem;
},
{
horizontal = 1;
place = (541, 21);
target = up;
type = BottomGhost;
},
{
horizontal = 1;
place = (704, -20);
target = down;
type = TopGhost;
}
);
layerId = m01;
shapes = (
{
closed = 1;
nodes = (
(165,257,l),
(165,353,o),
(206,454,o),
(265,454,cs),
(320,454,o),
(361,383,o),
(361,257,c)
);
},
{
closed = 1;
nodes = (
(132,471,o),
(36,370,o),
(36,229,cs),
(36,112,o),
(126,-9,o),
(257,-9,cs),
(391,-9,o),
(450,70,o),
(466,122,c),
(449,131,l),
(424,84,o),
(344,64,o),
(290,76,cs),
(223,91,o),
(173,142,o),
(165,240,c),
(483,240,l),
(483,396,o),
(415,471,o),
(270,471,cs)
);
},
{
closed = 1;
nodes = (
(228,704,l),
(116,669,l),
(360,541,l),
(397,541,l)
);
}
);
width = 524;
}
);
note = egrave;
unicode = 232;
},
{
glyphname = eacute;
kernLeft = e;
kernRight = e;
layers = (
{
hints = (
{
horizontal = 1;
place = (-9, 21);
target = up;
type = BottomGhost;
},
{
horizontal = 1;
place = (257, -20);
target = down;
type = TopGhost;
},
{
place = (36, 129);
place = (36, 129);
type = Stem;
},
{
place = (361, 122);
place = (361, 122);
type = Stem;
},
{
horizontal = 1;
place = (240, 231);
place = (240, 231);
type = Stem;
},
{
horizontal = 1;
place = (541, 21);
target = up;
type = BottomGhost;
},
{
horizontal = 1;
place = (704, -20);
target = down;
type = TopGhost;
}
);
layerId = m01;
shapes = (
{
closed = 1;
nodes = (
(165,257,l),
(165,353,o),
(206,454,o),
(265,454,cs),
(320,454,o),
(361,383,o),
(361,257,c)
);
},
{
closed = 1;
nodes = (
(132,471,o),
(36,370,o),
(36,229,cs),
(36,112,o),
(126,-9,o),
(257,-9,cs),
(391,-9,o),
(450,70,o),
(466,122,c),
(449,131,l),
(424,84,o),
(344,64,o),
(290,76,cs),
(223,91,o),
(173,142,o),
(165,240,c),
(483,240,l),
(483,396,o),
(415,471,o),
(270,471,cs)
);
},
{
closed = 1;
nodes = (
(127,541,l),
(164,541,l),
(408,669,l),
(296,704,l)
);
}
);
width = 524;
}
);
note = eacute;
unicode = 233;
},
{
glyphname = ecircumflex;
kernLeft = e;
kernRight = e;
layers = (
{
hints = (
{
horizontal = 1;
place = (-9, 21);
target = up;
type = BottomGhost;
},
{
horizontal = 1;
place = (257, -20);
target = down;
type = TopGhost;
},
{
place = (36, 129);
place = (36, 129);
type = Stem;
},
{
place = (361, 122);
place = (361, 122);
type = Stem;
},
{
horizontal = 1;
place = (240, 231);
place = (240, 231);
type = Stem;
},
{
horizontal = 1;
place = (517, 20);
place = (517, 20);
type = Stem;
},
{
horizontal = 1;
place = (683, 21);
place = (683, 21);
type = Stem;
}
);
layerId = m01;
shapes = (
{
closed = 1;
nodes = (
(165,257,l),
(165,353,o),
(206,454,o),
(265,454,cs),
(320,454,o),
(361,383,o),
(361,257,c)
);
},
{
closed = 1;
nodes = (
(132,471,o),
(36,370,o),
(36,229,cs),
(36,112,o),
(126,-9,o),
(257,-9,cs),
(391,-9,o),
(450,70,o),
(466,122,c),
(449,131,l),
(424,84,o),
(344,64,o),
(290,76,cs),
(223,91,o),
(173,142,o),
(165,240,c),
(483,240,l),
(483,396,o),
(415,471,o),
(270,471,cs)
);
},
{
closed = 1;
nodes = (
(138,517,l),
(257,594,l),
(375,517,l),
(412,517,l),
(257,704,l),
(102,517,l)
);
}
);
width = 524;
}
);
note = ecircumflex;
unicode = 234;
},
{
glyphname = edieresis;
kernLeft = e;
kernRight = e;
layers = (
{
hints = (
{
horizontal = 1;
place = (-9, 21);
target = up;
type = BottomGhost;
},
{
horizontal = 1;
place = (257, -20);
target = down;
type = TopGhost;
},
{
horizontal = 1;
place = (556, 119);
place = (556, 119);
type = Stem;
},
{
place = (108, 118);
place = (108, 118);
type = Stem;
},
{
place = (296, 118);
place = (296, 118);
type = Stem;
},
{
horizontal = 1;
place = (454, 221);
place = (454, 221);
type = Stem;
},
{
place = (36, 129);
place = (36, 129);
type = Stem;
},
{
place = (361, 122);
place = (361, 122);
type = Stem;
},
{
horizontal = 1;
place = (240, 231);
place = (240, 231);
type = Stem;
}
);
layerId = m01;
shapes = (
{
closed = 1;
nodes = (
(226,648,o),
(200,675,o),
(167,675,cs),
(134,675,o),
(108,648,o),
(108,616,cs),
(108,583,o),
(134,556,o),
(167,556,cs),
(200,556,o),
(226,583,o),
(226,616,cs)
);
},
{
closed = 1;
nodes = (
(414,648,o),
(388,675,o),
(355,675,cs),
(322,675,o),
(296,648,o),
(296,616,cs),
(296,583,o),
(322,556,o),
(355,556,cs),
(388,556,o),
(414,583,o),
(414,616,cs)
);
},
{
closed = 1;
nodes = (
(165,257,l),
(165,353,o),
(206,454,o),
(265,454,cs),
(320,454,o),
(361,383,o),
(361,257,c)
);
},
{
closed = 1;
nodes = (
(132,471,o),
(36,370,o),
(36,229,cs),
(36,112,o),
(126,-9,o),
(257,-9,cs),
(391,-9,o),
(450,70,o),
(466,122,c),
(449,131,l),
(424,84,o),
(344,64,o),
(290,76,cs),
(223,91,o),
(173,142,o),
(165,240,c),
(483,240,l),
(483,396,o),
(415,471,o),
(270,471,cs)
);
}
);
width = 524;
}
);
note = edieresis;
unicode = 235;
},
{
glyphname = igrave;
kernLeft = i;
kernRight = i;
layers = (
{
hints = (
{
horizontal = 1;
place = (0, 21);
target = up;
type = BottomGhost;
},
{
horizontal = 1;
place = (471, -20);
target = down;
type = TopGhost;
},
{
place = (79, 124);
place = (79, 124);
type = Stem;
},
{
horizontal = 1;
place = (541, 21);
target = up;
type = BottomGhost;
},
{
horizontal = 1;
place = (704, -20);
target = down;
type = TopGhost;
}
);
layerId = m01;
shapes = (
{
closed = 1;
nodes = (
(203,471,l),
(28,431,l),
(28,414,l),
(69,392,o),
(79,378,o),
(79,344,cs),
(79,122,ls),
(79,71,o),
(77,29,o),
(39,17,c),
(39,0,l),
(244,0,l),
(244,17,l),
(208,27,o),
(203,66,o),
(203,122,cs)
);
},
{
closed = 1;
nodes = (
(108,704,l),
(-4,669,l),
(240,541,l),
(277,541,l)
);
}
);
width = 282;
}
);
note = igrave;
unicode = 236;
},
{
glyphname = iacute;
kernLeft = i;
kernRight = i;
layers = (
{
hints = (
{
horizontal = 1;
place = (0, 21);
target = up;
type = BottomGhost;
},
{
horizontal = 1;
place = (471, -20);
target = down;
type = TopGhost;
},
{
place = (79, 124);
place = (79, 124);
type = Stem;
},
{
horizontal = 1;
place = (541, 21);
target = up;
type = BottomGhost;
},
{
horizontal = 1;
place = (704, -20);
target = down;
type = TopGhost;
}
);
layerId = m01;
shapes = (
{
closed = 1;
nodes = (
(203,471,l),
(28,431,l),
(28,414,l),
(69,392,o),
(79,378,o),
(79,344,cs),
(79,122,ls),
(79,71,o),
(77,29,o),
(39,17,c),
(39,0,l),
(244,0,l),
(244,17,l),
(208,27,o),
(203,66,o),
(203,122,cs)
);
},
{
closed = 1;
nodes = (
(9,541,l),
(46,541,l),
(290,669,l),
(178,704,l)
);
}
);
width = 282;
}
);
note = iacute;
unicode = 237;
},
{
glyphname = icircumflex;
kernLeft = i;
kernRight = i;
layers = (
{
hints = (
{
horizontal = 1;
place = (0, 21);
target = up;
type = BottomGhost;
},
{
horizontal = 1;
place = (471, -20);
target = down;
type = TopGhost;
},
{
place = (79, 124);
place = (79, 124);
type = Stem;
},
{
horizontal = 1;
place = (517, 20);
place = (517, 20);
type = Stem;
},
{
horizontal = 1;
place = (683, 21);
place = (683, 21);
type = Stem;
}
);
layerId = m01;
shapes = (
{
closed = 1;
nodes = (
(203,471,l),
(28,431,l),
(28,414,l),
(69,392,o),
(79,378,o),
(79,344,cs),
(79,122,ls),
(79,71,o),
(77,29,o),
(39,17,c),
(39,0,l),
(244,0,l),
(244,17,l),
(208,27,o),
(203,66,o),
(203,122,cs)
);
},
{
closed = 1;
nodes = (
(34,517,l),
(153,594,l),
(271,517,l),
(308,517,l),
(153,704,l),
(-2,517,l)
);
}
);
width = 282;
}
);
note = icircumflex;
unicode = 238;
},
{
glyphname = idieresis;
kernLeft = i;
kernRight = i;
layers = (
{
hints = (
{
horizontal = 1;
place = (0, 21);
target = up;
type = BottomGhost;
},
{
horizontal = 1;
place = (556, 119);
place = (556, 119);
type = Stem;
},
{
place = (-16, 118);
place = (-16, 118);
type = Stem;
},
{
place = (172, 118);
place = (172, 118);
type = Stem;
},
{
place = (79, 124);
place = (79, 124);
type = Stem;
}
);
layerId = m01;
shapes = (
{
closed = 1;
nodes = (
(102,648,o),
(76,675,o),
(43,675,cs),
(10,675,o),
(-16,648,o),
(-16,616,cs),
(-16,583,o),
(10,556,o),
(43,556,cs),
(76,556,o),
(102,583,o),
(102,616,cs)
);
},
{
closed = 1;
nodes = (
(290,648,o),
(264,675,o),
(231,675,cs),
(198,675,o),
(172,648,o),
(172,616,cs),
(172,583,o),
(198,556,o),
(231,556,cs),
(264,556,o),
(290,583,o),
(290,616,cs)
);
},
{
closed = 1;
nodes = (
(203,471,l),
(28,431,l),
(28,414,l),
(69,392,o),
(79,378,o),
(79,344,cs),
(79,122,ls),
(79,71,o),
(77,29,o),
(39,17,c),
(39,0,l),
(244,0,l),
(244,17,l),
(208,27,o),
(203,66,o),
(203,122,cs)
);
}
);
width = 282;
}
);
note = idieresis;
unicode = 239;
},
{
glyphname = eth;
layers = (
{
hints = (
{
horizontal = 1;
place = (-9, 21);
target = up;
type = BottomGhost;
},
{
horizontal = 1;
place = (407, 30);
place = (407, 30);
type = Stem;
},
{
horizontal = 1;
place = (713, -20);
target = down;
type = TopGhost;
},
{
place = (38, 147);
place = (38, 147);
type = Stem;
},
{
place = (383, 158);
place = (383, 158);
type = Stem;
}
);
layerId = m01;
shapes = (
{
closed = 1;
nodes = (
(383,99,o),
(361,8,o),
(287,8,cs),
(218,8,o),
(185,43,o),
(185,198,cs),
(185,328,o),
(223,407,o),
(279,407,cs),
(308,407,o),
(351,391,o),
(383,334,c),
(383,333,o),
(383,333,o),
(383,332,cs)
);
},
{
closed = 1;
nodes = (
(541,470,o),
(491,579,o),
(417,642,c),
(518,694,l),
(503,708,l),
(400,655,l),
(344,691,o),
(264,713,o),
(183,713,c),
(183,696,l),
(238,696,o),
(297,677,o),
(333,621,c),
(159,531,l),
(172,517,l),
(342,603,l),
(367,550,o),
(381,472,o),
(383,368,c),
(347,428,o),
(276,437,o),
(230,437,cs),
(88,437,o),
(38,328,o),
(38,218,cs),
(38,63,o),
(152,-9,o),
(287,-9,cs),
(455,-9,o),
(541,119,o),
(541,318,cs)
);
}
);
width = 579;
}
);
note = eth;
unicode = 240;
},
{
glyphname = ntilde;
kernRight = n;
layers = (
{
hints = (
{
horizontal = 1;
place = (0, 21);
target = up;
type = BottomGhost;
},
{
horizontal = 1;
place = (399, 72);
place = (399, 72);
type = Stem;
},
{
place = (60, 125);
place = (60, 125);
type = Stem;
},
{
place = (351, 125);
place = (351, 125);
type = Stem;
}
);
layerId = m01;
shapes = (
{
closed = 1;
nodes = (
(312,547,l),
(312,547,o),
(432,507,o),
(504,681,c),
(489,689,l),
(463,635,o),
(373,626,o),
(338,638,cs),
(219,682,l),
(219,682,o),
(98,722,o),
(27,548,c),
(42,542,l),
(68,597,o),
(158,602,o),
(192,590,cs)
);
},
{
closed = 1;
nodes = (
(476,319,ls),
(476,440,o),
(428,471,o),
(350,471,cs),
(287,471,o),
(208,425,o),
(185,364,c),
(185,471,l),
(10,431,l),
(10,414,l),
(51,392,o),
(60,381,o),
(60,346,cs),
(60,120,ls),
(60,69,o),
(59,28,o),
(21,17,c),
(21,0,l),
(226,0,l),
(226,17,l),
(191,27,o),
(185,65,o),
(185,120,cs),
(185,317,ls),
(185,357,o),
(231,399,o),
(270,399,cs),
(320,399,o),
(351,364,o),
(351,316,cs),
(351,122,ls),
(351,71,o),
(349,28,o),
(311,17,c),
(311,0,l),
(517,0,l),
(517,17,l),
(481,26,o),
(476,67,o),
(476,122,cs)
);
}
);
width = 539;
}
);
note = ntilde;
unicode = 241;
},
{
glyphname = ograve;
kernLeft = o;
kernRight = o;
layers = (
{
hints = (
{
horizontal = 1;
place = (-8, 21);
target = up;
type = BottomGhost;
},
{
horizontal = 1;
place = (698, -20);
target = down;
type = TopGhost;
},
{
place = (40, 147);
place = (40, 147);
type = Stem;
},
{
place = (368, 148);
place = (368, 148);
type = Stem;
},
{
horizontal = 1;
place = (-9, 21);
target = up;
type = BottomGhost;
},
{
horizontal = 1;
place = (471, -20);
target = down;
type = TopGhost;
},
{
place = (41, 147);
place = (41, 147);
type = Stem;
},
{
place = (369, 148);
place = (369, 148);
type = Stem;
}
);
layerId = m01;
shapes = (
{
closed = 1;
nodes = (
(127,471,o),
(41,363,o),
(41,231,cs),
(41,100,o),
(127,-9,o),
(279,-9,cs),
(432,-9,o),
(517,100,o),
(517,231,cs),
(517,363,o),
(432,471,o),
(279,471,cs)
);
},
{
closed = 1;
nodes = (
(207,8,o),
(188,50,o),
(188,231,cs),
(188,412,o),
(207,454,o),
(279,454,cs),
(351,454,o),
(369,412,o),
(369,231,cs),
(369,50,o),
(351,8,o),
(279,8,cs)
);
},
{
closed = 1;
nodes = (
(242,704,l),
(130,669,l),
(374,541,l),
(411,541,l)
);
}
);
width = 555;
}
);
note = ograve;
unicode = 242;
},
{
glyphname = oacute;
kernLeft = o;
kernRight = o;
layers = (
{
hints = (
{
horizontal = 1;
place = (-8, 21);
target = up;
type = BottomGhost;
},
{
horizontal = 1;
place = (698, -20);
target = down;
type = TopGhost;
},
{
place = (40, 147);
place = (40, 147);
type = Stem;
},
{
place = (368, 148);
place = (368, 148);
type = Stem;
},
{
horizontal = 1;
place = (-9, 21);
target = up;
type = BottomGhost;
},
{
horizontal = 1;
place = (471, -20);
target = down;
type = TopGhost;
},
{
place = (41, 147);
place = (41, 147);
type = Stem;
},
{
place = (369, 148);
place = (369, 148);
type = Stem;
}
);
layerId = m01;
shapes = (
{
closed = 1;
nodes = (
(127,471,o),
(41,363,o),
(41,231,cs),
(41,100,o),
(127,-9,o),
(279,-9,cs),
(432,-9,o),
(517,100,o),
(517,231,cs),
(517,363,o),
(432,471,o),
(279,471,cs)
);
},
{
closed = 1;
nodes = (
(207,8,o),
(188,50,o),
(188,231,cs),
(188,412,o),
(207,454,o),
(279,454,cs),
(351,454,o),
(369,412,o),
(369,231,cs),
(369,50,o),
(351,8,o),
(279,8,cs)
);
},
{
closed = 1;
nodes = (
(149,541,l),
(186,541,l),
(430,669,l),
(318,704,l)
);
}
);
width = 555;
}
);
note = oacute;
unicode = 243;
},
{
glyphname = ocircumflex;
kernLeft = o;
kernRight = o;
layers = (
{
hints = (
{
horizontal = 1;
place = (-8, 21);
target = up;
type = BottomGhost;
},
{
horizontal = 1;
place = (467, 66);
place = (467, 66);
type = Stem;
},
{
horizontal = 1;
place = (721, -20);
target = down;
type = TopGhost;
},
{
place = (40, 147);
place = (40, 147);
type = Stem;
},
{
place = (368, 148);
place = (368, 148);
type = Stem;
},
{
horizontal = 1;
place = (-9, 21);
target = up;
type = BottomGhost;
},
{
horizontal = 1;
place = (471, -20);
target = down;
type = TopGhost;
},
{
place = (41, 147);
place = (41, 147);
type = Stem;
},
{
place = (369, 148);
place = (369, 148);
type = Stem;
}
);
layerId = m01;
shapes = (
{
closed = 1;
nodes = (
(127,471,o),
(41,363,o),
(41,231,cs),
(41,100,o),
(127,-9,o),
(279,-9,cs),
(432,-9,o),
(517,100,o),
(517,231,cs),
(517,363,o),
(432,471,o),
(279,471,cs)
);
},
{
closed = 1;
nodes = (
(207,8,o),
(188,50,o),
(188,231,cs),
(188,412,o),
(207,454,o),
(279,454,cs),
(351,454,o),
(369,412,o),
(369,231,cs),
(369,50,o),
(351,8,o),
(279,8,cs)
);
},
{
closed = 1;
nodes = (
(165,517,l),
(284,594,l),
(402,517,l),
(439,517,l),
(284,704,l),
(129,517,l)
);
}
);
width = 555;
}
);
note = ocircumflex;
unicode = 244;
},
{
glyphname = otilde;
kernLeft = o;
kernRight = o;
layers = (
{
hints = (
{
horizontal = 1;
place = (-9, 21);
target = up;
type = BottomGhost;
},
{
horizontal = 1;
place = (471, -20);
target = down;
type = TopGhost;
},
{
place = (41, 147);
place = (41, 147);
type = Stem;
},
{
place = (369, 148);
place = (369, 148);
type = Stem;
}
);
layerId = m01;
shapes = (
{
closed = 1;
nodes = (
(321,547,l),
(321,547,o),
(441,507,o),
(513,681,c),
(498,689,l),
(472,635,o),
(382,626,o),
(347,638,cs),
(228,682,l),
(228,682,o),
(107,722,o),
(36,548,c),
(51,542,l),
(77,597,o),
(167,602,o),
(201,590,cs)
);
},
{
closed = 1;
nodes = (
(127,471,o),
(41,363,o),
(41,231,cs),
(41,100,o),
(127,-9,o),
(279,-9,cs),
(432,-9,o),
(517,100,o),
(517,231,cs),
(517,363,o),
(432,471,o),
(279,471,cs)
);
},
{
closed = 1;
nodes = (
(207,8,o),
(188,50,o),
(188,231,cs),
(188,412,o),
(207,454,o),
(279,454,cs),
(351,454,o),
(369,412,o),
(369,231,cs),
(369,50,o),
(351,8,o),
(279,8,cs)
);
}
);
width = 555;
}
);
note = otilde;
unicode = 245;
},
{
glyphname = odieresis;
kernLeft = o;
kernRight = o;
layers = (
{
hints = (
{
horizontal = 1;
place = (556, 119);
place = (556, 119);
type = Stem;
},
{
place = (126, 118);
place = (126, 118);
type = Stem;
},
{
place = (314, 118);
place = (314, 118);
type = Stem;
},
{
horizontal = 1;
place = (-9, 21);
target = up;
type = BottomGhost;
},
{
horizontal = 1;
place = (471, -20);
target = down;
type = TopGhost;
},
{
place = (41, 147);
place = (41, 147);
type = Stem;
},
{
place = (369, 148);
place = (369, 148);
type = Stem;
}
);
layerId = m01;
shapes = (
{
closed = 1;
nodes = (
(244,648,o),
(218,675,o),
(185,675,cs),
(152,675,o),
(126,648,o),
(126,616,cs),
(126,583,o),
(152,556,o),
(185,556,cs),
(218,556,o),
(244,583,o),
(244,616,cs)
);
},
{
closed = 1;
nodes = (
(432,648,o),
(406,675,o),
(373,675,cs),
(340,675,o),
(314,648,o),
(314,616,cs),
(314,583,o),
(340,556,o),
(373,556,cs),
(406,556,o),
(432,583,o),
(432,616,cs)
);
},
{
closed = 1;
nodes = (
(127,471,o),
(41,363,o),
(41,231,cs),
(41,100,o),
(127,-9,o),
(279,-9,cs),
(432,-9,o),
(517,100,o),
(517,231,cs),
(517,363,o),
(432,471,o),
(279,471,cs)
);
},
{
closed = 1;
nodes = (
(207,8,o),
(188,50,o),
(188,231,cs),
(188,412,o),
(207,454,o),
(279,454,cs),
(351,454,o),
(369,412,o),
(369,231,cs),
(369,50,o),
(351,8,o),
(279,8,cs)
);
}
);
width = 555;
}
);
note = odieresis;
unicode = 246;
},
{
glyphname = divide;
layers = (
{
hints = (
{
horizontal = 1;
place = (-8, 135);
place = (-8, 135);
type = Stem;
},
{
horizontal = 1;
place = (230, 93);
place = (230, 93);
type = Stem;
},
{
horizontal = 1;
place = (425, 136);
place = (425, 136);
type = Stem;
},
{
place = (245, 135);
place = (245, 135);
type = Stem;
}
);
layerId = m01;
shapes = (
{
closed = 1;
nodes = (
(581,230,l),
(581,323,l),
(45,323,l),
(45,230,l)
);
},
{
closed = 1;
nodes = (
(380,530,o),
(350,561,o),
(312,561,cs),
(275,561,o),
(245,530,o),
(245,493,cs),
(245,456,o),
(275,425,o),
(312,425,cs),
(350,425,o),
(380,456,o),
(380,493,cs)
);
},
{
closed = 1;
nodes = (
(380,97,o),
(350,127,o),
(312,127,cs),
(275,127,o),
(245,97,o),
(245,60,cs),
(245,22,o),
(275,-8,o),
(312,-8,cs),
(350,-8,o),
(380,22,o),
(380,60,cs)
);
}
);
width = 625;
}
);
note = divide;
unicode = 247;
},
{
glyphname = oslash;
kernLeft = o;
kernRight = o;
layers = (
{
hints = (
{
horizontal = 1;
place = (-67, 21);
target = up;
type = BottomGhost;
},
{
horizontal = 1;
place = (-9, 21);
target = up;
type = BottomGhost;
},
{
horizontal = 1;
place = (471, -20);
target = down;
type = TopGhost;
},
{
horizontal = 1;
place = (525, -20);
target = down;
type = TopGhost;
},
{
place = (41, 147);
place = (41, 147);
type = Stem;
},
{
place = (369, 148);
place = (369, 148);
type = Stem;
}
);
layerId = m01;
shapes = (
{
closed = 1;
nodes = (
(87,-67,l),
(104,-67,l),
(157,19,l),
(191,1,o),
(232,-9,o),
(279,-9,cs),
(432,-9,o),
(517,100,o),
(517,231,cs),
(517,317,o),
(481,392,o),
(413,435,c),
(469,525,l),
(452,525,l),
(401,442,l),
(367,460,o),
(326,471,o),
(279,471,cs),
(127,471,o),
(41,363,o),
(41,231,cs),
(41,145,o),
(77,69,o),
(145,27,c)
);
},
{
closed = 1;
nodes = (
(188,412,o),
(207,454,o),
(279,454,cs),
(325,454,o),
(349,436,o),
(360,376,c),
(193,106,l),
(189,137,o),
(188,178,o),
(188,231,cs)
);
},
{
closed = 1;
nodes = (
(233,8,o),
(209,25,o),
(197,84,c),
(363,354,l),
(367,323,o),
(369,282,o),
(369,231,cs),
(369,50,o),
(351,8,o),
(279,8,cs)
);
}
);
width = 557;
}
);
note = oslash;
unicode = 248;
},
{
glyphname = ugrave;
kernLeft = u;
layers = (
{
hints = (
{
horizontal = 1;
place = (-8, 72);
place = (-8, 72);
type = Stem;
},
{
horizontal = 1;
place = (698, -20);
target = down;
type = TopGhost;
},
{
place = (71, 124);
place = (71, 124);
type = Stem;
},
{
place = (366, 125);
place = (366, 125);
type = Stem;
},
{
horizontal = 1;
place = (-9, 73);
place = (-9, 73);
type = Stem;
},
{
horizontal = 1;
place = (471, -20);
target = down;
type = TopGhost;
},
{
place = (73, 124);
place = (73, 124);
type = Stem;
},
{
place = (368, 125);
place = (368, 125);
type = Stem;
}
);
layerId = m01;
shapes = (
{
closed = 1;
nodes = (
(493,471,l),
(321,452,l),
(321,435,l),
(372,429,o),
(368,416,o),
(368,355,cs),
(368,129,l),
(347,89,o),
(309,64,o),
(281,64,cs),
(223,64,o),
(197,91,o),
(197,147,cs),
(197,471,l),
(17,452,l),
(17,435,l),
(75,427,o),
(73,418,o),
(73,358,cs),
(73,144,ls),
(73,24,o),
(120,-9,o),
(199,-9,cs),
(261,-9,o),
(344,42,o),
(368,99,c),
(368,11,l),
(368,11,o),
(369,-12,o),
(396,-8,cs),
(544,18,l),
(544,35,l),
(502,40,o),
(493,44,o),
(493,92,cs)
);
},
{
closed = 1;
nodes = (
(242,704,l),
(130,669,l),
(374,541,l),
(411,541,l)
);
}
);
width = 559;
}
);
note = ugrave;
unicode = 249;
},
{
glyphname = uacute;
kernLeft = u;
layers = (
{
hints = (
{
horizontal = 1;
place = (-8, 72);
place = (-8, 72);
type = Stem;
},
{
horizontal = 1;
place = (698, -20);
target = down;
type = TopGhost;
},
{
place = (71, 124);
place = (71, 124);
type = Stem;
},
{
place = (366, 125);
place = (366, 125);
type = Stem;
},
{
horizontal = 1;
place = (-9, 73);
place = (-9, 73);
type = Stem;
},
{
horizontal = 1;
place = (471, -20);
target = down;
type = TopGhost;
},
{
place = (73, 124);
place = (73, 124);
type = Stem;
},
{
place = (368, 125);
place = (368, 125);
type = Stem;
}
);
layerId = m01;
shapes = (
{
closed = 1;
nodes = (
(493,471,l),
(321,452,l),
(321,435,l),
(372,429,o),
(368,416,o),
(368,355,cs),
(368,129,l),
(347,89,o),
(309,64,o),
(281,64,cs),
(223,64,o),
(197,91,o),
(197,147,cs),
(197,471,l),
(17,452,l),
(17,435,l),
(75,427,o),
(73,418,o),
(73,358,cs),
(73,144,ls),
(73,24,o),
(120,-9,o),
(199,-9,cs),
(261,-9,o),
(344,42,o),
(368,99,c),
(368,11,l),
(368,11,o),
(369,-12,o),
(396,-8,cs),
(544,18,l),
(544,35,l),
(502,40,o),
(493,44,o),
(493,92,cs)
);
},
{
closed = 1;
nodes = (
(149,541,l),
(186,541,l),
(430,669,l),
(318,704,l)
);
}
);
width = 559;
}
);
note = uacute;
unicode = 250;
},
{
glyphname = ucircumflex;
kernLeft = u;
layers = (
{
hints = (
{
horizontal = 1;
place = (-8, 72);
place = (-8, 72);
type = Stem;
},
{
horizontal = 1;
place = (719, -20);
target = down;
type = TopGhost;
},
{
place = (71, 124);
place = (71, 124);
type = Stem;
},
{
place = (366, 125);
place = (366, 125);
type = Stem;
},
{
horizontal = 1;
place = (-9, 73);
place = (-9, 73);
type = Stem;
},
{
horizontal = 1;
place = (471, -20);
target = down;
type = TopGhost;
},
{
place = (73, 124);
place = (73, 124);
type = Stem;
},
{
place = (368, 125);
place = (368, 125);
type = Stem;
}
);
layerId = m01;
shapes = (
{
closed = 1;
nodes = (
(493,471,l),
(321,452,l),
(321,435,l),
(372,429,o),
(368,416,o),
(368,355,cs),
(368,129,l),
(347,89,o),
(309,64,o),
(281,64,cs),
(223,64,o),
(197,91,o),
(197,147,cs),
(197,471,l),
(17,452,l),
(17,435,l),
(75,427,o),
(73,418,o),
(73,358,cs),
(73,144,ls),
(73,24,o),
(120,-9,o),
(199,-9,cs),
(261,-9,o),
(344,42,o),
(368,99,c),
(368,11,l),
(368,11,o),
(369,-12,o),
(396,-8,cs),
(544,18,l),
(544,35,l),
(502,40,o),
(493,44,o),
(493,92,cs)
);
},
{
closed = 1;
nodes = (
(158,517,l),
(277,594,l),
(395,517,l),
(432,517,l),
(277,704,l),
(122,517,l)
);
}
);
width = 559;
}
);
note = ucircumflex;
unicode = 251;
},
{
glyphname = udieresis;
kernLeft = u;
layers = (
{
hints = (
{
horizontal = 1;
place = (556, 119);
place = (556, 119);
type = Stem;
},
{
place = (124, 118);
place = (124, 118);
type = Stem;
},
{
place = (312, 118);
place = (312, 118);
type = Stem;
},
{
horizontal = 1;
place = (-9, 73);
place = (-9, 73);
type = Stem;
},
{
horizontal = 1;
place = (471, -20);
target = down;
type = TopGhost;
},
{
place = (73, 124);
place = (73, 124);
type = Stem;
},
{
place = (368, 125);
place = (368, 125);
type = Stem;
}
);
layerId = m01;
shapes = (
{
closed = 1;
nodes = (
(242,648,o),
(216,675,o),
(183,675,cs),
(150,675,o),
(124,648,o),
(124,616,cs),
(124,583,o),
(150,556,o),
(183,556,cs),
(216,556,o),
(242,583,o),
(242,616,cs)
);
},
{
closed = 1;
nodes = (
(430,648,o),
(404,675,o),
(371,675,cs),
(338,675,o),
(312,648,o),
(312,616,cs),
(312,583,o),
(338,556,o),
(371,556,cs),
(404,556,o),
(430,583,o),
(430,616,cs)
);
},
{
closed = 1;
nodes = (
(493,471,l),
(321,452,l),
(321,435,l),
(372,429,o),
(368,416,o),
(368,355,cs),
(368,129,l),
(347,89,o),
(309,64,o),
(281,64,cs),
(223,64,o),
(197,91,o),
(197,147,cs),
(197,471,l),
(17,452,l),
(17,435,l),
(75,427,o),
(73,418,o),
(73,358,cs),
(73,144,ls),
(73,24,o),
(120,-9,o),
(199,-9,cs),
(261,-9,o),
(344,42,o),
(368,99,c),
(368,11,l),
(368,11,o),
(369,-12,o),
(396,-8,cs),
(544,18,l),
(544,35,l),
(502,40,o),
(493,44,o),
(493,92,cs)
);
}
);
width = 559;
}
);
note = udieresis;
unicode = 252;
},
{
glyphname = yacute;
kernLeft = y;
kernRight = y;
layers = (
{
hints = (
{
horizontal = 1;
place = (462, -20);
target = down;
type = TopGhost;
},
{
horizontal = 1;
place = (541, 21);
target = up;
type = BottomGhost;
},
{
horizontal = 1;
place = (704, -20);
target = down;
type = TopGhost;
}
);
layerId = m01;
shapes = (
{
closed = 1;
nodes = (
(330,462,l),
(330,445,l),
(446,446,o),
(380,293,o),
(380,293,c),
(327,158,l),
(221,384,l),
(221,384,o),
(195,445,o),
(247,445,c),
(247,462,l),
(11,462,l),
(11,445,l),
(26,445,o),
(58,445,o),
(74,406,c),
(74,406,o),
(201,134,o),
(263,-9,c),
(225,-112,ls),
(209,-154,o),
(185,-161,o),
(181,-149,cs),
(176,-132,o),
(165,-116,o),
(147,-108,cs),
(112,-92,o),
(71,-108,o),
(55,-143,cs),
(40,-178,o),
(55,-219,o),
(90,-235,cs),
(114,-246,o),
(149,-240,o),
(167,-225,cs),
(186,-210,o),
(216,-182,o),
(242,-114,cs),
(395,289,l),
(459,443,o),
(505,445,o),
(526,445,c),
(526,462,l)
);
},
{
closed = 1;
nodes = (
(130,541,l),
(167,541,l),
(411,669,l),
(299,704,l)
);
}
);
width = 541;
}
);
note = yacute;
unicode = 253;
},
{
glyphname = thorn;
kernRight = b;
layers = (
{
hints = (
{
horizontal = 1;
place = (-265, 21);
target = up;
type = BottomGhost;
},
{
horizontal = 1;
place = (-9, 21);
target = up;
type = BottomGhost;
},
{
horizontal = 1;
place = (434, 37);
place = (434, 37);
type = Stem;
},
{
horizontal = 1;
place = (731, -20);
target = down;
type = TopGhost;
},
{
place = (67, 124);
place = (67, 124);
type = Stem;
},
{
place = (413, 143);
place = (413, 143);
type = Stem;
}
);
layerId = m01;
shapes = (
{
closed = 1;
nodes = (
(257,8,o),
(200,41,o),
(191,143,c),
(191,326,l),
(198,386,o),
(234,434,o),
(294,434,cs),
(375,434,o),
(413,379,o),
(413,218,cs),
(413,66,o),
(381,8,o),
(308,8,cs)
);
},
{
closed = 1;
nodes = (
(296,471,o),
(223,449,o),
(191,390,c),
(191,731,l),
(17,691,l),
(17,674,l),
(57,659,o),
(67,652,o),
(67,618,cs),
(67,-151,ls),
(67,-202,o),
(65,-237,o),
(27,-248,c),
(27,-265,l),
(232,-265,l),
(232,-248,l),
(197,-239,o),
(191,-207,o),
(191,-151,cs),
(191,22,l),
(222,2,o),
(264,-9,o),
(310,-9,cs),
(450,-9,o),
(556,66,o),
(556,227,cs),
(556,384,o),
(456,471,o),
(343,471,cs)
);
}
);
width = 600;
}
);
note = thorn;
unicode = 254;
},
{
glyphname = ydieresis;
kernLeft = y;
kernRight = y;
layers = (
{
hints = (
{
horizontal = 1;
place = (462, -20);
target = down;
type = TopGhost;
},
{
horizontal = 1;
place = (556, 119);
place = (556, 119);
type = Stem;
},
{
place = (117, 118);
place = (117, 118);
type = Stem;
},
{
place = (305, 118);
place = (305, 118);
type = Stem;
},
{
horizontal = 1;
place = (445, 230);
place = (445, 230);
type = Stem;
}
);
layerId = m01;
shapes = (
{
closed = 1;
nodes = (
(235,648,o),
(209,675,o),
(176,675,cs),
(143,675,o),
(117,648,o),
(117,616,cs),
(117,583,o),
(143,556,o),
(176,556,cs),
(209,556,o),
(235,583,o),
(235,616,cs)
);
},
{
closed = 1;
nodes = (
(423,648,o),
(397,675,o),
(364,675,cs),
(331,675,o),
(305,648,o),
(305,616,cs),
(305,583,o),
(331,556,o),
(364,556,cs),
(397,556,o),
(423,583,o),
(423,616,cs)
);
},
{
closed = 1;
nodes = (
(330,462,l),
(330,445,l),
(446,446,o),
(380,293,o),
(380,293,c),
(327,158,l),
(221,384,l),
(221,384,o),
(195,445,o),
(247,445,c),
(247,462,l),
(11,462,l),
(11,445,l),
(26,445,o),
(58,445,o),
(74,406,c),
(74,406,o),
(201,134,o),
(263,-9,c),
(225,-112,ls),
(209,-154,o),
(185,-161,o),
(181,-149,cs),
(176,-132,o),
(165,-116,o),
(147,-108,cs),
(112,-92,o),
(71,-108,o),
(55,-143,cs),
(40,-178,o),
(55,-219,o),
(90,-235,cs),
(114,-246,o),
(149,-240,o),
(167,-225,cs),
(186,-210,o),
(216,-182,o),
(242,-114,cs),
(395,289,l),
(459,443,o),
(505,445,o),
(526,445,c),
(526,462,l)
);
}
);
width = 541;
}
);
note = ydieresis;
unicode = 255;
},
{
glyphname = Abreve;
layers = (
{
hints = (
{
horizontal = 1;
place = (0, 214);
place = (0, 214);
type = Stem;
},
{
horizontal = 1;
place = (704, -20);
target = down;
type = TopGhost;
},
{
horizontal = 1;
place = (197, -20);
target = down;
type = TopGhost;
},
{
horizontal = 1;
place = (766, 75);
place = (766, 75);
type = Stem;
},
{
horizontal = 1;
place = (914, -20);
target = down;
type = TopGhost;
}
);
layerId = m01;
shapes = (
{
closed = 1;
nodes = (
(610,90,o),
(601,116,o),
(356,704,c),
(339,704,l),
(166,248,l),
(68,11,o),
(43,19,o),
(17,17,c),
(17,0,l),
(263,0,l),
(263,17,l),
(105,9,o),
(167,197,o),
(167,197,c),
(404,197,l),
(434,124,l),
(434,124,o),
(486,17,o),
(408,17,c),
(408,0,l),
(694,0,l),
(694,17,l),
(668,19,o),
(644,10,o),
(610,90,c)
);
},
{
closed = 1;
nodes = (
(170,214,l),
(279,506,l),
(398,214,l)
);
},
{
closed = 1;
nodes = (
(254,841,o),
(230,877,o),
(230,914,c),
(213,914,l),
(213,838,o),
(252,766,o),
(349,766,cs),
(444,766,o),
(482,838,o),
(482,914,c),
(465,914,l),
(465,877,o),
(441,841,o),
(349,841,cs)
);
}
);
width = 708;
}
);
note = Abreve;
unicode = 258;
},
{
glyphname = abreve;
layers = (
{
hints = (
{
horizontal = 1;
place = (-9, 61);
place = (-9, 61);
type = Stem;
},
{
horizontal = 1;
place = (471, -20);
target = down;
type = TopGhost;
},
{
place = (41, 128);
place = (41, 128);
type = Stem;
},
{
place = (300, 126);
place = (300, 126);
type = Stem;
},
{
horizontal = 1;
place = (556, 75);
place = (556, 75);
type = Stem;
},
{
horizontal = 1;
place = (704, -20);
target = down;
type = TopGhost;
}
);
layerId = m01;
shapes = (
{
closed = 1;
nodes = (
(291,79,o),
(268,52,o),
(234,52,cs),
(169,52,o),
(169,118,o),
(169,118,c),
(169,169,o),
(202,216,o),
(300,238,c),
(300,238,o),
(300,105,o),
(300,103,c)
);
},
{
closed = 1;
nodes = (
(425,52,o),
(426,122,o),
(426,122,c),
(426,271,ls),
(426,389,o),
(390,471,o),
(259,471,c),
(259,471,o),
(207,475,o),
(162,451,cs),
(107,422,o),
(94,395,o),
(84,378,cs),
(74,361,o),
(75,337,o),
(87,318,cs),
(105,292,o),
(140,286,o),
(166,303,cs),
(192,321,o),
(199,356,o),
(181,382,cs),
(172,395,o),
(159,402,o),
(144,404,cs),
(137,405,o),
(141,422,o),
(173,438,cs),
(242,474,o),
(300,422,o),
(300,318,cs),
(300,256,l),
(125,212,o),
(41,202,o),
(41,93,cs),
(41,-9,o),
(156,-9,o),
(156,-9,c),
(227,-9,o),
(286,28,o),
(301,72,c),
(312,-9,o),
(401,-9,o),
(401,-9,c),
(464,-9,o),
(510,30,o),
(518,62,c),
(501,69,l),
(495,52,o),
(474,52,o),
(474,52,c)
);
},
{
closed = 1;
nodes = (
(170,631,o),
(146,667,o),
(146,704,c),
(129,704,l),
(129,628,o),
(168,556,o),
(265,556,cs),
(360,556,o),
(398,628,o),
(398,704,c),
(381,704,l),
(381,667,o),
(357,631,o),
(265,631,cs)
);
}
);
width = 527;
}
);
note = abreve;
unicode = 259;
},
{
glyphname = Aogonek;
layers = (
{
hints = (
{
horizontal = 1;
place = (0, 17);
place = (0, 17);
type = Stem;
},
{
horizontal = 1;
place = (197, 17);
place = (197, 17);
type = Stem;
},
{
horizontal = 1;
place = (704, -20);
target = down;
type = TopGhost;
},
{
place = (17, 138);
place = (17, 138);
type = Stem;
},
{
place = (655, 17);
place = (655, 17);
type = Stem;
}
);
layerId = m01;
shapes = (
{
closed = 1;
nodes = (
(610,90,o),
(601,116,o),
(356,704,c),
(339,704,l),
(166,248,l),
(68,11,o),
(43,19,o),
(17,17,c),
(17,0,l),
(263,0,l),
(263,17,l),
(105,9,o),
(167,197,o),
(167,197,c),
(404,197,l),
(434,124,l),
(434,124,o),
(486,17,o),
(408,17,c),
(408,0,l),
(586,0,l),
(523,-30,o),
(483,-72,o),
(501,-138,c),
(501,-138,o),
(517,-200,o),
(611,-186,cs),
(669,-175,o),
(672,-138,o),
(672,-107,c),
(655,-107,l),
(655,-126,o),
(643,-139,o),
(625,-142,c),
(625,-142,o),
(575,-150,o),
(563,-107,cs),
(554,-71,o),
(577,-32,o),
(632,0,c),
(694,0,l),
(694,17,l),
(668,19,o),
(644,10,o),
(610,90,c)
);
},
{
closed = 1;
nodes = (
(170,214,l),
(279,506,l),
(398,214,l)
);
}
);
width = 708;
}
);
note = Aogonek;
unicode = 260;
},
{
glyphname = aogonek;
layers = (
{
hints = (
{
horizontal = 1;
place = (-9, 61);
place = (-9, 61);
type = Stem;
},
{
horizontal = 1;
place = (293, 111);
place = (293, 111);
type = Stem;
},
{
horizontal = 1;
place = (449, 22);
place = (449, 22);
type = Stem;
},
{
place = (77, 114);
place = (77, 114);
type = Stem;
},
{
place = (300, 126);
place = (300, 126);
type = Stem;
},
{
place = (462, 17);
place = (462, 17);
type = Stem;
},
{
place = (41, 128);
place = (41, 128);
type = Stem;
},
{
horizontal = 1;
place = (-6, 21);
target = up;
type = BottomGhost;
}
);
layerId = m01;
shapes = (
{
closed = 1;
nodes = (
(425,52,o),
(426,122,o),
(426,122,c),
(426,271,ls),
(426,389,o),
(390,471,o),
(259,471,c),
(259,471,o),
(207,475,o),
(162,451,cs),
(107,422,o),
(94,395,o),
(84,378,cs),
(74,361,o),
(75,337,o),
(87,318,cs),
(105,292,o),
(140,286,o),
(166,303,cs),
(192,321,o),
(199,356,o),
(181,382,cs),
(172,395,o),
(159,402,o),
(144,404,cs),
(137,405,o),
(141,422,o),
(173,438,cs),
(242,474,o),
(300,422,o),
(300,318,cs),
(300,256,l),
(125,212,o),
(41,202,o),
(41,93,cs),
(41,-9,o),
(156,-9,o),
(156,-9,c),
(227,-9,o),
(286,28,o),
(301,72,c),
(308,15,o),
(352,-1,o),
(379,-6,c),
(324,-36,o),
(292,-76,o),
(308,-137,c),
(308,-137,o),
(324,-199,o),
(418,-185,cs),
(476,-174,o),
(479,-137,o),
(479,-106,c),
(462,-106,l),
(462,-125,o),
(450,-138,o),
(432,-141,c),
(432,-141,o),
(382,-149,o),
(370,-106,cs),
(362,-73,o),
(381,-37,o),
(426,-7,c),
(476,1,o),
(511,34,o),
(518,62,c),
(501,69,l),
(495,52,o),
(474,52,o),
(474,52,c)
);
},
{
closed = 1;
nodes = (
(300,103,l),
(291,79,o),
(268,52,o),
(234,52,cs),
(169,52,o),
(169,118,o),
(169,118,c),
(169,169,o),
(202,216,o),
(300,238,c)
);
}
);
width = 527;
}
);
note = aogonek;
unicode = 261;
},
{
glyphname = Cacute;
layers = (
{
hints = (
{
horizontal = 1;
place = (-9, 21);
target = up;
type = BottomGhost;
},
{
horizontal = 1;
place = (210, -20);
target = down;
type = TopGhost;
},
{
horizontal = 1;
place = (713, -20);
target = down;
type = TopGhost;
},
{
place = (40, 180);
place = (40, 180);
type = Stem;
},
{
horizontal = 1;
place = (735, 21);
target = up;
type = BottomGhost;
},
{
horizontal = 1;
place = (898, -20);
target = down;
type = TopGhost;
}
);
layerId = m01;
shapes = (
{
closed = 1;
nodes = (
(615,210,l),
(589,101,o),
(507,8,o),
(387,8,cs),
(279,8,o),
(220,77,o),
(220,352,cs),
(220,626,o),
(276,696,o),
(387,696,cs),
(501,696,o),
(559,630,o),
(615,495,c),
(632,495,l),
(646,652,l),
(583,703,o),
(490,713,o),
(387,713,cs),
(173,713,o),
(40,551,o),
(40,352,cs),
(40,153,o),
(173,-9,o),
(387,-9,cs),
(494,-9,o),
(572,4,o),
(646,53,c),
(632,210,l)
);
},
{
closed = 1;
nodes = (
(223,735,l),
(260,735,l),
(504,863,l),
(392,898,l)
);
}
);
width = 687;
}
);
note = Cacute;
unicode = 262;
},
{
glyphname = cacute;
layers = (
{
hints = (
{
horizontal = 1;
place = (-9, 21);
target = up;
type = BottomGhost;
},
{
horizontal = 1;
place = (471, -20);
target = down;
type = TopGhost;
},
{
place = (45, 126);
place = (45, 126);
type = Stem;
},
{
horizontal = 1;
place = (541, 21);
target = up;
type = BottomGhost;
},
{
horizontal = 1;
place = (704, -20);
target = down;
type = TopGhost;
}
);
layerId = m01;
shapes = (
{
closed = 1;
nodes = (
(450,129,l),
(427,96,o),
(348,69,o),
(298,80,cs),
(229,95,o),
(171,143,o),
(171,251,cs),
(171,423,o),
(268,454,o),
(304,454,cs),
(344,454,o),
(366,437,o),
(357,433,cs),
(342,425,o),
(330,412,o),
(326,393,cs),
(316,358,o),
(337,321,o),
(373,312,cs),
(409,302,o),
(445,325,o),
(455,360,cs),
(462,384,o),
(452,412,o),
(435,427,cs),
(418,442,o),
(375,471,o),
(304,471,cs),
(133,471,o),
(45,348,o),
(45,233,cs),
(45,116,o),
(134,-9,o),
(265,-9,cs),
(390,-9,o),
(450,69,o),
(464,120,c)
);
},
{
closed = 1;
nodes = (
(141,541,l),
(178,541,l),
(422,669,l),
(310,704,l)
);
}
);
width = 500;
}
);
note = cacute;
unicode = 263;
},
{
glyphname = Ccaron;
layers = (
{
hints = (
{
horizontal = 1;
place = (-9, 21);
target = up;
type = BottomGhost;
},
{
horizontal = 1;
place = (210, -20);
target = down;
type = TopGhost;
},
{
horizontal = 1;
place = (713, -20);
target = down;
type = TopGhost;
},
{
place = (40, 180);
place = (40, 180);
type = Stem;
},
{
horizontal = 1;
place = (735, 21);
target = up;
type = BottomGhost;
},
{
horizontal = 1;
place = (922, -20);
target = down;
type = TopGhost;
}
);
layerId = m01;
shapes = (
{
closed = 1;
nodes = (
(615,210,l),
(589,101,o),
(507,8,o),
(387,8,cs),
(279,8,o),
(220,77,o),
(220,352,cs),
(220,626,o),
(276,696,o),
(387,696,cs),
(501,696,o),
(559,630,o),
(615,495,c),
(632,495,l),
(646,652,l),
(583,703,o),
(490,713,o),
(387,713,cs),
(173,713,o),
(40,551,o),
(40,352,cs),
(40,153,o),
(173,-9,o),
(387,-9,cs),
(494,-9,o),
(572,4,o),
(646,53,c),
(632,210,l)
);
},
{
closed = 1;
nodes = (
(226,922,l),
(381,735,l),
(536,922,l),
(499,922,l),
(381,845,l),
(262,922,l)
);
}
);
width = 687;
}
);
note = Ccaron;
unicode = 268;
},
{
glyphname = ccaron;
layers = (
{
hints = (
{
horizontal = 1;
place = (-9, 21);
target = up;
type = BottomGhost;
},
{
horizontal = 1;
place = (471, -20);
target = down;
type = TopGhost;
},
{
place = (45, 126);
place = (45, 126);
type = Stem;
},
{
horizontal = 1;
place = (517, 21);
target = up;
type = BottomGhost;
},
{
horizontal = 1;
place = (704, -20);
target = down;
type = TopGhost;
}
);
layerId = m01;
shapes = (
{
closed = 1;
nodes = (
(450,129,l),
(427,96,o),
(348,69,o),
(298,80,cs),
(229,95,o),
(171,143,o),
(171,251,cs),
(171,423,o),
(268,454,o),
(304,454,cs),
(344,454,o),
(366,437,o),
(357,433,cs),
(342,425,o),
(330,412,o),
(326,393,cs),
(316,358,o),
(337,321,o),
(373,312,cs),
(409,302,o),
(445,325,o),
(455,360,cs),
(462,384,o),
(452,412,o),
(435,427,cs),
(418,442,o),
(375,471,o),
(304,471,cs),
(133,471,o),
(45,348,o),
(45,233,cs),
(45,116,o),
(134,-9,o),
(265,-9,cs),
(390,-9,o),
(450,69,o),
(464,120,c)
);
},
{
closed = 1;
nodes = (
(128,704,l),
(283,517,l),
(438,704,l),
(401,704,l),
(283,627,l),
(164,704,l)
);
}
);
width = 500;
}
);
note = ccaron;
unicode = 269;
},
{
glyphname = Dcaron;
layers = (
{
hints = (
{
horizontal = 1;
place = (0, 21);
target = up;
type = BottomGhost;
},
{
horizontal = 1;
place = (704, -20);
target = down;
type = TopGhost;
},
{
place = (112, 145);
place = (112, 145);
type = Stem;
},
{
place = (545, 175);
place = (545, 175);
type = Stem;
},
{
horizontal = 1;
place = (735, 21);
target = up;
type = BottomGhost;
},
{
horizontal = 1;
place = (922, -20);
target = down;
type = TopGhost;
}
);
layerId = m01;
shapes = (
{
closed = 1;
nodes = (
(37,704,l),
(37,687,l),
(81,687,o),
(112,628,o),
(112,566,cs),
(112,137,ls),
(112,69,o),
(80,17,o),
(37,17,c),
(37,0,l),
(301,0,ls),
(500,0,o),
(720,57,o),
(720,349,cs),
(720,642,o),
(500,704,o),
(301,704,cs)
);
},
{
closed = 1;
nodes = (
(257,17,l),
(257,687,l),
(301,687,ls),
(399,687,o),
(545,661,o),
(545,349,cs),
(545,38,o),
(399,17,o),
(301,17,cs)
);
},
{
closed = 1;
nodes = (
(171,922,l),
(326,735,l),
(481,922,l),
(444,922,l),
(326,845,l),
(207,922,l)
);
}
);
width = 768;
}
);
note = Dcaron;
unicode = 270;
},
